<svg width="143" height="156" viewBox="0 0 143 156" fill="none" xmlns="http://www.w3.org/2000/svg">
<g clip-path="url(#clip0_232_3150)">
<path opacity="0.5" d="M140.544 130.945L98.8228 155.039C96.962 156.117 94.1376 156.231 92.5237 155.298L1.09027 102.508C-0.523646 101.575 -0.318895 99.9488 1.54193 98.8708L43.263 74.7765C45.1238 73.6985 47.9482 73.5841 49.5621 74.5175L141.002 127.313C142.609 128.241 142.411 129.867 140.544 130.945Z" fill="#F3F3F3"/>
<path d="M142.085 115.817L133.492 114.324L49.5558 65.8578C47.9419 64.9243 45.1235 65.0448 43.2567 66.1167L4.37806 88.5791L0 87.8143V92.2586H0.00602209C0 92.8548 0.355303 93.4209 1.09 93.8484L92.5294 146.644C94.1433 147.578 96.9617 147.457 98.8285 146.385L140.55 122.291C141.585 121.695 142.103 120.924 142.091 120.201V115.817H142.085Z" fill="#E4DCD1"/>
<path d="M140.544 117.871L98.8228 141.965C96.962 143.043 94.1376 143.157 92.5237 142.224L1.09027 89.4342C-0.523646 88.5008 -0.318895 86.8748 1.54193 85.7969L43.263 61.7025C45.1238 60.6245 47.9482 60.5101 49.5621 61.4435L141.002 114.239C142.609 115.167 142.411 116.793 140.544 117.871Z" fill="#3F3F3F"/>
<path d="M140.544 117.304L98.8227 141.399C96.9619 142.477 94.1376 142.591 92.5236 141.658L1.09023 88.8681C0.482003 88.5188 0.132721 88.0671 0.0303458 87.5793C-0.0961181 88.2719 0.247141 88.9464 1.09023 89.4342L92.5297 142.23C94.1436 143.163 96.9619 143.043 98.8288 141.971L140.55 117.876C141.712 117.208 142.224 116.323 142.061 115.528C141.941 116.154 141.435 116.793 140.544 117.304Z" fill="white"/>
<path d="M140.61 114.01L92.144 142.001L1.48145 89.6569L49.9472 61.6663L140.61 114.01Z" fill="#B7B7B7"/>
<path d="M28.6536 72.6266L22.216 76.3422C21.939 76.5048 21.5114 76.5229 21.2705 76.3843L21.2043 76.3482C20.9634 76.2097 20.9935 75.9628 21.2705 75.8002L27.7081 72.0846C27.9851 71.922 28.4127 71.9039 28.6536 72.0484L28.7198 72.0846C28.9667 72.2171 28.9306 72.464 28.6536 72.6266Z" fill="white"/>
<path d="M45.2982 6.823C46.882 6.823 48.1647 8.1057 48.1647 9.68951C48.1647 11.2733 46.882 12.556 45.2982 12.556C43.7143 12.556 42.4316 11.2733 42.4316 9.68951C42.4316 8.1057 43.7143 6.823 45.2982 6.823Z" fill="white"/>
<path d="M36.0486 6.823C37.6325 6.823 38.9152 8.1057 38.9152 9.68951C38.9152 11.2733 37.6325 12.556 36.0486 12.556C34.4648 12.556 33.1821 11.2733 33.1821 9.68951C33.1882 8.1057 34.4709 6.823 36.0486 6.823Z" fill="#B8213C"/>
<path opacity="0.5" d="M26.8045 6.823C28.3883 6.823 29.671 8.1057 29.671 9.68951C29.671 11.2733 28.3883 12.556 26.8045 12.556C25.2207 12.556 23.938 11.2733 23.938 9.68951C23.938 8.1057 25.2207 6.823 26.8045 6.823Z" fill="#B8213C"/>
<path opacity="0.1" d="M17.5545 6.823C19.1383 6.823 20.421 8.1057 20.421 9.68951C20.421 11.2733 19.1383 12.556 17.5545 12.556C15.9707 12.556 14.688 11.2733 14.688 9.68951C14.688 8.1057 15.9707 6.823 17.5545 6.823Z" fill="#B8213C"/>
<g clip-path="url(#clip1_232_3150)">
<path d="M78.0662 84.8305L52.8564 70.2769C52.1878 69.8909 51.281 69.6741 50.3354 69.6741C49.3899 69.6741 48.4831 69.8909 47.8145 70.2769L22.6047 84.8305C21.9361 85.2165 21.5605 85.74 21.5605 86.2859C21.5605 86.8317 21.9361 87.3552 22.6047 87.7412L47.8145 102.295C48.4831 102.681 49.3899 102.898 50.3354 102.898C51.281 102.898 52.1878 102.681 52.8564 102.295L78.0662 87.7412C78.7348 87.3552 79.1104 86.8317 79.1104 86.2859C79.1104 85.74 78.7348 85.2165 78.0662 84.8305ZM60.4194 80.4644C60.7933 80.6803 61.048 80.9553 61.1511 81.2548C61.2543 81.5542 61.2014 81.8646 60.999 82.1467C60.7966 82.4287 60.4539 82.6698 60.0142 82.8394C59.5744 83.009 59.0575 83.0996 58.5286 83.0996C57.9998 83.0996 57.4828 83.009 57.0431 82.8394C56.6034 82.6698 56.2606 82.4287 56.0583 82.1467C55.8559 81.8646 55.8029 81.5542 55.9061 81.2548C56.0093 80.9553 56.2639 80.6803 56.6379 80.4644C57.1393 80.1749 57.8195 80.0123 58.5286 80.0123C59.2378 80.0123 59.9179 80.1749 60.4194 80.4644ZM45.1359 95.109L35.052 89.2875L37.8881 87.6503L41.512 89.7423L48.7598 85.5582L46.3964 84.1938L49.2325 82.5565L54.432 85.5582L44.3481 91.3796L47.972 93.4717L45.1359 95.109Z" fill="white"/>
</g>
<path opacity="0.6" d="M61.2746 104.881C70.2213 104.881 77.474 100.694 77.474 95.5286C77.474 90.3634 70.2213 86.1763 61.2746 86.1763C52.3279 86.1763 45.0752 90.3634 45.0752 95.5286C45.0752 100.694 52.3279 104.881 61.2746 104.881Z" fill="#BABABA"/>
<path d="M61.2746 110.168C54.8369 110.168 48.3933 108.753 43.4913 105.923C38.6977 103.158 36.0601 99.4669 36.0601 95.5285C36.0601 91.59 38.6977 87.9045 43.4913 85.1403C53.2953 79.4796 69.2478 79.4796 79.0578 85.1403C83.8514 87.9045 86.489 91.596 86.489 95.5345C86.489 99.4669 83.8514 103.158 79.0578 105.923C74.1498 108.753 67.7122 110.168 61.2746 110.168ZM61.2746 81.3163C54.9152 81.3163 48.5499 82.7134 43.7081 85.5077C39.0591 88.1935 36.4936 91.7526 36.4936 95.5224C36.4936 99.2983 39.053 102.851 43.7081 105.537C53.3916 111.132 69.1575 111.132 78.841 105.537C83.49 102.851 86.0555 99.2923 86.0555 95.5224C86.0555 91.7466 83.4961 88.1935 78.841 85.5077C73.9932 82.7195 67.6339 81.3163 61.2746 81.3163Z" fill="white"/>
<path d="M126.807 40.4023L57.2762 0.259059C56.7342 -0.0540898 56.2404 -0.0721561 55.861 0.144639V0.138617L54.8252 0.740826C54.8252 0.740826 55.0661 0.776959 55.3009 0.807069C55.1745 1.10215 55.1022 1.46348 55.1022 1.89105V49.8028C55.1022 51.3987 56.0718 53.2535 57.2702 53.946L126.801 94.0893C126.934 94.1675 127.06 94.2217 127.187 94.2639V94.8059L128.228 94.1976H128.222C128.68 93.9327 128.975 93.3184 128.975 92.4452V44.5455C128.975 42.9497 128.006 41.0949 126.807 40.4023Z" fill="white"/>
<path d="M125.802 94.6796L56.2646 54.5363C55.0662 53.8438 54.0967 51.989 54.0967 50.3931V2.48739C54.0967 0.891541 55.0662 0.156846 56.2646 0.849386L125.802 40.9926C127 41.6852 127.97 43.54 127.97 45.1358V93.0416C127.97 94.6374 127 95.3721 125.802 94.6796Z" fill="#B8213C"/>
<path d="M105.068 43.4798V36.6387L106.519 37.4757C106.796 37.6323 107.031 37.8009 107.236 37.9756C107.441 38.1502 107.621 38.3489 107.778 38.5718C107.934 38.7946 108.055 39.0415 108.139 39.3245C108.217 39.6015 108.26 39.9026 108.26 40.2278C108.26 41.0709 107.965 41.372 107.386 41.1372C107.736 41.4142 108.001 41.7454 108.169 42.1188C108.344 42.4921 108.428 42.9318 108.434 43.4376C108.434 44.088 108.296 44.4975 108.013 44.6721C107.73 44.8468 107.314 44.7745 106.772 44.4614L105.068 43.4798ZM106.146 40.0532L106.483 40.2459C106.802 40.4266 107.019 40.4747 107.139 40.3904C107.26 40.3001 107.32 40.0713 107.32 39.7039C107.32 39.5112 107.302 39.3426 107.26 39.2041C107.218 39.0596 107.158 38.9331 107.061 38.8187C106.971 38.7042 106.862 38.6079 106.754 38.5236C106.64 38.4393 106.489 38.3429 106.302 38.2345L106.152 38.1502V40.0532H106.146ZM106.146 43.2208L106.543 43.4497C106.862 43.6363 107.085 43.6785 107.212 43.5761C107.338 43.4737 107.398 43.2268 107.398 42.8234C107.398 42.4078 107.326 42.0706 107.188 41.8056C107.049 41.5407 106.814 41.3118 106.483 41.1251L106.146 40.9264V43.2208Z" fill="white"/>
<path d="M108.813 45.6418L110.018 39.4993L111.144 40.1497L112.342 47.6833L111.337 47.1052L111.096 45.3768L110.072 44.7867L109.831 46.232L108.813 45.6418ZM110.187 44.0339L110.981 44.4916L110.584 41.4564L110.187 44.0339Z" fill="white"/>
<path d="M112.926 48.0145V41.1794L113.667 41.607L115.118 46.3163V42.4441L116.01 42.962V49.8031L115.305 49.3936L113.842 44.4796V48.5505L112.926 48.0145Z" fill="white"/>
<path d="M116.895 50.3089V43.4739L117.973 44.1002V47.0691L119.135 44.7686L120.165 45.3648L119.033 47.7736L120.285 52.2722L119.208 51.6519L118.184 47.8459L117.967 48.1651V50.9352L116.895 50.3089Z" fill="white"/>
<path d="M73.2951 54.4338L60.0947 46.8099V45.0454L73.2951 52.6694V54.4338Z" fill="white"/>
<path d="M89.5186 63.7982L76.3242 56.1802V54.4158L89.5186 62.0337V63.7982Z" fill="white"/>
<path d="M105.742 73.1685L92.5479 65.5445V63.78L105.742 71.404V73.1685Z" fill="white"/>
<path d="M121.971 82.5331L108.771 74.9151V73.1506L121.971 80.7686V82.5331Z" fill="white"/>
<path opacity="0.2" d="M69.7361 19.6982L54.0967 18.4336V50.3989C54.0967 51.9947 55.0662 53.8495 56.2646 54.542L86.351 71.9158C94.1255 60.8954 92.3671 44.0094 92.3671 44.0094L69.7361 19.6982Z" fill="#041860"/>
<path d="M87.0252 47.7311L64.3881 23.4259L41.7511 21.5952C41.7511 21.5952 38.1138 52.2838 64.3881 84.8332C90.6625 82.6231 87.0252 47.7311 87.0252 47.7311Z" fill="#E3CDAC"/>
<path d="M41.7514 21.5952L36.6567 24.534L59.2938 26.3647L64.3885 23.4259L41.7514 21.5952Z" fill="#FFF8EE"/>
<path d="M81.9305 50.6758L59.2934 26.3646L49.9833 25.4252L36.6564 24.5339C36.6564 24.5339 33.019 55.2225 59.2934 87.7719C85.5678 85.5618 81.9305 50.6758 81.9305 50.6758Z" fill="#E2DDD7"/>
<path d="M81.9308 50.676L59.2938 26.3648L36.6567 24.5341C37.2951 24.1667 37.2951 24.1667 37.2951 24.1667L60.2332 26.0216L82.8703 50.3267C82.8703 50.3267 85.9054 79.4917 66.3396 86.1762C84.8696 78.8955 81.9308 50.676 81.9308 50.676Z" fill="white"/>
<path opacity="0.2" d="M79.1848 51.0492L58.8302 29.1951L50.4594 28.352L38.4755 27.551C38.4755 27.551 35.2055 55.1442 58.8302 84.4056C82.4548 82.4183 79.1848 51.0492 79.1848 51.0492Z" fill="white"/>
<path d="M44.4241 35.8242L43.6235 35.0237L42.823 35.8242L43.6235 36.6248L44.4241 35.8242Z" fill="white"/>
<path d="M47.3181 35.8123L46.5176 35.0117L45.717 35.8123L46.5176 36.6128L47.3181 35.8123Z" fill="white"/>
<path d="M45.8753 34.3738L45.0747 33.5732L44.2742 34.3738L45.0747 35.1743L45.8753 34.3738Z" fill="white"/>
<path d="M45.8665 37.2629L45.0659 36.4624L44.2654 37.2629L45.0659 38.0635L45.8665 37.2629Z" fill="white"/>
<path d="M127.668 31.5559L126.018 29.9059L129.975 25.9493L126.018 21.9928L127.668 20.3428L133.275 25.9493L127.668 31.5559ZM126.681 29.9059L127.668 30.8935L132.618 25.9433L127.668 20.9992L126.681 21.9868L130.637 25.9433L126.681 29.9059Z" fill="white"/>
<path opacity="0.5" d="M121.532 20.6741L120.213 21.9929L124.175 25.9494L120.213 29.9059L121.532 31.2248L125.494 27.2683L126.813 25.9494L121.532 20.6741Z" fill="#97958C"/>
<path d="M95.3051 127.078C95.1425 127.078 95.004 126.952 94.992 126.789C94.98 126.615 95.1064 126.464 95.2811 126.446C100.063 126.067 104.838 124.615 108.74 122.363C112.98 119.918 115.515 117.479 116.28 115.125C116.334 114.956 116.509 114.866 116.678 114.92C116.846 114.974 116.936 115.155 116.882 115.317C116.063 117.828 113.432 120.382 109.054 122.911C105.073 125.212 100.201 126.687 95.3292 127.078C95.3232 127.078 95.3112 127.078 95.3051 127.078Z" fill="white"/>
<path d="M116.834 113.842C116.666 113.842 116.527 113.709 116.521 113.535C116.455 111.656 115.088 109.897 112.571 108.446C107.006 105.236 99.7497 105.248 92.1377 108.494C91.9751 108.56 91.7885 108.488 91.7222 108.326C91.656 108.163 91.7282 107.976 91.8908 107.91C99.6894 104.586 107.145 104.58 112.884 107.898C115.6 109.464 117.075 111.409 117.147 113.511C117.154 113.685 117.015 113.83 116.84 113.836C116.84 113.842 116.84 113.842 116.834 113.842Z" fill="white"/>
<path d="M90.4818 127.066C90.4697 127.066 90.4637 127.066 90.4516 127.066C87.7959 126.819 85.4533 126.145 83.6828 125.127C81.7196 123.995 80.4971 122.465 80.1479 120.701C80.0997 120.454 80.1719 120.207 80.3526 119.996C80.6657 119.635 81.2559 119.436 81.9003 119.472C82.641 119.515 83.2251 119.852 83.3576 120.322C83.7069 121.544 84.6102 122.586 86.0314 123.405C90.9756 126.259 100.49 125.404 107.241 121.508C111.601 118.991 113.902 116.425 113.902 114.089C113.902 112.445 112.733 110.903 110.529 109.626C104.832 106.338 97.1061 107.031 89.3195 111.523C86.5132 113.143 84.4958 115.13 83.6467 117.118C83.472 117.527 82.9421 117.804 82.2917 117.822C81.6534 117.834 81.0993 117.612 80.8645 117.238C80.72 117.015 80.7079 116.75 80.8223 116.516C81.9665 114.191 84.285 111.975 87.5129 110.114C87.6634 110.024 87.8561 110.078 87.9465 110.228C88.0368 110.379 87.9826 110.572 87.832 110.662C84.7126 112.463 82.4844 114.582 81.3944 116.799C81.3764 116.829 81.3764 116.853 81.4004 116.895C81.4968 117.045 81.834 117.196 82.2797 117.19C82.7374 117.178 83.0204 116.997 83.0686 116.871C83.9719 114.757 86.0796 112.667 89.0064 110.975C96.9916 106.362 104.953 105.67 110.848 109.078C113.263 110.469 114.54 112.204 114.54 114.089C114.54 116.702 112.191 119.382 107.56 122.056C100.629 126.055 90.831 126.91 85.7183 123.953C84.1706 123.056 83.1408 121.863 82.7494 120.49C82.7012 120.322 82.3519 120.129 81.8702 120.099C81.3643 120.069 80.9789 120.237 80.8344 120.406C80.7621 120.49 80.7681 120.55 80.7742 120.568C81.0873 122.146 82.2074 123.531 84.002 124.573C85.6942 125.549 87.9465 126.193 90.5119 126.434C90.6865 126.452 90.813 126.603 90.7949 126.777C90.7829 126.946 90.6444 127.066 90.4818 127.066Z" fill="white"/>
<path d="M98.4548 123.802C97.949 123.802 97.4552 123.628 97.1902 123.339C96.9915 123.122 96.9312 122.845 97.0156 122.592C97.13 122.249 97.4913 121.984 97.9911 121.881C100.141 121.448 102.219 120.671 104.007 119.641C106.934 117.955 108.59 116.263 108.801 114.763C108.903 114.016 108.644 113.318 108.03 112.679C107.819 112.463 107.735 112.198 107.801 111.927C107.879 111.589 108.181 111.312 108.626 111.156C109.397 110.885 110.354 111.048 110.806 111.529C111.667 112.445 112.065 113.45 111.98 114.528C111.86 116.094 110.728 117.708 108.62 119.334C108.482 119.442 108.283 119.412 108.174 119.274C108.066 119.135 108.096 118.936 108.235 118.828C110.198 117.317 111.246 115.847 111.354 114.474C111.426 113.583 111.083 112.74 110.348 111.957C110.102 111.692 109.403 111.547 108.837 111.746C108.56 111.842 108.439 111.981 108.421 112.065C108.415 112.083 108.403 112.144 108.488 112.228C109.246 113.011 109.566 113.89 109.433 114.841C109.192 116.57 107.476 118.364 104.332 120.183C102.49 121.249 100.34 122.05 98.1236 122.502C97.8225 122.562 97.6539 122.694 97.6238 122.791C97.6178 122.809 97.6057 122.845 97.672 122.917C97.8406 123.104 98.3163 123.242 98.786 123.14C101.237 122.61 103.598 121.719 105.609 120.556C105.76 120.466 105.952 120.52 106.043 120.671C106.133 120.821 106.079 121.014 105.928 121.104C103.863 122.297 101.436 123.218 98.9185 123.754C98.7559 123.784 98.6054 123.802 98.4548 123.802Z" fill="white"/>
<path d="M93.4386 124.29C93.4145 124.29 93.3904 124.29 93.3663 124.29C91.0418 124.218 89.0364 123.73 87.567 122.881C85.9049 121.923 85.0317 120.58 85.0317 119.003C85.0317 116.606 87.1334 113.956 90.6504 111.927C96.2268 108.705 101.797 107.675 106.338 109.012C106.826 109.157 107.163 109.44 107.265 109.783C107.344 110.048 107.277 110.319 107.079 110.542C106.669 111.011 105.742 111.198 104.971 110.969C101.725 109.994 97.63 110.686 93.4386 112.908C93.282 112.993 93.2218 113.077 93.2218 113.131C93.2218 113.191 93.2941 113.27 93.4025 113.33C93.7457 113.529 94.3419 113.535 94.7032 113.348C98.8705 111.144 102.761 110.74 105.362 112.246C106.41 112.854 106.964 113.643 106.964 114.54C106.964 116.01 105.519 117.588 102.676 119.232C98.7742 121.484 93.6313 122.182 91.2104 120.785C90.4516 120.346 89.9939 119.731 89.8855 119.009C89.741 118.051 90.1866 116.973 91.1863 115.895C91.2465 115.835 91.2345 115.799 91.2345 115.787C91.2224 115.721 91.1261 115.624 90.9454 115.546C90.4576 115.347 89.8073 115.468 89.5905 115.697C88.4944 116.889 87.9765 118.117 88.1331 119.171C88.2596 120.014 88.8016 120.719 89.747 121.267C90.6985 121.815 92.0113 122.152 93.5349 122.243C94.3419 122.291 94.926 122.688 94.9501 123.224C94.9622 123.465 94.8779 123.676 94.7032 123.85C94.4202 124.121 93.9565 124.29 93.4386 124.29ZM102.219 109.072C98.726 109.072 94.8538 110.229 90.9695 112.475C87.6453 114.39 85.6641 116.835 85.6641 119.003C85.6641 120.346 86.4289 121.496 87.8862 122.333C89.2653 123.128 91.1683 123.586 93.3844 123.652C93.7999 123.664 94.1131 123.531 94.2455 123.393C94.2757 123.363 94.3178 123.308 94.3118 123.26C94.3058 123.098 93.9866 122.887 93.4928 122.857C91.8668 122.766 90.4637 122.399 89.4279 121.797C88.3258 121.159 87.6634 120.279 87.5068 119.25C87.3201 118.003 87.8922 116.582 89.1207 115.251C89.5423 114.793 90.4878 114.655 91.1803 114.944C91.5476 115.094 91.7825 115.341 91.8487 115.63C91.9029 115.865 91.8307 116.106 91.65 116.305C90.8009 117.226 90.3974 118.142 90.5118 118.894C90.5962 119.43 90.9334 119.876 91.5296 120.219C93.7758 121.514 98.6356 120.821 102.363 118.665C104.929 117.184 106.338 115.715 106.338 114.522C106.338 113.86 105.904 113.27 105.049 112.776C102.64 111.385 98.9789 111.788 95.0043 113.89C94.4503 114.185 93.6313 114.173 93.0953 113.86C92.7761 113.673 92.5895 113.396 92.5955 113.101C92.6015 112.794 92.8002 112.517 93.1495 112.33C97.4914 110.03 101.755 109.325 105.158 110.343C105.742 110.518 106.386 110.361 106.609 110.108C106.687 110.018 106.669 109.964 106.663 109.939C106.633 109.831 106.464 109.687 106.163 109.596C104.923 109.253 103.604 109.072 102.219 109.072Z" fill="white"/>
<path d="M94.9442 120.105C94.1733 120.105 93.535 119.972 93.0713 119.707C92.5654 119.412 92.2944 118.979 92.2944 118.449C92.2944 117.317 93.5109 115.938 95.5524 114.757C98.8645 112.842 101.761 112.324 103.496 113.324C104.242 113.752 104.411 114.294 104.417 114.667C104.441 115.588 103.58 116.63 101.864 117.75C101.328 118.099 100.424 118.118 99.8522 117.786C99.545 117.606 99.3644 117.341 99.3523 117.058C99.3463 116.775 99.4969 116.522 99.7859 116.335C101.165 115.438 101.165 115.07 101.165 115.07C100.78 114.848 99.6173 115.04 97.5035 116.257C96.0402 117.1 95.438 117.822 95.438 118.027C95.438 118.202 95.2995 118.346 95.1248 118.346C94.9502 118.346 94.8117 118.208 94.8056 118.033C94.7996 117.16 96.6303 116.034 97.1904 115.715C98.6357 114.878 100.551 113.992 101.454 114.51C101.671 114.637 101.791 114.829 101.797 115.058C101.803 115.371 101.641 115.895 100.129 116.877C100.039 116.937 99.9846 117.003 99.9846 117.052C99.9846 117.094 100.033 117.172 100.165 117.25C100.533 117.461 101.177 117.455 101.514 117.232C103.514 115.932 103.797 115.082 103.785 114.697C103.779 114.384 103.574 114.113 103.176 113.884C102.454 113.468 100.286 112.77 95.8655 115.317C94.077 116.347 92.9207 117.582 92.9207 118.461C92.9207 118.762 93.0713 118.997 93.3784 119.171C94.1492 119.617 95.6608 119.593 97.4192 119.105C97.5879 119.057 97.7625 119.159 97.8107 119.328C97.8588 119.497 97.7565 119.671 97.5879 119.719C96.6183 119.972 95.715 120.105 94.9442 120.105Z" fill="white"/>
<path d="M89.7049 109.217C89.6688 109.217 89.6387 109.211 89.6025 109.193L81.268 104.381C81.1716 104.327 81.1415 104.2 81.1957 104.104C81.2499 104.008 81.3703 103.977 81.4727 104.032L89.8073 108.843C89.9037 108.898 89.9338 109.024 89.8796 109.12C89.8374 109.181 89.7712 109.217 89.7049 109.217Z" fill="white"/>
</g>
<defs>
<clipPath id="clip0_232_3150">
<rect width="142.085" height="155.93" fill="white"/>
</clipPath>
<clipPath id="clip1_232_3150">
<rect width="46.5746" height="46.5746" fill="white" transform="matrix(0.866044 0.499967 -0.866044 0.499967 50.3354 63)"/>
</clipPath>
</defs>
</svg>
