<svg width="173" height="172" viewBox="0 0 173 172" fill="none" xmlns="http://www.w3.org/2000/svg">
<g clip-path="url(#clip0_230_2393)">
<path opacity="0.6" d="M32.0922 92.8646L17.7783 84.5965L29.1534 78.0317L43.4672 86.2926L32.0922 92.8646Z" fill="#D7D7D7"/>
<path d="M32.6557 95.9716L12.3984 84.2749L28.5984 74.9248L48.8557 86.6215L32.6557 95.9716ZM13.3707 84.2749L32.6557 95.4087L47.8761 86.6215L28.5911 75.4877L13.3707 84.2749Z" fill="white"/>
<path d="M32.0922 73.7477L17.7783 65.4869L29.1534 58.9148L43.4672 67.1829L32.0922 73.7477Z" fill="#EDE0CC"/>
<path d="M43.4678 76.0507V67.1831L32.0928 73.7479V82.6155L43.4678 76.0507Z" fill="#BEB8A0"/>
<path d="M17.7783 65.4868V74.3544L32.0922 82.6152V73.7476L17.7783 65.4868Z" fill="#C9C4B2"/>
<path d="M26.5806 63.4109L20.3813 66.993V68.9084L22.2236 69.9684V68.053L28.4228 64.4782L26.5806 63.4109Z" fill="white"/>
<path d="M30.521 65.6843L24.3218 69.2591V71.1818L26.1567 72.2418V70.3265L32.356 66.7443L30.521 65.6843Z" fill="white"/>
<path d="M34.461 67.958L28.2617 71.5401V73.4555L30.104 74.5155V72.6001L36.2959 69.0253L34.461 67.958Z" fill="white"/>
<path d="M26.5806 63.4109V64.1858L27.7649 64.851L28.4228 64.4782L26.5806 63.4109Z" fill="white"/>
<path d="M21.0539 68.5134L20.3813 68.9082L22.2236 69.9682V69.1714L21.0539 68.5134Z" fill="white"/>
<path d="M26.5806 63.4109L20.3813 66.993V68.9084L21.0539 68.5136V67.3805L26.5879 64.1858L26.5806 63.4109Z" fill="#BEB8A0"/>
<path d="M30.5205 65.6843V66.4592L31.6975 67.1245L32.3554 66.7443L30.5205 65.6843Z" fill="white"/>
<path d="M24.987 70.7871L24.3218 71.1819L26.1567 72.2419V71.4451L24.987 70.7871Z" fill="white"/>
<path d="M30.521 65.6843L24.3218 69.2591V71.1818L24.987 70.787V69.6539L30.521 66.4592V65.6843Z" fill="#BEB8A0"/>
<path d="M34.4609 67.958V68.7329L35.6379 69.3982L36.2959 69.0253L34.4609 67.958Z" fill="white"/>
<path d="M28.927 73.0608L28.2617 73.4556L30.104 74.5156V73.7187L28.927 73.0608Z" fill="white"/>
<path d="M34.461 67.958L28.2617 71.5401V73.4555L28.927 73.0607V71.9276L34.461 68.7329V67.958Z" fill="#BEB8A0"/>
<path d="M106.425 171.24C89.6331 171.24 72.8483 167.548 60.0623 160.172C47.6346 152.993 40.7847 143.438 40.7847 133.262C40.7847 123.086 47.6273 113.531 60.0623 106.352C85.6197 91.5925 127.216 91.5925 152.781 106.352C165.209 113.531 172.058 123.086 172.058 133.262C172.058 143.438 165.216 152.993 152.781 160.172C140.002 167.548 123.21 171.233 106.425 171.24ZM106.425 95.7668C89.7208 95.7668 73.0238 99.4366 60.3109 106.776C48.0366 113.86 41.2818 123.269 41.2818 133.262C41.2818 143.255 48.0366 152.664 60.3109 159.748C85.7366 174.427 127.114 174.427 152.54 159.748C164.814 152.664 171.569 143.255 171.569 133.262C171.569 123.269 164.806 113.86 152.54 106.776C139.827 99.4366 123.122 95.7668 106.425 95.7668Z" fill="#B8213C"/>
<path opacity="0.5" d="M106.425 160.325C132.318 160.325 153.307 148.209 153.307 133.262C153.307 118.315 132.318 106.199 106.425 106.199C80.5332 106.199 59.5435 118.315 59.5435 133.262C59.5435 148.209 80.5332 160.325 106.425 160.325Z" fill="#E7E7E7"/>
<path d="M136.281 28.1159L88.2811 0.380012C87.5061 -0.0659258 86.797 -0.102478 86.2487 0.19725L82.9883 2.09797L85.1156 3.38461V115.841C85.1156 118.166 86.5339 120.871 88.2737 121.88L135.711 149.294L135.031 151.699L138.314 149.791H138.306C138.986 149.411 139.418 148.512 139.418 147.225V34.1543C139.44 31.8223 138.021 29.1174 136.281 28.1159Z" fill="#E4DCD1"/>
<path d="M132.948 151.546L84.9545 123.81C83.2073 122.801 81.7964 120.096 81.7964 117.771V4.7079C81.7964 2.38317 83.2146 1.30854 84.9545 2.31738L132.948 30.0532C134.695 31.0621 136.106 33.7669 136.106 36.0917V149.162C136.106 151.487 134.695 152.554 132.948 151.546Z" fill="#3F3F3F"/>
<path d="M136.106 149.235L81.7891 117.852V4.62744L136.106 36.0112V149.235Z" fill="#B7B7B7"/>
<path opacity="0.4" d="M127.428 151.407L78.9525 123.4C77.1322 122.348 76.0137 120.41 76.0137 118.312V11.8282C76.0137 10.3369 77.622 9.40842 78.9159 10.1541L127.392 38.1677C129.212 39.2204 130.33 41.1577 130.33 43.2558V149.74C130.33 151.224 128.722 152.152 127.428 151.407Z" fill="white"/>
<path d="M128.4 151.889C128.035 151.889 127.662 151.794 127.326 151.597L78.8502 123.583C76.9714 122.501 75.8018 120.476 75.8018 118.305V11.8281C75.8018 11.0532 76.2038 10.3587 76.8764 9.97125C77.549 9.5838 78.3531 9.5838 79.0257 9.97125L127.501 37.9849C129.38 39.0668 130.542 41.0918 130.542 43.2631V149.747C130.542 150.522 130.14 151.216 129.468 151.604C129.131 151.787 128.766 151.889 128.4 151.889ZM77.951 10.1028C77.6586 10.1028 77.3589 10.1833 77.0884 10.3368C76.5474 10.6438 76.2258 11.2067 76.2258 11.8281V118.312C76.2258 120.33 77.3077 122.209 79.0549 123.217L127.531 151.231C128.071 151.545 128.715 151.545 129.248 151.231C129.789 150.924 130.111 150.361 130.111 149.74V43.2557C130.111 41.2381 129.029 39.3593 127.282 38.3504L78.8064 10.3368C78.5359 10.1833 78.2434 10.1028 77.951 10.1028Z" fill="white"/>
<path d="M112.537 20.9297L105.358 16.7847C105.117 16.6458 104.919 16.2656 104.919 15.944C104.919 15.6223 105.117 15.4688 105.358 15.6077L112.537 19.7527C112.778 19.8916 112.976 20.2718 112.976 20.5934C112.976 20.9224 112.778 21.0686 112.537 20.9297Z" fill="white"/>
<path opacity="0.2" d="M115.483 85.1958C116.463 85.766 117.26 85.1592 117.26 83.8507V44.5278C117.26 43.2192 116.463 41.6986 115.483 41.1284L76.1604 18.4294C76.0653 18.8827 76.0068 19.3579 76.0068 19.8477V62.4018L115.483 85.1958Z" fill="#041860"/>
<path d="M85.9413 70.6262L85.9487 71.6058C85.108 71.2184 84.0406 71.0429 82.7759 71.1306C78.3239 71.4596 73.1407 74.9759 71.2035 78.9894C70.6625 80.1006 70.4359 81.1313 70.4724 82.0378L69.5732 81.7381L70.5455 83.171V83.1636C71.3497 84.4137 72.9872 85.1155 75.2535 84.9474C79.7055 84.6184 84.8886 81.1021 86.8259 77.0887C87.7982 75.0783 87.7763 73.3311 86.9502 72.1176L85.9413 70.6262Z" fill="#EDDFBA"/>
<path d="M85.8099 75.59C83.8653 79.6034 78.6822 83.1271 74.2375 83.4487C69.7854 83.7777 67.7531 80.7804 69.6977 76.767C71.6422 72.7535 76.8253 69.2299 81.2701 68.9082C85.7222 68.5866 87.7545 71.5765 85.8099 75.59Z" fill="#F8F4ED"/>
<path d="M85.8099 75.59C83.8653 79.6034 78.6822 83.1271 74.2375 83.4487C69.7854 83.7777 67.7531 80.7804 69.6977 76.767C71.6422 72.7535 76.8253 69.2299 81.2701 68.9082C85.7222 68.5866 87.7545 71.5765 85.8099 75.59Z" fill="#F0E6BA"/>
<path d="M80.5462 80.1808C78.7625 81.4016 76.7009 82.235 74.8075 82.3739C72.9726 82.5055 71.5544 81.9865 70.816 80.8972C70.0777 79.808 70.1142 78.302 70.9184 76.6425C72.5559 73.2505 76.9495 70.2678 80.7071 69.9973C82.542 69.8658 83.9602 70.3848 84.6986 71.474C85.4369 72.5633 85.4004 74.0693 84.5962 75.7287C83.7848 77.4028 82.2934 78.9819 80.5462 80.1808ZM75.0561 72.3221C73.3308 73.5064 71.8687 75.0562 71.0646 76.7156C70.2897 78.3166 70.2458 79.7714 70.9476 80.8022C71.6494 81.833 73.0165 82.3374 74.7929 82.2058C78.4993 81.9353 82.8271 78.9965 84.4427 75.6556C85.2176 74.0546 85.2615 72.5999 84.5597 71.5691C83.8579 70.5383 82.4908 70.0339 80.7144 70.1655C78.8429 70.2971 76.8106 71.1158 75.0561 72.3221Z" fill="#EDDFBA"/>
<path d="M84.5158 75.685C82.8856 79.0551 78.5359 82.0085 74.8003 82.2863C71.0646 82.5568 69.3613 80.0493 70.9915 76.6792C72.6217 73.3091 76.9715 70.3557 80.7071 70.0779C84.4427 69.8001 86.1461 72.3149 84.5158 75.685Z" fill="#F9F4E1"/>
<path d="M71.211 77.0082C72.8412 73.6381 77.191 70.6846 80.9266 70.4068C82.6957 70.2753 84.0043 70.7724 84.728 71.6862C84.0774 70.5677 82.6738 69.9317 80.7073 70.0779C76.9717 70.3484 72.6219 73.3091 70.9917 76.6792C70.1291 78.4557 70.2022 79.9908 71.0063 81.0143C70.4215 80.0055 70.4434 78.6019 71.211 77.0082Z" fill="#EDDFBA"/>
<path d="M85.598 75.2829C83.6535 79.2964 78.4704 82.82 74.0256 83.1417C71.8983 83.2952 70.3192 82.6957 69.4712 81.5772C70.2534 82.8858 71.9202 83.6242 74.2376 83.4487C78.6897 83.1197 83.8728 79.6034 85.81 75.59C86.8262 73.4992 86.7531 71.6789 85.8247 70.4727C86.5484 71.6716 86.5265 73.3603 85.598 75.2829Z" fill="white"/>
<path d="M84.4573 80.3417C85.4516 79.3402 86.2703 78.2363 86.8259 77.0885C87.7982 75.0782 87.7763 73.331 86.9502 72.1174L85.9341 70.6188C85.9194 70.5969 85.9048 70.5822 85.8902 70.5603C85.8683 70.5311 85.8463 70.4945 85.8244 70.4653C85.8317 70.4726 85.8317 70.4872 85.839 70.4945C84.991 69.3614 83.4193 68.74 81.27 68.9008C78.7552 69.0836 75.9991 70.2898 73.7329 72.037L81.7452 80.3344H84.4573V80.3417Z" fill="#DBC5A4"/>
<path d="M110.396 44.3742L53.3302 11.426C52.8843 11.1701 52.4822 11.1555 52.1678 11.331L51.3198 11.8281C51.3198 11.8281 51.5172 11.8573 51.7146 11.8866C51.6122 12.1278 51.5538 12.4275 51.5538 12.7784V52.094C51.5538 53.4026 52.3506 54.9232 53.3302 55.4934L110.396 88.4416C110.505 88.5074 110.608 88.5513 110.71 88.5805V89.0264L111.565 88.5293H111.558C111.938 88.31 112.172 87.8056 112.172 87.0892V47.7736C112.172 46.465 111.375 44.9444 110.396 44.3742Z" fill="white"/>
<path d="M109.569 88.9242L52.504 55.976C51.5244 55.4058 50.7275 53.8852 50.7275 52.5766V13.2537C50.7275 11.9451 51.5244 11.3384 52.504 11.9086L109.569 44.8568C110.549 45.427 111.346 46.9476 111.346 48.2561V87.5718C111.346 88.8876 110.549 89.4871 109.569 88.9242Z" fill="#B8213C"/>
<path d="M92.5581 46.8964V41.282L93.7497 41.9692C93.9763 42.1008 94.1737 42.2323 94.3345 42.3786C94.5027 42.5248 94.6489 42.6856 94.7805 42.8683C94.9121 43.0511 95.0071 43.2558 95.0729 43.4824C95.1387 43.7091 95.1679 43.9576 95.1679 44.2281C95.1679 44.9226 94.9267 45.1711 94.4515 44.9738C94.7366 45.2004 94.9559 45.4709 95.0948 45.7779C95.241 46.0849 95.3068 46.4432 95.3141 46.8599C95.3141 47.3935 95.1972 47.7298 94.9706 47.876C94.7366 48.0149 94.4003 47.9637 93.9544 47.7006L92.5581 46.8964ZM93.4427 44.0892L93.7205 44.25C93.9836 44.4035 94.1591 44.4401 94.2541 44.367C94.3492 44.2939 94.4003 44.1038 94.4003 43.8041C94.4003 43.6433 94.3857 43.5117 94.3492 43.3947C94.3199 43.2777 94.2614 43.1754 94.1883 43.0804C94.1152 42.9853 94.0275 42.9049 93.9325 42.8391C93.8374 42.766 93.7132 42.6929 93.5596 42.5979L93.4354 42.5248V44.0892H93.4427ZM93.4427 46.6917L93.7643 46.8818C94.0275 47.0353 94.2103 47.0719 94.3126 46.9841C94.415 46.9037 94.4661 46.6917 94.4661 46.3701C94.4661 46.0338 94.4076 45.756 94.2907 45.5367C94.1737 45.3174 93.9836 45.1346 93.7132 44.9738L93.4354 44.8129V46.6917H93.4427Z" fill="white"/>
<path d="M95.6357 48.6729L96.6226 43.6287L97.5438 44.1623L98.5307 50.347L97.7046 49.8718L97.5072 48.4536L96.6665 47.9711L96.4691 49.1627L95.6357 48.6729ZM96.7615 47.357L97.4122 47.7298L97.0905 45.237L96.7615 47.357Z" fill="white"/>
<path d="M99.0054 50.6247V45.0103L99.6121 45.3612L100.804 49.2284V46.0483L101.535 46.4723V52.0868L100.957 51.7505L99.7584 47.7151V51.056L99.0054 50.6247Z" fill="white"/>
<path d="M102.266 52.5036V46.8892L103.151 47.4009V49.8353L104.108 47.9492L104.956 48.439L104.028 50.4128L105.051 54.1046L104.167 53.5928L103.326 50.4713L103.151 50.7345V53.008L102.266 52.5036Z" fill="white"/>
<path d="M66.4815 55.8881L55.6475 49.6376V48.1829L66.4815 54.4406V55.8881Z" fill="white"/>
<path d="M79.794 63.5788L68.96 57.321V55.8735L79.794 62.1313V63.5788Z" fill="white"/>
<path d="M93.1061 71.2619L82.2793 65.0114V63.564L93.1061 69.8144V71.2619Z" fill="white"/>
<path d="M106.426 78.9525L95.5918 72.6948V71.2473L106.426 77.5051V78.9525Z" fill="white"/>
<path opacity="0.2" d="M109.569 44.8568L52.504 11.9086C51.5244 11.3384 50.7275 11.9451 50.7275 13.2537V52.5693C50.7275 52.8106 50.7641 53.0518 50.808 53.3004C53.8418 51.1072 66.1891 44.3158 89.7727 57.3284C98.3551 62.0656 105.534 61.4369 111.353 58.3373V48.2488C111.346 46.9476 110.549 45.427 109.569 44.8568Z" fill="white"/>
<path opacity="0.2" d="M74.3768 42.861C82.3891 41.8303 89.0855 39.374 94.6487 36.2451L52.504 11.9086C51.5244 11.3384 50.7275 11.9451 50.7275 13.2537V50.8806C54.931 47.569 62.1245 44.4401 74.3768 42.861Z" fill="white"/>
<path d="M93.8055 145.8L93.2572 146.612C92.7893 145.815 92.0071 145.069 90.9105 144.426C87.0579 142.174 80.7928 142.152 76.9183 144.36C75.8437 144.974 75.0688 145.691 74.5863 146.466L74.0087 145.713L74.0014 147.438C73.9576 148.929 74.9152 150.428 76.8744 151.576C80.7271 153.827 86.9921 153.849 90.8667 151.641C92.8039 150.538 93.7762 149.075 93.7835 147.613L93.8055 145.8Z" fill="#EDDFBA"/>
<path d="M93.8092 145.798C93.8233 142.645 89.4065 140.069 83.9438 140.044C78.4811 140.02 74.0413 142.556 74.0271 145.709C74.0129 148.863 78.4298 151.439 83.8925 151.463C89.3552 151.488 93.795 148.952 93.8092 145.798Z" fill="white"/>
<path d="M90.8961 149.829C87.0215 152.044 80.7565 152.014 76.9038 149.763C73.0512 147.511 73.0659 143.9 76.9404 141.685C80.8149 139.47 87.08 139.499 90.9326 141.751C94.7852 143.995 94.7706 147.614 90.8961 149.829Z" fill="#F0E6BA"/>
<path d="M83.9583 150.633C81.7944 150.633 79.6305 150.15 77.9857 149.192C76.392 148.264 75.522 147.029 75.5293 145.72C75.5367 144.411 76.4212 143.183 78.0222 142.269C81.29 140.398 86.5974 140.427 89.8505 142.321C91.4442 143.249 92.3141 144.485 92.3068 145.793C92.2995 147.102 91.415 148.33 89.814 149.244C88.1984 150.172 86.0783 150.633 83.9583 150.633ZM83.8706 141.041C81.7798 141.041 79.6963 141.495 78.0953 142.408C76.5528 143.293 75.6975 144.463 75.6902 145.713C75.6829 146.963 76.5309 148.147 78.0661 149.039C81.2754 150.91 86.5023 150.932 89.7262 149.09C91.2687 148.206 92.1241 147.036 92.1314 145.786C92.1387 144.536 91.2907 143.351 89.7555 142.46C88.1399 141.516 86.0052 141.041 83.8706 141.041Z" fill="#EDDFBA"/>
<path d="M89.7702 149.17C86.5171 151.027 81.2609 151.005 78.0223 149.119C74.7838 147.233 74.7984 144.192 78.0516 142.335C81.3047 140.478 86.5609 140.5 89.7995 142.386C93.038 144.28 93.0234 147.314 89.7702 149.17Z" fill="#F9F4E1"/>
<path d="M78.0516 142.737C81.3047 140.88 86.561 140.902 89.7995 142.788C91.3274 143.68 92.1315 144.828 92.2119 145.99C92.307 144.696 91.5101 143.388 89.8068 142.386C86.5683 140.5 81.312 140.478 78.0589 142.335C76.3483 143.315 75.5295 144.623 75.6172 145.917C75.7049 144.755 76.5164 143.615 78.0516 142.737Z" fill="#EDDFBA"/>
<path d="M90.8961 149.448C87.0215 151.663 80.7565 151.634 76.9039 149.382C75.0616 148.308 74.104 146.919 74.0308 145.515C73.9358 147.036 74.8935 148.586 76.9039 149.755C80.7565 152.007 87.0215 152.029 90.8961 149.821C92.9137 148.666 93.886 147.131 93.8056 145.603C93.7179 147.006 92.7456 148.388 90.8961 149.448Z" fill="white"/>
<path d="M109.805 145.8L109.257 146.612C108.789 145.815 108.007 145.069 106.911 144.426C103.058 142.174 96.7928 142.152 92.9183 144.36C91.8437 144.974 91.0688 145.691 90.5863 146.466L90.0087 145.713L90.0014 147.438C89.9576 148.929 90.9152 150.428 92.8744 151.576C96.7271 153.827 102.992 153.849 106.867 151.641C108.804 150.538 109.776 149.075 109.784 147.613L109.805 145.8Z" fill="#EDDFBA"/>
<path d="M109.809 145.798C109.823 142.645 105.406 140.069 99.9438 140.044C94.4811 140.02 90.0413 142.556 90.0271 145.709C90.0129 148.863 94.4298 151.439 99.8925 151.463C105.355 151.488 109.795 148.952 109.809 145.798Z" fill="white"/>
<path d="M106.896 149.829C103.022 152.044 96.7565 152.014 92.9038 149.763C89.0512 147.511 89.0659 143.9 92.9404 141.685C96.8149 139.47 103.08 139.499 106.933 141.751C110.785 143.995 110.771 147.614 106.896 149.829Z" fill="#F0E6BA"/>
<path d="M99.9583 150.633C97.7944 150.633 95.6305 150.15 93.9857 149.192C92.392 148.264 91.522 147.029 91.5293 145.72C91.5367 144.411 92.4212 143.183 94.0222 142.269C97.29 140.398 102.597 140.427 105.851 142.321C107.444 143.249 108.314 144.485 108.307 145.793C108.3 147.102 107.415 148.33 105.814 149.244C104.198 150.172 102.078 150.633 99.9583 150.633ZM99.8706 141.041C97.7798 141.041 95.6963 141.495 94.0953 142.408C92.5528 143.293 91.6975 144.463 91.6902 145.713C91.6829 146.963 92.5309 148.147 94.0661 149.039C97.2754 150.91 102.502 150.932 105.726 149.09C107.269 148.206 108.124 147.036 108.131 145.786C108.139 144.536 107.291 143.351 105.755 142.46C104.14 141.516 102.005 141.041 99.8706 141.041Z" fill="#EDDFBA"/>
<path d="M105.77 149.17C102.517 151.027 97.2609 151.005 94.0223 149.119C90.7838 147.233 90.7984 144.192 94.0516 142.335C97.3047 140.478 102.561 140.5 105.799 142.386C109.038 144.28 109.023 147.314 105.77 149.17Z" fill="#F9F4E1"/>
<path d="M94.0516 142.737C97.3047 140.88 102.561 140.902 105.799 142.788C107.327 143.68 108.132 144.828 108.212 145.99C108.307 144.696 107.51 143.388 105.807 142.386C102.568 140.5 97.312 140.478 94.0589 142.335C92.3483 143.315 91.5295 144.623 91.6172 145.917C91.7049 144.755 92.5164 143.615 94.0516 142.737Z" fill="#EDDFBA"/>
<path d="M106.896 149.448C103.022 151.663 96.7565 151.634 92.9039 149.382C91.0616 148.308 90.104 146.919 90.0308 145.515C89.9358 147.036 90.8935 148.586 92.9039 149.755C96.7565 152.007 103.022 152.029 106.896 149.821C108.914 148.666 109.886 147.131 109.806 145.603C109.718 147.006 108.746 148.388 106.896 149.448Z" fill="white"/>
<path d="M78.8055 137.8L78.2572 138.612C77.7893 137.815 77.0071 137.069 75.9105 136.426C72.0579 134.174 65.7928 134.152 61.9183 136.36C60.8437 136.974 60.0688 137.691 59.5863 138.466L59.0087 137.713L59.0014 139.438C58.9576 140.929 59.9152 142.428 61.8744 143.576C65.7271 145.827 71.9921 145.849 75.8667 143.641C77.8039 142.538 78.7762 141.075 78.7835 139.613L78.8055 137.8Z" fill="#EDDFBA"/>
<path d="M78.8092 137.798C78.8233 134.645 74.4065 132.069 68.9438 132.044C63.4811 132.02 59.0413 134.556 59.0271 137.709C59.0129 140.863 63.4298 143.439 68.8925 143.463C74.3552 143.488 78.795 140.952 78.8092 137.798Z" fill="white"/>
<path d="M75.8961 141.829C72.0215 144.044 65.7565 144.014 61.9038 141.763C58.0512 139.511 58.0659 135.9 61.9404 133.685C65.8149 131.47 72.08 131.499 75.9326 133.751C79.7852 135.995 79.7706 139.614 75.8961 141.829Z" fill="#F0E6BA"/>
<path d="M68.9583 142.633C66.7944 142.633 64.6305 142.15 62.9857 141.192C61.392 140.264 60.522 139.029 60.5293 137.72C60.5367 136.411 61.4212 135.183 63.0222 134.269C66.29 132.398 71.5974 132.427 74.8505 134.321C76.4442 135.249 77.3141 136.485 77.3068 137.793C77.2995 139.102 76.415 140.33 74.814 141.244C73.1984 142.172 71.0783 142.633 68.9583 142.633ZM68.8706 133.041C66.7798 133.041 64.6963 133.495 63.0953 134.408C61.5528 135.293 60.6975 136.463 60.6902 137.713C60.6829 138.963 61.5309 140.147 63.0661 141.039C66.2754 142.91 71.5023 142.932 74.7262 141.09C76.2687 140.206 77.1241 139.036 77.1314 137.786C77.1387 136.536 76.2907 135.351 74.7555 134.46C73.1399 133.516 71.0052 133.041 68.8706 133.041Z" fill="#EDDFBA"/>
<path d="M74.7702 141.17C71.5171 143.027 66.2609 143.005 63.0223 141.119C59.7838 139.233 59.7984 136.192 63.0516 134.335C66.3047 132.478 71.5609 132.5 74.7995 134.386C78.038 136.28 78.0234 139.314 74.7702 141.17Z" fill="#F9F4E1"/>
<path d="M63.0516 134.737C66.3047 132.88 71.561 132.902 74.7995 134.788C76.3274 135.68 77.1315 136.828 77.2119 137.99C77.307 136.696 76.5101 135.388 74.8068 134.386C71.5683 132.5 66.312 132.478 63.0589 134.335C61.3483 135.315 60.5295 136.623 60.6172 137.917C60.7049 136.755 61.5164 135.615 63.0516 134.737Z" fill="#EDDFBA"/>
<path d="M75.8961 141.448C72.0215 143.663 65.7565 143.634 61.9039 141.382C60.0616 140.308 59.104 138.919 59.0308 137.515C58.9358 139.036 59.8935 140.586 61.9039 141.755C65.7565 144.007 72.0215 144.029 75.8961 141.821C77.9137 140.666 78.886 139.131 78.8056 137.603C78.7179 139.006 77.7456 140.388 75.8961 141.448Z" fill="white"/>
<path d="M96.8055 136.8L96.2572 137.612C95.7893 136.815 95.0071 136.069 93.9105 135.426C90.0579 133.174 83.7928 133.152 79.9183 135.36C78.8437 135.974 78.0688 136.691 77.5863 137.466L77.0087 136.713L77.0014 138.438C76.9576 139.929 77.9152 141.428 79.8744 142.576C83.7271 144.827 89.9921 144.849 93.8667 142.641C95.8039 141.538 96.7762 140.075 96.7835 138.613L96.8055 136.8Z" fill="#EDDFBA"/>
<path d="M96.8092 136.798C96.8233 133.645 92.4065 131.069 86.9438 131.044C81.4811 131.02 77.0413 133.556 77.0271 136.709C77.0129 139.863 81.4298 142.439 86.8925 142.463C92.3552 142.488 96.795 139.952 96.8092 136.798Z" fill="white"/>
<path d="M93.8961 140.829C90.0215 143.044 83.7565 143.014 79.9038 140.763C76.0512 138.511 76.0659 134.9 79.9404 132.685C83.8149 130.47 90.08 130.499 93.9326 132.751C97.7852 134.995 97.7706 138.614 93.8961 140.829Z" fill="#F0E6BA"/>
<path d="M86.9583 141.633C84.7944 141.633 82.6305 141.15 80.9857 140.192C79.392 139.264 78.522 138.029 78.5293 136.72C78.5367 135.411 79.4212 134.183 81.0222 133.269C84.29 131.398 89.5974 131.427 92.8505 133.321C94.4442 134.249 95.3141 135.485 95.3068 136.793C95.2995 138.102 94.415 139.33 92.814 140.244C91.1984 141.172 89.0783 141.633 86.9583 141.633ZM86.8706 132.041C84.7798 132.041 82.6963 132.495 81.0953 133.408C79.5528 134.293 78.6975 135.463 78.6902 136.713C78.6829 137.963 79.5309 139.147 81.0661 140.039C84.2754 141.91 89.5023 141.932 92.7262 140.09C94.2687 139.206 95.1241 138.036 95.1314 136.786C95.1387 135.536 94.2907 134.351 92.7555 133.46C91.1399 132.516 89.0052 132.041 86.8706 132.041Z" fill="#EDDFBA"/>
<path d="M92.7702 140.17C89.5171 142.027 84.2609 142.005 81.0223 140.119C77.7838 138.233 77.7984 135.192 81.0516 133.335C84.3047 131.478 89.5609 131.5 92.7995 133.386C96.038 135.28 96.0234 138.314 92.7702 140.17Z" fill="#F9F4E1"/>
<path d="M81.0516 133.737C84.3047 131.88 89.561 131.902 92.7995 133.788C94.3274 134.68 95.1315 135.828 95.2119 136.99C95.307 135.696 94.5101 134.388 92.8068 133.386C89.5683 131.5 84.312 131.478 81.0589 133.335C79.3483 134.315 78.5295 135.623 78.6172 136.917C78.7049 135.755 79.5164 134.615 81.0516 133.737Z" fill="#EDDFBA"/>
<path d="M93.8961 140.448C90.0215 142.663 83.7565 142.634 79.9039 140.382C78.0616 139.308 77.104 137.919 77.0308 136.515C76.9358 138.036 77.8935 139.586 79.9039 140.755C83.7565 143.007 90.0215 143.029 93.8961 140.821C95.9137 139.666 96.886 138.131 96.8056 136.603C96.7179 138.006 95.7456 139.388 93.8961 140.448Z" fill="white"/>
<path d="M83.8055 146.8L83.2572 147.612C82.7893 146.815 82.0071 146.069 80.9105 145.426C77.0579 143.174 70.7928 143.152 66.9183 145.36C65.8437 145.974 65.0688 146.691 64.5863 147.466L64.0087 146.713L64.0014 148.438C63.9576 149.929 64.9152 151.428 66.8744 152.576C70.7271 154.827 76.9921 154.849 80.8667 152.641C82.8039 151.538 83.7762 150.075 83.7835 148.613L83.8055 146.8Z" fill="#EDDFBA"/>
<path d="M83.8092 146.798C83.8233 143.645 79.4065 141.069 73.9438 141.044C68.4811 141.02 64.0413 143.556 64.0271 146.709C64.0129 149.863 68.4298 152.439 73.8925 152.463C79.3552 152.488 83.795 149.952 83.8092 146.798Z" fill="white"/>
<path d="M80.8961 150.829C77.0215 153.044 70.7565 153.014 66.9038 150.763C63.0512 148.511 63.0659 144.9 66.9404 142.685C70.8149 140.47 77.08 140.499 80.9326 142.751C84.7852 144.995 84.7706 148.614 80.8961 150.829Z" fill="#F0E6BA"/>
<path d="M73.9583 151.633C71.7944 151.633 69.6305 151.15 67.9857 150.192C66.392 149.264 65.522 148.029 65.5293 146.72C65.5367 145.411 66.4212 144.183 68.0222 143.269C71.29 141.398 76.5974 141.427 79.8505 143.321C81.4442 144.249 82.3141 145.485 82.3068 146.793C82.2995 148.102 81.415 149.33 79.814 150.244C78.1984 151.172 76.0783 151.633 73.9583 151.633ZM73.8706 142.041C71.7798 142.041 69.6963 142.495 68.0953 143.408C66.5528 144.293 65.6975 145.463 65.6902 146.713C65.6829 147.963 66.5309 149.147 68.0661 150.039C71.2754 151.91 76.5023 151.932 79.7262 150.09C81.2687 149.206 82.1241 148.036 82.1314 146.786C82.1387 145.536 81.2907 144.351 79.7555 143.46C78.1399 142.516 76.0052 142.041 73.8706 142.041Z" fill="#EDDFBA"/>
<path d="M79.7702 150.17C76.5171 152.027 71.2609 152.005 68.0223 150.119C64.7838 148.233 64.7984 145.192 68.0516 143.335C71.3047 141.478 76.5609 141.5 79.7995 143.386C83.038 145.28 83.0234 148.314 79.7702 150.17Z" fill="#F9F4E1"/>
<path d="M68.0516 143.737C71.3047 141.88 76.561 141.902 79.7995 143.788C81.3274 144.68 82.1315 145.828 82.2119 146.99C82.307 145.696 81.5101 144.388 79.8068 143.386C76.5683 141.5 71.312 141.478 68.0589 143.335C66.3483 144.315 65.5295 145.623 65.6172 146.917C65.7049 145.755 66.5164 144.615 68.0516 143.737Z" fill="#EDDFBA"/>
<path d="M80.8961 150.448C77.0215 152.663 70.7565 152.634 66.9039 150.382C65.0616 149.308 64.104 147.919 64.0308 146.515C63.9358 148.036 64.8935 149.586 66.9039 150.755C70.7565 153.007 77.0215 153.029 80.8961 150.821C82.9137 149.666 83.886 148.131 83.8056 146.603C83.7179 148.006 82.7456 149.388 80.8961 150.448Z" fill="white"/>
<path d="M95.555 141.648L95.0067 142.459C94.5388 141.662 93.7566 140.917 92.66 140.273C88.8074 138.022 82.5424 138 78.6678 140.207C77.5932 140.821 76.8183 141.538 76.3358 142.313L75.7583 141.56L75.751 143.285C75.7071 144.776 76.6648 146.275 78.624 147.423C82.4766 149.674 88.7416 149.696 92.6162 147.489C94.5534 146.385 95.5257 144.923 95.533 143.461L95.555 141.648Z" fill="#EDDFBA"/>
<path d="M95.5587 141.645C95.5729 138.492 91.156 135.916 85.6933 135.892C80.2306 135.867 75.7908 138.403 75.7766 141.557C75.7625 144.71 80.1793 147.286 85.642 147.311C91.1047 147.335 95.5445 144.799 95.5587 141.645Z" fill="white"/>
<path d="M92.6456 145.676C88.771 147.891 82.506 147.862 78.6534 145.61C74.8008 143.358 74.8154 139.747 78.6899 137.532C82.5645 135.317 88.8295 135.346 92.6821 137.598C96.5347 139.842 96.5201 143.461 92.6456 145.676Z" fill="#F0E6BA"/>
<path d="M85.7078 146.48C83.5439 146.48 81.38 145.997 79.7352 145.04C78.1415 144.111 77.2715 142.876 77.2789 141.567C77.2862 140.259 78.1707 139.03 79.7717 138.117C83.0395 136.245 88.3469 136.274 91.6 138.168C93.1937 139.096 94.0637 140.332 94.0563 141.64C94.049 142.949 93.1645 144.177 91.5635 145.091C89.9479 146.019 87.8278 146.48 85.7078 146.48ZM85.6201 136.888C83.5293 136.888 81.4458 137.342 79.8448 138.256C78.3023 139.14 77.447 140.31 77.4397 141.56C77.4324 142.81 78.2804 143.994 79.8156 144.886C83.0249 146.758 88.2518 146.78 91.4757 144.937C93.0183 144.053 93.8736 142.883 93.8809 141.633C93.8882 140.383 93.0402 139.199 91.505 138.307C89.8894 137.364 87.7547 136.888 85.6201 136.888Z" fill="#EDDFBA"/>
<path d="M91.5197 145.018C88.2666 146.874 83.0104 146.853 79.7718 144.966C76.5333 143.08 76.5479 140.039 79.8011 138.182C83.0542 136.326 88.3104 136.347 91.549 138.234C94.7875 140.127 94.7729 143.161 91.5197 145.018Z" fill="#F9F4E1"/>
<path d="M79.8011 138.584C83.0543 136.728 88.3105 136.75 91.549 138.636C93.0769 139.527 93.881 140.675 93.9614 141.838C94.0565 140.544 93.2596 139.235 91.5563 138.234C88.3178 136.347 83.0616 136.326 79.8084 138.182C78.0978 139.162 77.279 140.471 77.3667 141.764C77.4544 140.602 78.2659 139.462 79.8011 138.584Z" fill="#EDDFBA"/>
<path d="M92.6456 145.295C88.771 147.51 82.506 147.481 78.6534 145.23C76.8111 144.155 75.8535 142.766 75.7804 141.362C75.6853 142.883 76.643 144.433 78.6534 145.602C82.506 147.854 88.771 147.876 92.6456 145.668C94.6633 144.513 95.6355 142.978 95.5551 141.45C95.4674 142.854 94.4951 144.235 92.6456 145.295Z" fill="white"/>
<path d="M90.7366 137.204L90.2384 138.047C89.7232 137.28 88.8973 136.583 87.7639 136.007C83.7823 133.993 77.5273 134.349 73.7933 136.787C72.7577 137.465 72.0275 138.227 71.5927 139.03L70.9708 138.313L71.0677 140.035C71.1141 141.527 72.1605 142.965 74.1855 143.992C78.1671 146.007 84.4221 145.65 88.1561 143.212C90.0232 141.993 90.9053 140.475 90.8243 139.015L90.7366 137.204Z" fill="#EDDFBA"/>
<path d="M90.74 137.202C90.5636 134.054 85.9991 131.749 80.5449 132.055C75.0908 132.36 70.8123 135.16 70.9887 138.309C71.1651 141.457 75.7296 143.762 81.1838 143.456C86.6379 143.15 90.9164 140.35 90.74 137.202Z" fill="white"/>
<path d="M88.0762 141.401C84.3426 143.846 78.0872 144.196 74.1056 142.181C70.124 140.166 69.9203 136.561 73.6539 134.115C77.3876 131.67 83.6429 131.321 87.6245 133.336C91.6057 135.343 91.8098 138.956 88.0762 141.401Z" fill="#F0E6BA"/>
<path d="M81.1995 142.623C79.0396 142.753 76.8505 142.402 75.1508 141.546C73.5039 140.716 72.5609 139.535 72.4891 138.228C72.4173 136.922 73.2261 135.642 74.7689 134.633C77.9176 132.568 83.2171 132.276 86.5787 133.97C88.2256 134.8 89.1686 135.981 89.2404 137.287C89.3121 138.594 88.5034 139.873 86.9605 140.882C85.404 141.907 83.3157 142.494 81.1995 142.623ZM80.5324 133.054C78.4454 133.18 76.3931 133.759 74.8503 134.768C73.364 135.744 72.581 136.963 72.6492 138.211C72.7174 139.459 73.6355 140.59 75.2217 141.388C78.5383 143.062 83.757 142.768 86.8637 140.734C88.3499 139.758 89.133 138.539 89.0648 137.291C88.9965 136.042 88.0785 134.912 86.4922 134.114C84.8226 133.27 82.6631 132.925 80.5324 133.054Z" fill="#EDDFBA"/>
<path d="M86.9125 140.812C83.7775 142.862 78.5296 143.158 75.183 141.471C71.8364 139.784 71.6672 136.747 74.8022 134.697C77.9372 132.647 83.1852 132.352 86.5318 134.039C89.8788 135.733 90.0475 138.762 86.9125 140.812Z" fill="#F9F4E1"/>
<path d="M74.8261 135.099C77.9611 133.049 83.209 132.753 86.5556 134.44C88.1346 135.238 89.0066 136.335 89.1571 137.49C89.1738 136.193 88.2993 134.935 86.5386 134.038C83.192 132.351 77.9441 132.647 74.8091 134.697C73.1608 135.778 72.4226 137.134 72.5883 138.42C72.6056 137.255 73.3467 136.067 74.8261 135.099Z" fill="#EDDFBA"/>
<path d="M88.0531 141.021C84.3195 143.466 78.0641 143.816 74.0825 141.801C72.1787 140.84 71.1388 139.511 70.981 138.115C70.9781 139.638 72.0276 141.127 74.105 142.173C78.0866 144.188 84.3416 143.831 88.0756 141.393C90.0198 140.119 90.8976 138.527 90.725 137.007C90.7222 138.414 89.8352 139.851 88.0531 141.021Z" fill="white"/>
<path d="M87.3085 101.579L86.4385 102.017C86.4239 101.096 86.1096 100.058 85.4735 98.9615C83.2292 95.1089 77.7903 91.9947 73.3236 92.0166C72.0881 92.0239 71.0573 92.2652 70.2605 92.7038L70.1289 91.7607L69.2736 93.2594H69.2809C68.506 94.5314 68.601 96.3152 69.7488 98.2744C71.9931 102.127 77.4321 105.241 81.8987 105.219C84.1284 105.212 85.6929 104.422 86.4166 103.15L87.3085 101.579Z" fill="#EDDFBA"/>
<path d="M87.3097 101.575C88.8746 98.8376 86.2986 94.4205 81.5559 91.7094C76.8132 88.9982 71.6998 89.0198 70.1349 91.7574C68.5699 94.4951 71.146 98.9122 75.8887 101.623C80.6314 104.334 85.7447 104.313 87.3097 101.575Z" fill="white"/>
<path d="M82.7907 103.647C78.3313 103.669 72.8923 100.555 70.6407 96.7025C68.3964 92.8499 70.1874 89.7064 74.6468 89.6918C79.1062 89.6698 84.5452 92.7841 86.7968 96.6367C89.0484 100.489 87.25 103.625 82.7907 103.647Z" fill="#F0E6BA"/>
<path d="M76.3572 100.935C74.4711 99.8679 72.8263 98.3838 71.8686 96.739C70.9402 95.1453 70.7867 93.6394 71.4373 92.5062C72.0879 91.3658 73.4623 90.7371 75.3045 90.7298C79.0694 90.7152 83.675 93.3469 85.5757 96.6001C86.5041 98.1938 86.6577 99.6924 86.007 100.833C85.3564 101.973 83.982 102.602 82.1398 102.609C80.2756 102.617 78.1995 101.981 76.3572 100.935ZM80.9994 92.5501C79.1791 91.5193 77.1395 90.8906 75.3045 90.8979C73.5208 90.9052 72.2049 91.5047 71.5835 92.594C70.9621 93.6759 71.1156 95.1234 72.0148 96.6586C73.8863 99.8679 78.4261 102.463 82.1398 102.448C83.9235 102.441 85.2394 101.842 85.8608 100.752C86.4822 99.6705 86.3287 98.223 85.4295 96.6878C84.4865 95.0649 82.8562 93.5955 80.9994 92.5501Z" fill="#EDDFBA"/>
<path d="M82.1398 102.529C78.3969 102.544 73.8278 99.9338 71.9417 96.7026C70.0556 93.4641 71.5616 90.8323 75.3045 90.8177C79.0475 90.8031 83.6165 93.4129 85.5026 96.6441C87.3887 99.8753 85.8828 102.514 82.1398 102.529Z" fill="#F9F4E1"/>
<path d="M75.1073 91.154C78.8503 91.1394 83.4193 93.7492 85.3054 96.9805C86.1973 98.5083 86.3288 99.9046 85.8244 100.957C86.5482 99.8827 86.497 98.3402 85.5028 96.6369C83.6167 93.3983 79.0476 90.7885 75.3047 90.8104C73.3309 90.8178 71.9784 91.5561 71.4155 92.7258C72.0662 91.7535 73.3382 91.1613 75.1073 91.154Z" fill="#EDDFBA"/>
<path d="M82.9733 103.318C78.5139 103.34 73.075 100.226 70.8234 96.3736C69.7487 94.5313 69.6025 92.8499 70.2239 91.5925C69.3905 92.8719 69.4636 94.6849 70.6333 96.6952C72.8776 100.548 78.3166 103.662 82.7833 103.64C85.108 103.633 86.709 102.77 87.3888 101.403C86.6359 102.587 85.108 103.311 82.9733 103.318Z" fill="white"/>
<path d="M85.4006 118.89L85.3275 119.862C84.5234 119.401 83.478 119.138 82.2133 119.116C77.7539 119.058 72.2857 122.128 70.0121 125.959C69.3834 127.019 69.0618 128.028 69.0252 128.934L68.1553 128.561L69.0033 130.067V130.06C69.6978 131.376 71.2695 132.209 73.5431 132.239C78.0024 132.297 83.4707 129.227 85.7442 125.396C86.8846 123.481 87.0089 121.733 86.2925 120.454L85.4006 118.89Z" fill="#EDDFBA"/>
<path d="M84.8447 123.832C82.5639 127.67 77.103 130.733 72.6436 130.674C68.1842 130.616 66.4151 127.465 68.6886 123.627C70.9695 119.789 76.4304 116.726 80.8898 116.784C85.3565 116.835 87.1256 119.994 84.8447 123.832Z" fill="white"/>
<path d="M84.8447 123.832C82.5639 127.67 77.103 130.733 72.6436 130.674C68.1842 130.616 66.4151 127.465 68.6886 123.627C70.9695 119.789 76.4304 116.726 80.8898 116.784C85.3565 116.835 87.1256 119.994 84.8447 123.832Z" fill="white"/>
<path d="M79.2087 127.947C77.3226 129.015 75.2026 129.665 73.3019 129.643C71.4596 129.621 70.0926 128.978 69.4493 127.83C68.806 126.683 68.9741 125.184 69.9171 123.598C71.8398 120.359 76.4673 117.764 80.2395 117.808C82.0817 117.83 83.4488 118.473 84.0921 119.621C84.7354 120.768 84.5673 122.267 83.6242 123.853C82.6739 125.454 81.0583 126.902 79.2087 127.947ZM74.4058 119.65C72.5855 120.681 70.9918 122.106 70.056 123.685C69.1495 125.213 68.9814 126.661 69.5955 127.75C70.2096 128.839 71.5254 129.453 73.3019 129.475C77.0156 129.519 81.5773 126.96 83.478 123.773C84.3845 122.245 84.5527 120.798 83.9386 119.708C83.3245 118.619 82.0086 118.005 80.2322 117.983C78.3607 117.954 76.2626 118.597 74.4058 119.65Z" fill="#EDDFBA"/>
<path d="M83.551 123.809C81.6357 127.026 77.052 129.599 73.3017 129.555C69.5588 129.512 68.0675 126.858 69.9828 123.641C71.8981 120.425 76.4818 117.851 80.2321 117.895C83.9823 117.947 85.4663 120.593 83.551 123.809Z" fill="white"/>
<path d="M70.1803 123.993C72.0956 120.776 76.6792 118.203 80.4295 118.246C82.1986 118.268 83.4633 118.875 84.1067 119.847C83.5584 118.678 82.2133 117.925 80.2394 117.903C76.4965 117.859 71.9055 120.432 69.9902 123.649C68.9813 125.345 68.9155 126.88 69.632 127.969C69.1349 126.909 69.2811 125.513 70.1803 123.993Z" fill="#EDDFBA"/>
<path d="M84.6626 123.503C82.3817 127.341 76.9208 130.404 72.4614 130.345C70.3268 130.316 68.8135 129.578 68.0532 128.401C68.7258 129.775 70.3122 130.645 72.6442 130.674C77.1036 130.733 82.5718 127.662 84.8453 123.832C86.0369 121.829 86.1174 120.016 85.2986 118.729C85.9127 119.986 85.7518 121.668 84.6626 123.503Z" fill="white"/>
<path d="M26.822 118.934C26.4858 118.934 26.1495 118.846 25.8498 118.67L0.233934 103.889C0.0877254 103.801 0 103.655 0 103.487C0 103.318 0.0877254 103.165 0.233934 103.077L22.889 89.9988L23.1156 90.3935L0.460558 103.472L26.0764 118.283C26.5369 118.546 27.1072 118.546 27.5677 118.283L42.8465 109.496C43.4533 109.145 44.199 109.152 44.7984 109.503L51.0562 113.158L50.8296 113.553L44.5718 109.898C44.1113 109.627 43.541 109.627 43.0732 109.891L27.7943 118.685C27.4946 118.853 27.1583 118.934 26.822 118.934Z" fill="#B8213C"/>
<path d="M141.289 97.1339L117.443 71.5254L93.5961 69.5955C93.5961 69.5955 89.7654 101.922 117.443 136.208C145.127 133.884 141.289 97.1339 141.289 97.1339Z" fill="#E3CDAC"/>
<path d="M93.6032 69.5955L88.2373 72.6951L112.084 74.6251L117.45 71.5254L93.6032 69.5955Z" fill="#FFF8EE"/>
<path d="M135.931 100.234L112.084 74.625L102.281 73.6308L88.2372 72.6951C88.2372 72.6951 84.4065 105.022 112.084 139.308C139.761 136.983 135.931 100.234 135.931 100.234Z" fill="#E2DDD7"/>
<path d="M135.931 100.234L112.084 74.625L88.2373 72.6951C88.9099 72.3076 88.9099 72.3076 88.9099 72.3076L113.071 74.2595L136.918 99.868C136.918 99.868 140.12 130.587 119.504 137.634C139.023 129.958 135.931 100.234 135.931 100.234Z" fill="white"/>
<path opacity="0.2" d="M133.036 100.628L111.594 77.6076L102.778 76.7157L90.1525 75.875C90.1525 75.875 86.7093 104.941 111.594 135.77C136.479 133.671 133.036 100.628 133.036 100.628Z" fill="white"/>
</g>
<defs>
<clipPath id="clip0_230_2393">
<rect width="172.059" height="171.24" fill="white"/>
</clipPath>
</defs>
</svg>
