<svg width="143" height="156" viewBox="0 0 143 156" fill="none" xmlns="http://www.w3.org/2000/svg">
<g clip-path="url(#clip0_232_3211)">
<path opacity="0.5" d="M140.544 130.944L98.8228 155.039C96.962 156.117 94.1376 156.231 92.5237 155.298L1.09027 102.508C-0.523646 101.575 -0.318895 99.9486 1.54193 98.8706L43.263 74.7762C45.1238 73.6983 47.9482 73.5838 49.5621 74.5173L141.002 127.313C142.609 128.24 142.411 129.866 140.544 130.944Z" fill="#F3F3F3"/>
<path d="M142.085 115.817L133.492 114.323L49.5558 65.8575C47.9419 64.9241 45.1235 65.0445 43.2567 66.1165L4.37806 88.5789L0 87.8141V92.2584H0.00602209C0 92.8546 0.355303 93.4206 1.09 93.8482L92.5294 146.644C94.1433 147.577 96.9617 147.457 98.8285 146.385L140.55 122.291C141.585 121.694 142.103 120.924 142.091 120.201V115.817H142.085Z" fill="#E4DCD1"/>
<path d="M140.544 117.87L98.8228 141.965C96.962 143.043 94.1376 143.157 92.5237 142.224L1.09027 89.434C-0.523646 88.5005 -0.318895 86.8746 1.54193 85.7966L43.263 61.7022C45.1238 60.6243 47.9482 60.5099 49.5621 61.4433L141.002 114.239C142.609 115.166 142.411 116.792 140.544 117.87Z" fill="#3F3F3F"/>
<path d="M140.544 117.304L98.8227 141.399C96.9619 142.476 94.1376 142.591 92.5236 141.657L1.09023 88.8678C0.482003 88.5186 0.132721 88.0669 0.0303458 87.5791C-0.0961181 88.2716 0.247141 88.9461 1.09023 89.4339L92.5297 142.23C94.1436 143.163 96.9619 143.043 98.8288 141.971L140.55 117.876C141.712 117.208 142.224 116.323 142.061 115.528C141.941 116.154 141.435 116.792 140.544 117.304Z" fill="white"/>
<path d="M140.61 114.01L92.144 142.001L1.48145 89.6567L49.9472 61.666L140.61 114.01Z" fill="#B7B7B7"/>
<path d="M28.6536 72.6263L22.216 76.3419C21.939 76.5045 21.5114 76.5226 21.2705 76.3841L21.2043 76.348C20.9634 76.2095 20.9935 75.9626 21.2705 75.8L27.7081 72.0843C27.9851 71.9217 28.4127 71.9037 28.6536 72.0482L28.7198 72.0843C28.9667 72.2168 28.9306 72.4637 28.6536 72.6263Z" fill="white"/>
<path d="M13.285 90.1146L12.472 90.5843L10.5449 89.4702L11.3579 89.0005L13.285 90.1146Z" fill="white"/>
<path d="M14.7845 89.2472L13.9715 89.7169L12.0444 88.6089L12.8574 88.1392L14.7845 89.2472Z" fill="white"/>
<path d="M16.2775 88.3861L15.4645 88.8558L13.5435 87.7417L14.3564 87.272L16.2775 88.3861Z" fill="white"/>
<path d="M17.7772 87.519L16.9642 87.9887L15.0371 86.8806L15.8501 86.4109L17.7772 87.519Z" fill="white"/>
<path d="M45.2982 6.823C46.882 6.823 48.1647 8.1057 48.1647 9.68951C48.1647 11.2733 46.882 12.556 45.2982 12.556C43.7143 12.556 42.4316 11.2733 42.4316 9.68951C42.4316 8.1057 43.7143 6.823 45.2982 6.823Z" fill="white"/>
<path d="M36.0486 6.823C37.6325 6.823 38.9152 8.1057 38.9152 9.68951C38.9152 11.2733 37.6325 12.556 36.0486 12.556C34.4648 12.556 33.1821 11.2733 33.1821 9.68951C33.1882 8.1057 34.4709 6.823 36.0486 6.823Z" fill="#E7B7BF"/>
<path opacity="0.5" d="M26.8045 6.823C28.3883 6.823 29.671 8.1057 29.671 9.68951C29.671 11.2733 28.3883 12.556 26.8045 12.556C25.2207 12.556 23.938 11.2733 23.938 9.68951C23.938 8.1057 25.2207 6.823 26.8045 6.823Z" fill="#E7B7BF"/>
<path opacity="0.1" d="M17.5545 6.823C19.1383 6.823 20.421 8.1057 20.421 9.68951C20.421 11.2733 19.1383 12.556 17.5545 12.556C15.9707 12.556 14.688 11.2733 14.688 9.68951C14.688 8.1057 15.9707 6.823 17.5545 6.823Z" fill="#E7B7BF"/>
<path opacity="0.6" d="M61.2746 104.881C70.2213 104.881 77.474 100.693 77.474 95.5283C77.474 90.3632 70.2213 86.176 61.2746 86.176C52.3279 86.176 45.0752 90.3632 45.0752 95.5283C45.0752 100.693 52.3279 104.881 61.2746 104.881Z" fill="#999999"/>
<path d="M61.2746 110.168C54.8369 110.168 48.3933 108.753 43.4913 105.923C38.6977 103.158 36.0601 99.4669 36.0601 95.5285C36.0601 91.59 38.6977 87.9045 43.4913 85.1403C53.2953 79.4796 69.2478 79.4796 79.0578 85.1403C83.8514 87.9045 86.489 91.596 86.489 95.5345C86.489 99.4669 83.8514 103.158 79.0578 105.923C74.1498 108.753 67.7122 110.168 61.2746 110.168ZM61.2746 81.3163C54.9152 81.3163 48.5499 82.7134 43.7081 85.5077C39.0591 88.1935 36.4936 91.7526 36.4936 95.5224C36.4936 99.2983 39.053 102.851 43.7081 105.537C53.3916 111.132 69.1575 111.132 78.841 105.537C83.49 102.851 86.0555 99.2923 86.0555 95.5224C86.0555 91.7466 83.4961 88.1935 78.841 85.5077C73.9932 82.7195 67.6339 81.3163 61.2746 81.3163Z" fill="white"/>
<path d="M111.54 46.1359L88.9028 21.8307L66.2657 20C66.2657 20 62.6284 50.6886 88.9028 83.238C115.177 81.0279 111.54 46.1359 111.54 46.1359Z" fill="#E3CDAC"/>
<path d="M66.2661 20L61.1714 22.9388L83.8084 24.7695L88.9031 21.8307L66.2661 20Z" fill="#FFF8EE"/>
<path d="M106.445 49.0806L83.8081 24.7694L74.4979 23.83L61.171 22.9387C61.171 22.9387 57.5337 53.6273 83.8081 86.1767C110.082 83.9666 106.445 49.0806 106.445 49.0806Z" fill="#E2DDD7"/>
<path d="M106.445 49.0808L83.8084 24.7696L61.1714 22.9389C61.8097 22.5715 61.8097 22.5715 61.8097 22.5715L84.7479 24.4263L107.385 48.7315C107.385 48.7315 110.42 77.8965 90.8543 84.581C109.384 77.3003 106.445 49.0808 106.445 49.0808Z" fill="white"/>
<path opacity="0.2" d="M103.699 49.454L83.3448 27.5998L74.9741 26.7567L62.9901 25.9558C62.9901 25.9558 59.7201 53.549 83.3448 82.8104C106.969 80.8231 103.699 49.454 103.699 49.454Z" fill="white"/>
<path d="M44.4241 35.8242L43.6235 35.0237L42.823 35.8242L43.6235 36.6248L44.4241 35.8242Z" fill="white"/>
<path d="M47.3181 35.8123L46.5176 35.0117L45.717 35.8123L46.5176 36.6128L47.3181 35.8123Z" fill="white"/>
<path d="M45.8753 34.3738L45.0747 33.5732L44.2742 34.3738L45.0747 35.1743L45.8753 34.3738Z" fill="white"/>
<path d="M45.8665 37.2629L45.0659 36.4624L44.2654 37.2629L45.0659 38.0635L45.8665 37.2629Z" fill="white"/>
<path d="M89.7049 109.217C89.6688 109.217 89.6387 109.211 89.6025 109.193L81.268 104.381C81.1716 104.327 81.1415 104.2 81.1957 104.104C81.2499 104.008 81.3703 103.977 81.4727 104.032L89.8073 108.843C89.9037 108.898 89.9338 109.024 89.8796 109.12C89.8374 109.181 89.7712 109.217 89.7049 109.217Z" fill="white"/>
<g clip-path="url(#clip1_232_3211)">
<path d="M85.3139 111.797C86.0132 111.393 86.9041 111.118 87.874 111.007C88.8439 110.896 89.8492 110.953 90.7628 111.171C91.6765 111.39 92.4574 111.76 93.0068 112.234C93.5562 112.709 93.8494 113.267 93.8494 113.838C93.8494 114.409 93.5562 114.967 93.0068 115.442C92.4574 115.916 91.6765 116.286 90.7628 116.505C89.8492 116.723 88.8439 116.781 87.874 116.669C86.9041 116.558 86.0132 116.283 85.3139 115.879C84.3762 115.338 83.8494 114.604 83.8494 113.838C83.8494 113.073 84.3762 112.338 85.3139 111.797ZM83.8997 110.981C82.9207 111.546 82.254 112.266 81.9839 113.05C81.7138 113.834 81.8525 114.646 82.3823 115.385C82.9121 116.123 83.8093 116.754 84.9604 117.198C86.1116 117.642 87.465 117.879 88.8494 117.879C90.2339 117.879 91.5873 117.642 92.7384 117.198C93.8896 116.754 94.7868 116.123 95.3166 115.385C95.8464 114.646 95.985 113.834 95.7149 113.05C95.4448 112.266 94.7781 111.546 93.7992 110.981C92.4864 110.223 90.7059 109.797 88.8494 109.797C86.9929 109.797 85.2124 110.223 83.8997 110.981ZM110.77 118.328L109.356 119.145L105.82 117.104C104.882 116.562 103.611 116.258 102.284 116.258C100.958 116.258 99.6866 116.562 98.7489 117.104L94.5063 119.553C93.5686 120.094 93.0418 120.829 93.0418 121.594C93.0418 122.36 93.5686 123.094 94.5063 123.635L98.0418 125.676L96.6276 126.493L93.0921 124.452C91.7793 123.694 91.0418 122.666 91.0418 121.594C91.0418 120.522 91.7793 119.495 93.0921 118.737L97.3347 116.287C98.6475 115.53 100.428 115.104 102.284 115.104C104.141 115.104 105.921 115.53 107.234 116.287L110.77 118.328ZM92.385 107.715L99.456 103.633L100.87 104.449L93.7992 108.531L92.385 107.715ZM95.9205 109.756L102.992 105.674L104.406 106.49L97.3347 110.572L95.9205 109.756ZM99.456 111.797L104.406 108.94L105.82 109.756L100.87 112.613L99.456 111.797Z" fill="white"/>
</g>
<path d="M111.876 83.5686L90.912 71.3581C86.7597 68.9627 82.8412 68.5835 79.8833 70.29C76.9255 71.9964 75.2949 75.5799 75.2949 80.3769V81.9127C75.4403 82.0139 75.5983 82.1087 75.7563 82.2098V80.3769C75.7563 75.7506 77.3047 72.3124 80.1109 70.6881C82.9233 69.0639 86.6712 69.4431 90.6782 71.7563L111.642 83.9668C111.75 84.03 111.895 83.9921 111.958 83.8846C112.028 83.7772 111.99 83.6318 111.876 83.5686Z" fill="white"/>
<path d="M46.4942 69.026V21.7765C46.4942 12.3216 39.8328 0.774693 31.6419 -3.95278C27.6286 -6.26595 23.8428 -6.63252 20.9861 -4.98296C18.1294 -3.3334 16.5557 0.130039 16.5557 4.75639V8.04918C16.7073 8.20087 16.8654 8.35887 17.017 8.51055V4.75639C17.017 0.294363 18.5086 -3.02371 21.2199 -4.58479C23.9313 -6.14587 27.5464 -5.7793 31.4143 -3.55461C39.4788 1.10334 46.0392 12.4606 46.0392 21.7765V69.026C46.0392 76.8629 50.6529 86.1409 56.9098 91.7279C56.9098 91.5194 56.9098 91.3171 56.9098 91.1086C50.8867 85.5847 46.4942 76.6228 46.4942 69.026Z" fill="white"/>
<path d="M56.9417 91.5321C56.9417 91.5321 51.6012 86.0968 49.5282 81.6158C47.4488 77.1348 46.3744 72.9825 46.3365 69.2852C46.2986 65.5879 46.267 33.7849 46.267 33.7849C46.267 33.7849 46.4945 20.6011 45.9383 18.5155C45.3822 16.4361 44.0739 5.32531 33.1969 -2.65071C22.3199 -10.6267 16.8846 -2.02502 16.9478 2.47493C17.011 6.96855 16.9478 9.85054 16.9478 9.85054C16.9478 9.85054 22.9077 14.6728 25.1577 21.5618C27.4077 28.4507 27.6225 27.2562 27.6605 34.1073C27.6984 40.9583 27.73 75.7254 27.73 75.7254C27.73 75.7254 27.2244 81.8307 28.7475 86.5582C30.2644 91.2856 33.001 96.5187 36.2432 99.9506C39.4855 103.382 44.2698 107.434 48.6939 107.035C53.118 106.637 56.0948 105.007 56.9417 98.004V91.5321Z" fill="white"/>
<path d="M20.9861 -4.98267L2.65137 5.58462L16.9475 9.8444L20.9861 -4.98267Z" fill="white"/>
<path d="M75.2953 81.9128V84.0364C74.2778 83.2969 69.4808 80.0231 64.9239 80.1811C59.792 80.3644 58.0729 85.0602 58.0729 85.0602C58.0729 85.0602 56.8594 88.5679 56.9479 90.2111C56.9606 90.4955 56.9795 90.8305 56.9922 91.1844C56.9606 91.1592 56.9353 91.1339 56.9037 91.1086C56.9037 91.3172 56.9037 91.5194 56.9037 91.728C56.9353 91.7596 56.9732 91.7849 57.0111 91.8165C57.0554 93.3965 57.068 95.1409 57.068 95.1409C57.068 95.1409 57.1122 98.2693 56.6698 100.33C55.8735 104.027 52.7387 106.132 52.4985 106.454L71.3136 95.6212C71.3326 95.6149 71.3452 95.6085 71.3642 95.5959C71.3895 95.5833 71.4147 95.5643 71.44 95.5453L71.5348 95.4885L71.5475 95.4758C74.2714 93.7947 75.7693 90.4134 75.7693 85.9198V82.2098C75.5987 82.115 75.4407 82.0139 75.2953 81.9128Z" fill="#ECDDC5"/>
<path d="M60.6328 81.4324L79.884 70.29C79.884 70.29 83.1641 68.5646 87.1332 70.0182C91.1022 71.4718 111.902 83.9478 111.902 83.9478L93.3206 94.6541C93.3206 94.6541 71.731 81.2744 69.1966 80.6045C63.9951 79.233 60.6328 81.4324 60.6328 81.4324Z" fill="white"/>
<path d="M16.5491 9.49651C15.7907 8.77601 12.2514 5.65386 7.08151 4.86384C1.22905 3.96638 -1.18525 10.8111 -1.18525 10.8111C-1.18525 10.8111 -1.8615 14.363 -1.83622 16.4676C-1.81094 18.5722 -1.65926 26.207 -1.65926 26.207L16.8841 15.5259C16.9599 15.488 17.0105 15.4122 17.0105 15.3237V9.901C16.8588 9.74299 16.7071 9.65451 16.5491 9.49651Z" fill="#ECDDC5"/>
<path d="M48.8772 107.295C46.8295 107.295 44.5668 106.612 42.2284 105.259C34.0944 100.564 27.4835 89.1052 27.4835 79.7198V32.464C27.4835 23.1545 20.9232 11.7908 12.8587 7.13289C8.99706 4.90188 5.37561 4.53531 2.67059 6.10271C-0.0407547 7.67011 -1.53231 10.9819 -1.53231 15.4439V26.0049C-1.53231 26.1313 -1.63343 26.2387 -1.76615 26.2387C-1.89256 26.2387 -2 26.1376 -2 26.0049V15.4439C-2 10.8112 -0.426282 7.3541 2.43042 5.70454C5.28713 4.05498 9.0729 4.42155 13.0862 6.73472C21.2771 11.4622 27.9385 23.0091 27.9385 32.464V79.7135C27.9385 88.9535 34.4483 100.235 42.4559 104.855C46.2923 107.067 49.8821 107.434 52.5682 105.879C55.2542 104.324 56.7395 101.031 56.7395 96.6072V91.0644C56.7395 86.2675 58.37 82.6839 61.3279 80.9775C64.2857 79.271 68.2042 79.6503 72.3565 82.0456L93.3205 94.2561C93.4279 94.3193 93.4658 94.4584 93.4026 94.5721C93.3394 94.6859 93.1941 94.7175 93.0866 94.6543L72.1227 82.4438C68.1157 80.1306 64.3679 79.7514 61.5554 81.3757C58.7429 82.9999 57.2008 86.4381 57.2008 91.0644V96.6072C57.2008 101.208 55.6397 104.64 52.802 106.277C51.6328 106.96 50.3055 107.295 48.8772 107.295Z" fill="white"/>
<path d="M32.4639 42.8416V41.1731L34.4105 40.0544V41.7166L32.4639 42.8416Z" fill="#ECDDC5"/>
<path d="M37.9556 36.553V34.8845L41.6592 32.7483V34.4168L37.9556 36.553Z" fill="#ECDDC5"/>
<path d="M32.6533 36.2054V34.5369L41.6595 29.3354V31.004L32.6533 36.2054Z" fill="#ECDDC5"/>
<path d="M35.7817 40.9267V39.2582L43.3027 34.9163V36.5848L35.7817 40.9267Z" fill="#ECDDC5"/>
<path d="M32.6533 39.6184V37.9499L36.3569 35.8074V37.4759L32.6533 39.6184Z" fill="#ECDDC5"/>
<path d="M34.8338 59.0718V60.7403L32.5522 62.0549V60.3864L34.8338 59.0718Z" fill="#ECDDC5"/>
<path d="M38.9857 56.6763V58.3448L36.7041 59.6594V57.9909L38.9857 56.6763Z" fill="#ECDDC5"/>
<path d="M41.4763 52.1196V53.7881L32.6597 58.8759V57.2073L41.4763 52.1196Z" fill="#ECDDC5"/>
<path d="M37.0776 46.8423V45.1738L41.4765 42.6331V44.3016L37.0776 46.8423Z" fill="#ECDDC5"/>
<path d="M32.5522 49.4523V47.7838L34.8338 46.4692V48.1378L32.5522 49.4523Z" fill="#ECDDC5"/>
<path d="M32.5522 52.5746V50.9061L36.8942 48.397V50.0655L32.5522 52.5746Z" fill="#ECDDC5"/>
<path d="M38.6509 49.0545V47.386L41.476 45.7554V47.4176L38.6509 49.0545Z" fill="#ECDDC5"/>
<path d="M37.0776 66.2641V64.5956L41.4765 62.0549V63.7235L37.0776 66.2641Z" fill="#ECDDC5"/>
<path d="M32.5522 68.8745V67.2059L34.8338 65.8914V67.5599L32.5522 68.8745Z" fill="#ECDDC5"/>
<path d="M32.5522 71.9965V70.3279L36.8942 67.8188V69.4874L32.5522 71.9965Z" fill="#ECDDC5"/>
<path d="M38.6509 68.4761V66.8076L41.476 65.177V66.8455L38.6509 68.4761Z" fill="#ECDDC5"/>
<path d="M84.8448 84.0615L83.4038 83.2273L85.3504 82.1023L86.7914 82.9366L84.8448 84.0615Z" fill="#ECDDC5"/>
<path d="M87.6387 79.3279L86.1914 78.5L89.9013 76.3574L91.3423 77.1917L87.6387 79.3279Z" fill="#ECDDC5"/>
<path d="M79.3843 80.6866L77.937 79.8524L86.9495 74.6509L88.3905 75.4851L79.3843 80.6866Z" fill="#ECDDC5"/>
<path d="M88.169 82.1467L86.7217 81.3124L94.2427 76.9705L95.6836 77.8047L88.169 82.1467Z" fill="#ECDDC5"/>
<path d="M82.336 82.3931L80.8887 81.5588L84.5986 79.4163L86.0396 80.2505L82.336 82.3931Z" fill="#ECDDC5"/>
</g>
<defs>
<clipPath id="clip0_232_3211">
<rect width="142.085" height="155.93" fill="white"/>
</clipPath>
<clipPath id="clip1_232_3211">
<rect width="26.1273" height="26.1273" fill="white" transform="matrix(0.866044 -0.499967 0.866044 0.499967 74 115.063)"/>
</clipPath>
</defs>
</svg>
