<svg width="148" height="165" viewBox="0 0 148 165" fill="none" xmlns="http://www.w3.org/2000/svg">
<g clip-path="url(#clip0_232_2738)">
<path opacity="0.5" d="M145.939 138.936L102.62 163.957C100.686 165.076 97.7601 165.196 96.0852 164.229L1.13132 109.408C-0.543519 108.441 -0.334954 106.754 1.59901 105.635L44.9173 80.6136C46.8513 79.4949 49.7775 79.3749 51.4523 80.3418L146.406 135.163C148.087 136.13 147.873 137.824 145.939 138.936Z" fill="#F3F3F3"/>
<path d="M147.544 120.538L138.62 118.983L51.4586 68.6685C49.7838 67.7015 46.8576 67.8216 44.9236 68.9403L4.55051 92.2616L0 91.4653V96.0853H0.00632015C0 96.7047 0.372889 97.2925 1.13131 97.7349L96.0852 152.556C97.76 153.523 100.686 153.403 102.62 152.284L145.939 127.263C147.013 126.643 147.556 125.847 147.538 125.095V120.538H147.544Z" fill="#E4DCD1"/>
<path d="M145.939 122.674L102.62 147.696C100.686 148.814 97.7601 148.934 96.0852 147.967L1.13132 93.1465C-0.543519 92.1795 -0.334954 90.492 1.59901 89.3734L44.9173 64.3519C46.8513 63.2332 49.7775 63.1131 51.4523 64.0801L146.406 118.901C148.087 119.868 147.873 121.556 145.939 122.674Z" fill="#3F3F3F"/>
<path d="M145.939 122.086L102.621 147.108C100.687 148.227 97.7604 148.347 96.0855 147.38L1.13164 92.5586C0.499626 92.1921 0.133058 91.7244 0.0319353 91.2251C-0.100788 91.9393 0.25314 92.6471 1.13164 93.1527L96.0855 147.974C97.7604 148.941 100.687 148.821 102.621 147.702L145.939 122.68C147.14 121.985 147.677 121.069 147.506 120.241C147.386 120.892 146.862 121.549 145.939 122.086Z" fill="white"/>
<path d="M146.008 118.667L95.6811 147.734L1.53613 93.3803L51.8635 64.314L146.008 118.667Z" fill="#B7B7B7"/>
<path d="M29.7553 75.6902L23.0686 79.5518C22.7779 79.7224 22.3418 79.7351 22.089 79.5897L22.0195 79.5518C21.7667 79.4064 21.7983 79.1536 22.089 78.983L28.7757 75.1214C29.0664 74.9507 29.5025 74.9381 29.7553 75.0835L29.8248 75.1214C30.0776 75.2731 30.046 75.5259 29.7553 75.6902Z" fill="white"/>
<path opacity="0.4" d="M140.775 50.182L72.612 89.5375C71.2405 90.3275 69.1738 90.416 67.9856 89.7271L26.2537 65.6347C25.0655 64.9521 25.2172 63.7576 26.5887 62.9676L94.7514 23.6121C96.1229 22.822 98.1896 22.7336 99.3778 23.4224L141.11 47.5149C142.292 48.1974 142.14 49.3919 140.775 50.182Z" fill="white"/>
<path opacity="0.2" d="M133.627 50.9846L73.9964 85.4104C72.8019 86.0993 70.988 86.1752 69.9515 85.5811L33.44 64.5034C32.4035 63.903 32.5362 62.8601 33.7307 62.1649L93.3613 27.7391C94.5558 27.0502 96.3697 26.9744 97.4062 27.5684L133.918 48.6461C134.954 49.2465 134.828 50.2894 133.627 50.9846Z" fill="#041860"/>
<path d="M69.9955 90.4286C69.1992 90.4286 68.4344 90.2706 67.8656 89.9356L26.1337 65.8432C25.5396 65.5019 25.2109 65.0153 25.2109 64.4717C25.2109 63.8397 25.666 63.214 26.4623 62.7526L94.6251 23.3971C96.0598 22.5692 98.2402 22.4807 99.4916 23.2075L141.224 47.2999C141.818 47.6412 142.146 48.1278 142.146 48.6714C142.146 49.3034 141.691 49.9291 140.895 50.3904L72.7321 89.746C71.9547 90.1947 70.9498 90.4286 69.9955 90.4286ZM97.3617 23.1948C96.4959 23.1948 95.5795 23.4034 94.8653 23.8205L26.7088 63.1698C26.0642 63.5427 25.6976 64.0167 25.6976 64.4717C25.6976 64.832 25.9378 65.1669 26.3802 65.4261L68.1121 89.5185C69.2308 90.1631 71.1963 90.0746 72.4983 89.3289L140.661 49.9733C141.306 49.6004 141.672 49.1264 141.672 48.6714C141.672 48.3111 141.432 47.9761 140.99 47.7233L99.2578 23.6309C98.7458 23.3402 98.0759 23.1948 97.3617 23.1948Z" fill="white"/>
<path d="M141.907 38.6857L141.148 39.2861C141.136 39.2798 141.123 39.2671 141.104 39.2608L99.3721 15.1684C98.1839 14.4858 96.1173 14.568 94.7458 15.358L26.5893 54.7009C26.4313 54.7957 26.2859 54.8905 26.1595 54.9917L25.458 54.4734V56.1798H25.4643C25.4517 56.6223 25.7108 57.052 26.2607 57.368L67.9926 81.4604C69.1808 82.143 71.2475 82.0608 72.619 81.2708L140.782 41.9153C141.534 41.4855 141.913 40.9293 141.913 40.4048V38.6857H141.907Z" fill="white"/>
<path d="M140.775 40.1898L72.612 79.5453C71.2405 80.3353 69.1738 80.4238 67.9856 79.7349L26.2537 55.6425C25.0655 54.96 25.2172 53.7654 26.5887 52.9754L94.7514 13.6199C96.1229 12.8298 98.1896 12.7414 99.3778 13.4303L141.11 37.5227C142.292 38.2052 142.14 39.3997 140.775 40.1898Z" fill="#5D9AD2"/>
<g clip-path="url(#clip1_232_2738)">
<path d="M108.876 29.406L99.2315 27.1788C98.9834 27.1208 98.7111 27.1063 98.4487 27.1369C98.1863 27.1676 97.9454 27.2422 97.7559 27.3514L94.8625 29.0218L92.9336 27.9082C92.6778 27.7606 92.3309 27.6776 91.9691 27.6776C91.6074 27.6776 91.2604 27.7606 91.0046 27.9082L72.6798 38.4872C72.424 38.6348 72.2803 38.8351 72.2803 39.0439C72.2803 39.2528 72.424 39.4531 72.6798 39.6007L89.0757 49.0661C89.3315 49.2138 89.6784 49.2967 90.0402 49.2967C90.4019 49.2967 90.7489 49.2138 91.0046 49.0661L93.0686 47.8746C94.108 48.2182 95.3143 48.3548 96.5015 48.2633C97.6886 48.1718 98.7907 47.8574 99.6376 47.3685C100.484 46.8795 101.029 46.2433 101.188 45.558C101.346 44.8726 101.109 44.1762 100.514 43.5762L106.571 40.0796C107.61 40.4232 108.817 40.5597 110.004 40.4683C111.191 40.3768 112.293 40.0624 113.14 39.5735C113.987 39.0845 114.532 38.4483 114.69 37.763C114.849 37.0776 114.612 36.3812 114.017 35.7812L116.081 34.5897C116.337 34.442 116.48 34.2417 116.48 34.0329C116.48 33.824 116.337 33.6238 116.081 33.4761L109.329 29.5786C109.2 29.5041 109.046 29.4454 108.876 29.406ZM96.7914 30.1354L99.0483 28.8325L105.935 30.4249L101.614 32.9193L96.7914 30.1354ZM97.7559 46.2822C97.3744 46.5024 96.8883 46.6524 96.3592 46.7132C95.83 46.7739 95.2815 46.7427 94.783 46.6235C94.2846 46.5044 93.8585 46.3025 93.5588 46.0435C93.259 45.7845 93.0991 45.4801 93.0991 45.1686C93.0991 44.8571 93.259 44.5526 93.5588 44.2937C93.8585 44.0347 94.2846 43.8328 94.783 43.7136C95.2815 43.5944 95.83 43.5633 96.3592 43.624C96.8883 43.6848 97.3744 43.8348 97.7559 44.055C98.2675 44.3504 98.5549 44.7509 98.5549 45.1686C98.5549 45.5863 98.2675 45.9868 97.7559 46.2822ZM104.642 38.966L98.5853 42.4626C97.546 42.119 96.3397 41.9824 95.1525 42.0739C93.9653 42.1654 92.8633 42.4798 92.0164 42.9687C91.1695 43.4576 90.6248 44.0939 90.4663 44.7792C90.3079 45.4646 90.5445 46.161 91.1397 46.761L90.0402 47.3957L75.5732 39.0439L91.9691 29.5786L104.083 36.5718C103.899 36.9725 103.853 37.3903 103.949 37.8011C104.045 38.2119 104.281 38.6078 104.642 38.966ZM111.258 38.4872C110.877 38.7074 110.391 38.8574 109.862 38.9182C109.333 38.9789 108.784 38.9477 108.286 38.8285C107.787 38.7093 107.361 38.5075 107.061 38.2485C106.762 37.9895 106.602 37.6851 106.602 37.3736C106.602 37.0621 106.762 36.7576 107.061 36.4987C107.361 36.2397 107.787 36.0378 108.286 35.9186C108.784 35.7994 109.333 35.7683 109.862 35.829C110.391 35.8898 110.877 36.0398 111.258 36.26C111.77 36.5554 112.057 36.9559 112.057 37.3736C112.057 37.7913 111.77 38.1918 111.258 38.4872ZM113.187 34.0329L112.088 34.6676C111.049 34.3139 109.835 34.169 108.638 34.2556C107.441 34.3423 106.328 34.6555 105.472 35.1464L103.543 34.0329L108.365 31.2489L113.187 34.0329Z" fill="white"/>
</g>
<path d="M139.333 89.5691L118.37 77.3586C114.217 74.9632 110.299 74.584 107.341 76.2905C104.383 77.9969 102.752 81.5804 102.752 86.3774V87.9132C102.898 88.0143 103.056 88.1091 103.214 88.2103V86.3774C103.214 81.7511 104.762 78.3129 107.568 76.6886C110.381 75.0644 114.129 75.4436 118.136 77.7567L139.1 89.9673C139.207 90.0305 139.352 89.9925 139.416 89.8851C139.485 89.7777 139.447 89.6323 139.333 89.5691Z" fill="white"/>
<path d="M73.9517 75.0264V27.777C73.9517 18.3221 67.2903 6.77518 59.0994 2.04771C55.0861 -0.265462 51.3003 -0.63203 48.4436 1.01753C45.5869 2.66709 44.0132 6.13053 44.0132 10.7569V14.0497C44.1649 14.2014 44.3229 14.3594 44.4746 14.511V10.7569C44.4746 6.29485 45.9661 2.97677 48.6775 1.4157C51.3888 -0.145379 55.0039 0.221189 58.8719 2.44588C66.9364 7.10383 73.4967 18.4611 73.4967 27.777V75.0264C73.4967 82.8634 78.1104 92.1414 84.3673 97.7284C84.3673 97.5199 84.3673 97.3176 84.3673 97.109C78.3442 91.5852 73.9517 82.6233 73.9517 75.0264Z" fill="white"/>
<path d="M84.3992 97.5326C84.3992 97.5326 79.0587 92.0973 76.9857 87.6163C74.9064 83.1353 73.8319 78.983 73.794 75.2857C73.7561 71.5884 73.7245 39.7854 73.7245 39.7854C73.7245 39.7854 73.952 26.6016 73.3958 24.516C72.8397 22.4366 71.5314 11.3258 60.6544 3.34978C49.7775 -4.62625 44.3421 3.97547 44.4053 8.47542C44.4685 12.969 44.4053 15.851 44.4053 15.851C44.4053 15.851 50.3652 20.6733 52.6152 27.5623C54.8652 34.4512 55.0801 33.2567 55.118 40.1078C55.1559 46.9588 55.1875 81.7259 55.1875 81.7259C55.1875 81.7259 54.6819 87.8312 56.205 92.5587C57.7219 97.2861 60.4585 102.519 63.7007 105.951C66.943 109.383 71.7273 113.434 76.1514 113.036C80.5755 112.638 83.5523 111.007 84.3992 104.004V97.5326Z" fill="white"/>
<path d="M48.4436 1.01782L30.1089 11.5851L44.4051 15.8449L48.4436 1.01782Z" fill="white"/>
<path d="M102.753 87.9133V90.0368C101.735 89.2974 96.9383 86.0236 92.3815 86.1816C87.2495 86.3648 85.5304 91.0607 85.5304 91.0607C85.5304 91.0607 84.317 94.5684 84.4054 96.2116C84.4181 96.496 84.437 96.831 84.4497 97.1849C84.4181 97.1597 84.3928 97.1344 84.3612 97.1091C84.3612 97.3177 84.3612 97.5199 84.3612 97.7285C84.3928 97.7601 84.4307 97.7853 84.4686 97.8169C84.5129 99.397 84.5255 101.141 84.5255 101.141C84.5255 101.141 84.5698 104.27 84.1274 106.33C83.331 110.027 80.1962 112.132 79.9561 112.454L98.7711 101.622C98.7901 101.615 98.8027 101.609 98.8217 101.596C98.847 101.584 98.8723 101.565 98.8975 101.546L98.9923 101.489L99.005 101.476C101.729 99.7952 103.227 96.4139 103.227 91.9203V88.2103C103.056 88.1155 102.898 88.0144 102.753 87.9133Z" fill="#ECDDC5"/>
<path d="M88.0903 87.4329L107.341 76.2905C107.341 76.2905 110.622 74.5651 114.591 76.0187C118.56 77.4723 139.359 89.9483 139.359 89.9483L120.778 100.655C120.778 100.655 99.1885 87.2749 96.6541 86.6049C91.4526 85.2335 88.0903 87.4329 88.0903 87.4329Z" fill="white"/>
<path d="M44.0066 15.497C43.2482 14.7765 39.7089 11.6543 34.539 10.8643C28.6866 9.96687 26.2723 16.8116 26.2723 16.8116C26.2723 16.8116 25.596 20.3635 25.6213 22.4681C25.6466 24.5727 25.7983 32.2075 25.7983 32.2075L44.3416 21.5264C44.4174 21.4885 44.468 21.4127 44.468 21.3242V15.9015C44.3163 15.7435 44.1646 15.655 44.0066 15.497Z" fill="#ECDDC5"/>
<path d="M76.3347 113.295C74.287 113.295 72.0244 112.612 69.6859 111.26C61.5519 106.564 54.941 95.1057 54.941 85.7203V38.4645C54.941 29.155 48.3807 17.7913 40.3162 13.1334C36.4546 10.9024 32.8331 10.5358 30.1281 12.1032C27.4168 13.6706 25.9252 16.9824 25.9252 21.4444V32.0053C25.9252 32.1317 25.8241 32.2392 25.6914 32.2392C25.565 32.2392 25.4575 32.1381 25.4575 32.0053V21.4444C25.4575 16.8117 27.0312 13.3546 29.8879 11.705C32.7447 10.0555 36.5304 10.422 40.5437 12.7352C48.7346 17.4627 55.3961 29.0096 55.3961 38.4645V85.7139C55.3961 94.954 61.9058 106.235 69.9134 110.855C73.7498 113.068 77.3396 113.434 80.0257 111.879C82.7117 110.325 84.197 107.032 84.197 102.608V97.0649C84.197 92.2679 85.8276 88.6844 88.7854 86.978C91.7432 85.2715 95.6617 85.6507 99.8141 88.0461L120.778 100.257C120.885 100.32 120.923 100.459 120.86 100.573C120.797 100.686 120.652 100.718 120.544 100.655L99.5802 88.4443C95.5732 86.1311 91.8254 85.7519 89.0129 87.3761C86.2005 89.0004 84.6583 92.4386 84.6583 97.0649V102.608C84.6583 107.209 83.0973 110.641 80.2595 112.278C79.0903 112.96 77.7631 113.295 76.3347 113.295Z" fill="white"/>
<path d="M59.9214 48.8421V47.1736L61.868 46.0549V47.7171L59.9214 48.8421Z" fill="#ECDDC5"/>
<path d="M65.4131 42.5535V40.885L69.1167 38.7488V40.4173L65.4131 42.5535Z" fill="#ECDDC5"/>
<path d="M60.1108 42.2059V40.5374L69.1171 35.3359V37.0045L60.1108 42.2059Z" fill="#ECDDC5"/>
<path d="M63.2393 46.9272V45.2587L70.7602 40.9167V42.5853L63.2393 46.9272Z" fill="#ECDDC5"/>
<path d="M60.1108 45.6189V43.9504L63.8144 41.8079V43.4764L60.1108 45.6189Z" fill="#ECDDC5"/>
<path d="M62.2913 65.0723V66.7408L60.0098 68.0554V66.3869L62.2913 65.0723Z" fill="#ECDDC5"/>
<path d="M66.4432 62.6768V64.3453L64.1616 65.6599V63.9913L66.4432 62.6768Z" fill="#ECDDC5"/>
<path d="M68.9338 58.1201V59.7886L60.1172 64.8764V63.2078L68.9338 58.1201Z" fill="#ECDDC5"/>
<path d="M64.5352 52.8428V51.1742L68.934 48.6335V50.3021L64.5352 52.8428Z" fill="#ECDDC5"/>
<path d="M60.0098 55.4528V53.7843L62.2913 52.4697V54.1382L60.0098 55.4528Z" fill="#ECDDC5"/>
<path d="M60.0098 58.5751V56.9066L64.3517 54.3975V56.066L60.0098 58.5751Z" fill="#ECDDC5"/>
<path d="M66.1084 55.055V53.3865L68.9335 51.7559V53.4181L66.1084 55.055Z" fill="#ECDDC5"/>
<path d="M64.5352 72.2646V70.5961L68.934 68.0554V69.7239L64.5352 72.2646Z" fill="#ECDDC5"/>
<path d="M60.0098 74.875V73.2064L62.2913 71.8918V73.5604L60.0098 74.875Z" fill="#ECDDC5"/>
<path d="M60.0098 77.997V76.3284L64.3517 73.8193V75.4879L60.0098 77.997Z" fill="#ECDDC5"/>
<path d="M66.1084 74.4766V72.8081L68.9335 71.1775V72.846L66.1084 74.4766Z" fill="#ECDDC5"/>
<path d="M112.302 90.062L110.861 89.2278L112.808 88.1028L114.249 88.937L112.302 90.062Z" fill="#ECDDC5"/>
<path d="M115.096 85.3284L113.649 84.5004L117.359 82.3579L118.8 83.1922L115.096 85.3284Z" fill="#ECDDC5"/>
<path d="M106.842 86.6871L105.395 85.8528L114.407 80.6514L115.848 81.4856L106.842 86.6871Z" fill="#ECDDC5"/>
<path d="M115.627 88.1471L114.179 87.3129L121.7 82.9709L123.141 83.8052L115.627 88.1471Z" fill="#ECDDC5"/>
<path d="M109.794 88.3935L108.346 87.5593L112.056 85.4167L113.497 86.251L109.794 88.3935Z" fill="#ECDDC5"/>
<path d="M13.7972 93.8543L12.9503 94.341L10.9531 93.1844L11.7937 92.6978L13.7972 93.8543Z" fill="white"/>
<path d="M15.3514 92.9569L14.5045 93.4435L12.5073 92.2869L13.3479 91.8003L15.3514 92.9569Z" fill="white"/>
<path d="M16.9061 92.0594L16.0592 92.5461L14.062 91.3895L14.9026 90.9028L16.9061 92.0594Z" fill="white"/>
<path d="M18.4608 91.162L17.6139 91.6486L15.6167 90.492L16.4573 90.0054L18.4608 91.162Z" fill="white"/>
<path d="M128.198 119.994L113.321 111.418C112.961 111.209 112.506 111.095 112.05 111.07V111.064C112.038 111.064 112.025 111.064 112.006 111.064C111.918 111.058 111.823 111.064 111.734 111.064C111.697 111.064 111.652 111.064 111.614 111.07C111.526 111.076 111.437 111.089 111.349 111.102C111.311 111.108 111.273 111.114 111.235 111.121C111.147 111.14 111.065 111.165 110.982 111.19C110.951 111.203 110.913 111.209 110.881 111.216C110.774 111.253 110.666 111.304 110.572 111.355L99.4734 117.782L88.8935 123.913L87.8633 124.014L87.8696 124.943L87.8822 125.063C87.9265 125.328 88.1224 125.588 88.489 125.796L103.373 134.379C103.733 134.587 104.188 134.701 104.643 134.726V134.733C104.656 134.733 104.669 134.733 104.688 134.733C104.776 134.739 104.864 134.733 104.959 134.733C104.997 134.733 105.041 134.733 105.079 134.726C105.168 134.72 105.256 134.708 105.338 134.695C105.376 134.689 105.414 134.682 105.452 134.676C105.541 134.657 105.623 134.632 105.705 134.606C105.737 134.594 105.775 134.587 105.806 134.575C105.914 134.537 106.021 134.486 106.116 134.436L128.312 121.581C128.66 121.378 128.83 121.107 128.824 120.835V120.81V120.803V119.931L128.198 119.994Z" fill="white"/>
<path d="M88.3874 123.294L99.4856 116.866L116.733 126.814L106.122 133.52C105.395 133.943 104.169 133.918 103.385 133.463L88.5012 124.88C87.7048 124.425 87.6606 123.717 88.3874 123.294Z" fill="#CEDCE2"/>
<path d="M110.578 110.438L99.4795 116.866L116.62 126.751L128.306 120.664C129.033 120.241 128.988 119.533 128.198 119.078L113.314 110.495C112.537 110.047 111.304 110.015 110.578 110.438Z" fill="#C6D4DB"/>
<path d="M128.818 119.817C128.875 120.127 128.704 120.437 128.312 120.664L106.116 133.519C105.724 133.747 105.187 133.842 104.649 133.81L106.122 120.69L128.818 119.817Z" fill="#DFE7EC"/>
<path d="M87.8823 124.147C87.8254 123.837 87.996 123.528 88.3879 123.3L110.584 110.445C110.976 110.217 111.513 110.123 112.05 110.154L110.578 123.275L87.8823 124.147Z" fill="white"/>
<path d="M104.807 128.21C104.763 128.21 104.719 128.21 104.681 128.21L104.409 128.185C103.973 128.135 103.581 128.015 103.259 127.825L88.3747 119.242C88.0587 119.059 87.8312 118.825 87.7174 118.56L87.6858 118.566L87.6416 118.307V118.269C87.6289 118.225 87.6353 118.149 87.6416 118.092C87.6416 118.054 87.6479 118.029 87.6542 117.997C87.6732 117.921 87.6985 117.858 87.7301 117.795C87.749 117.757 87.7553 117.732 87.7743 117.706C87.8185 117.637 87.8691 117.574 87.9197 117.523C87.9449 117.491 87.9639 117.473 87.9829 117.454C88.0714 117.371 88.1661 117.302 88.2736 117.245L110.47 104.39C110.577 104.327 110.691 104.276 110.818 104.232L110.893 104.207C111.013 104.169 111.102 104.143 111.197 104.124L111.285 104.112C111.418 104.093 111.513 104.08 111.608 104.067H111.702C111.835 104.061 111.93 104.061 112.025 104.067L112.296 104.093C112.733 104.143 113.124 104.263 113.447 104.453L128.331 113.036C128.647 113.219 128.874 113.453 128.988 113.718L129.02 113.712L129.064 113.971V114.009C129.076 114.053 129.07 114.129 129.064 114.186C129.064 114.224 129.058 114.256 129.051 114.281C129.032 114.357 129.001 114.426 128.975 114.489C128.963 114.527 128.95 114.553 128.937 114.578C128.893 114.647 128.843 114.711 128.792 114.761L128.729 114.831C128.64 114.913 128.546 114.982 128.438 115.039L106.242 127.894C106.134 127.958 106.014 128.008 105.894 128.052L105.818 128.078C105.698 128.116 105.61 128.141 105.515 128.16L105.426 128.173C105.294 128.191 105.199 128.204 105.104 128.217H105.009C104.933 128.21 104.87 128.21 104.807 128.21ZM105.3 127.692L105.458 127.913L105.408 127.68C105.49 127.661 105.559 127.642 105.635 127.616L105.806 127.819L105.724 127.591C105.818 127.559 105.907 127.515 105.995 127.471L128.192 114.609C128.267 114.565 128.331 114.515 128.394 114.464L128.609 114.584L128.432 114.42C128.47 114.382 128.501 114.344 128.52 114.312C128.552 114.23 128.571 114.199 128.577 114.167C128.583 114.091 128.583 114.06 128.583 114.041L128.577 114.015C128.539 113.813 128.369 113.611 128.091 113.447L113.207 104.864C112.897 104.687 112.48 104.573 112.044 104.548L111.949 104.541C111.873 104.541 111.816 104.541 111.759 104.541L111.645 104.548C111.57 104.554 111.487 104.567 111.412 104.579L111.254 104.358L111.304 104.592C111.222 104.611 111.153 104.63 111.077 104.655L110.906 104.453L110.988 104.681C110.893 104.718 110.799 104.756 110.716 104.807L88.5201 117.662C88.4442 117.706 88.381 117.757 88.3178 117.807C88.2483 117.89 88.2104 117.928 88.1914 117.959C88.1535 118.041 88.1409 118.079 88.1345 118.105C88.1282 118.18 88.1282 118.212 88.1282 118.231L88.1345 118.256C88.1725 118.458 88.3431 118.661 88.6212 118.825L103.505 127.408C103.815 127.585 104.232 127.699 104.668 127.724L104.763 127.73C104.839 127.73 104.896 127.73 104.959 127.73L105.073 127.724C105.142 127.717 105.224 127.705 105.3 127.692Z" fill="white"/>
<path opacity="0.4" d="M128.603 114.584C128.647 114.534 128.691 114.489 128.723 114.439C128.736 114.42 128.742 114.395 128.755 114.369C128.78 114.319 128.799 114.268 128.811 114.218C128.818 114.192 128.818 114.173 128.818 114.148C128.824 114.098 128.824 114.047 128.818 113.99C128.818 113.984 128.818 113.971 128.818 113.965H128.811C128.767 113.699 128.571 113.44 128.205 113.232L113.321 104.649C112.961 104.44 112.505 104.327 112.05 104.301V104.295C112.038 104.295 112.025 104.295 112.006 104.295C111.918 104.289 111.829 104.295 111.734 104.295C111.696 104.295 111.652 104.295 111.614 104.301C111.526 104.308 111.437 104.32 111.355 104.333C111.317 104.339 111.279 104.346 111.241 104.352C111.153 104.371 111.071 104.396 110.989 104.421C110.957 104.434 110.919 104.44 110.887 104.453C110.78 104.491 110.673 104.542 110.578 104.592L103.177 108.877L99.4796 111.02L88.3814 117.447C88.2866 117.504 88.2045 117.561 88.135 117.624C88.116 117.643 88.1034 117.662 88.0844 117.681C88.0402 117.732 87.9959 117.776 87.9706 117.826C87.958 117.845 87.9517 117.871 87.939 117.896C87.9138 117.947 87.8948 117.997 87.8822 118.048C87.8758 118.073 87.8758 118.092 87.8758 118.117C87.8695 118.168 87.8695 118.218 87.8758 118.275C87.8758 118.282 87.8758 118.294 87.8758 118.3H87.8822C87.9264 118.566 88.1223 118.825 88.4889 119.034L103.373 127.616C103.733 127.825 104.188 127.939 104.643 127.964V127.97C104.656 127.97 104.668 127.97 104.687 127.97C104.776 127.977 104.864 127.97 104.959 127.97C104.997 127.97 105.041 127.97 105.079 127.964C105.168 127.958 105.256 127.945 105.338 127.932C105.376 127.926 105.414 127.92 105.452 127.913C105.541 127.894 105.623 127.869 105.705 127.844C105.737 127.831 105.774 127.825 105.806 127.812C105.914 127.774 106.021 127.724 106.116 127.673L128.312 114.818C128.407 114.761 128.489 114.704 128.559 114.641C128.578 114.622 128.584 114.603 128.603 114.584Z" fill="white"/>
</g>
<defs>
<clipPath id="clip0_232_2738">
<rect width="147.544" height="164.88" fill="white"/>
</clipPath>
<clipPath id="clip1_232_2738">
<rect width="35.6366" height="35.6366" fill="white" transform="matrix(0.866044 -0.499967 0.866044 0.499967 64 36.8169)"/>
</clipPath>
</defs>
</svg>
