<svg width="152" height="27" fill="none" xmlns="http://www.w3.org/2000/svg"><g clip-path="url(#clip0_164_33967)"><path d="M64.292 6.379v12.022H61.88v-7.819l-3.222 7.82h-1.824l-3.239-7.82v7.82h-2.41V6.378h2.737l3.824 8.939 3.824-8.94h2.72zm7.414 9.757c.385-.213.691-.53.921-.956.23-.425.346-.94.346-1.55 0-.906-.24-1.605-.716-2.093a2.35 2.35 0 00-1.747-.732c-.69 0-1.267.244-1.73.732-.466.488-.7 1.187-.7 2.093 0 .907.228 1.606.68 2.093.454.488 1.026.731 1.714.731a2.5 2.5 0 001.232-.318zm-3.712 1.81a4.396 4.396 0 01-1.73-1.733c-.419-.746-.628-1.607-.628-2.583 0-.975.215-1.837.645-2.582a4.483 4.483 0 011.765-1.733c.746-.407 1.58-.61 2.497-.61.92 0 1.751.203 2.497.61a4.472 4.472 0 011.766 1.733c.432.745.647 1.607.647 2.582 0 .976-.223 1.837-.664 2.583a4.587 4.587 0 01-1.792 1.732c-.751.408-1.592.612-2.523.612-.917 0-1.745-.204-2.48-.611zm15.346-5.822c-.23-.42-.54-.742-.93-.966a2.505 2.505 0 00-1.257-.335 2.44 2.44 0 00-1.241.327c-.38.219-.686.537-.922.955-.235.42-.353.916-.353 1.49 0 .575.118 1.076.353 1.508.236.43.546.76.931.99.385.23.794.344 1.232.344.446 0 .867-.112 1.257-.336a2.42 2.42 0 00.93-.964c.23-.419.345-.922.345-1.507 0-.585-.116-1.087-.346-1.506zm-6.588-1.095c.385-.746.91-1.32 1.575-1.721a4.225 4.225 0 012.222-.604c.62 0 1.211.134 1.774.405.562.27 1.01.628 1.343 1.077v-4.53h2.447V18.4h-2.447v-1.41c-.299.47-.717.85-1.256 1.136-.54.288-1.166.432-1.878.432a4.107 4.107 0 01-2.205-.62c-.665-.414-1.19-.997-1.575-1.75-.385-.751-.578-1.615-.578-2.592 0-.965.193-1.819.578-2.566zm17.664 1.706c-.013-.62-.235-1.117-.673-1.49-.435-.373-.97-.56-1.601-.56-.596 0-1.1.181-1.507.542-.407.362-.657.865-.749 1.508h4.53zm2.428 1.619h-6.975c.056.69.297 1.227.723 1.618.425.39.948.587 1.567.587.896 0 1.534-.385 1.911-1.155h2.602a4.342 4.342 0 01-1.585 2.265c-.781.592-1.74.888-2.876.888-.92 0-1.742-.204-2.473-.611a4.296 4.296 0 01-1.704-1.733c-.408-.746-.611-1.607-.611-2.583 0-.987.2-1.854.602-2.601a4.21 4.21 0 011.69-1.721c.722-.402 1.554-.604 2.496-.604.906 0 1.72.196 2.437.585.718.39 1.275.946 1.67 1.663.397.718.595 1.542.595 2.47 0 .347-.023.657-.07.932zm5.019-5.201c.499-.288 1.071-.432 1.714-.432v2.532h-.637c-.757 0-1.329.178-1.714.534-.385.356-.577.976-.577 1.86v4.754h-2.411V8.86h2.411v1.482c.31-.506.715-.903 1.214-1.188zm10.946.644c.699.718 1.051 1.721 1.051 3.007v5.597h-2.413v-5.27c0-.758-.189-1.342-.568-1.749-.378-.407-.895-.611-1.549-.611-.668 0-1.193.204-1.576.611-.385.407-.577.99-.577 1.75v5.27h-2.411V8.858h2.411v1.189a3.337 3.337 0 011.231-.974 3.805 3.805 0 011.645-.353c1.136 0 2.056.358 2.756 1.076z" fill="#B8213C"/><path d="M131.047 6.38l-3.359 12.022h-2.842l-2.256-8.561-2.359 8.561-2.825.017-3.237-12.04h2.583l2.117 9.336 2.446-9.335h2.688l2.308 9.282 2.136-9.282h2.6zm7.121 5.744c-.23-.42-.54-.742-.929-.966a2.503 2.503 0 00-1.258-.335c-.448 0-.861.109-1.24.327-.38.219-.686.537-.922.955-.235.42-.353.916-.353 1.49 0 .575.118 1.076.353 1.508.236.43.546.76.931.99.385.23.794.344 1.231.344.447 0 .868-.112 1.258-.336.389-.222.699-.544.929-.964.23-.419.346-.922.346-1.507 0-.585-.116-1.087-.346-1.506zm-6.588-1.095c.385-.746.907-1.32 1.568-1.721a4.174 4.174 0 012.213-.604c.712 0 1.334.144 1.869.432.534.286.961.648 1.284 1.084V8.86h2.427v9.54h-2.427v-1.395c-.31.448-.738.818-1.284 1.111-.546.292-1.174.44-1.886.44a4.06 4.06 0 01-2.196-.62c-.661-.414-1.183-.997-1.568-1.75-.385-.751-.577-1.615-.577-2.592 0-.965.192-1.819.577-2.566zM152 8.86l-5.908 14.053h-2.566l2.067-4.753-3.824-9.3h2.705l2.463 6.665 2.497-6.666H152zM31 12.606v6.005h4.984c.178-.02.246-.068.389-.162l4.11-3.006c1.267-1.078 1.56-1.41 2.622-2.607.398-.452.797-1.007 1.116-1.553.593-1.01.957-1.994 1.061-2.94V7.247c-.146-1.269-.816-2.462-2.094-3.547C40.497 1.418 35.969.5 31.784.348h-2.588c-.909.034-1.774.1-2.57.194-3.968.467-8.238 1.527-11.887 3.264-.285.136-.577.262-.835.402l-.858.438c-.6.276-1.81 1.051-2.424 1.422-.274.164-.528.36-.779.528-1.348.909-2.89 2.212-4.079 3.407-.126.126-.09.01-.137.213.235.07.2.315.58-.139l.518-.517c.36-.348.712-.637 1.098-.965.798-.683 1.467-1.14 2.325-1.715 1.548-1.037 3.516-2.043 5.331-2.724 2.347-.881 5.2-1.698 7.848-2.02.573-.069 1.21-.179 1.775-.195.58-.016 1.24-.126 1.839-.123 3.416.02 5.506.004 8.765.98 1.364.41 2.875 1.062 3.981 2.05.34.301.723.707.954 1.125.613 1.114.654 2.166.151 3.446-.47 1.193-1.424 2.13-2.231 2.927-.193.193-.346.307-.54.49-.52.489-3.198 2.418-3.613 2.527v-6.86h-3.464l-4.922 6.002v-6h-3.383V18.61h3.383L31 12.606z" fill="#29417E"/><path d="M19.26 12.667v5.944h3.376l.002-10.108h-3.21l-5.146 6.002V8.503H9.306c-.366.078-1.28.76-1.545.941-.533.364-1.022.707-1.528 1.09a32.918 32.918 0 00-2.129 1.756c-1.1.995-2.264 2.248-3.033 3.55-.653 1.106-1 2.144-1.071 3.115v.721c.105 1.412.83 2.663 2.094 3.735 1.848 1.568 4.465 2.42 7.25 2.941 2.262.422 4.612.446 6.997.413.28-.003.297-.049.539-.065.214-.012.418.018.634-.016l2.224-.238c.314-.04.765-.11 1.09-.173.722-.14 1.453-.263 2.124-.414 5.526-1.251 11.022-3.666 15.398-7.623.222-.2 1.204-1.038 1.278-1.35-.16-.047-.06-.016-.19-.113-.22.066-.8.733-1.05.955-1.06.944-1.682 1.456-2.834 2.244-.214.146-.401.26-.616.406-1.073.733-2.74 1.55-3.9 2.078-.913.414-1.922.786-2.875 1.094-1.938.623-5.226 1.415-7.28 1.557-.247.018-.633.038-.905.08-1.065.162-2.52.104-3.747.104-3.454 0-9.79-1.011-11.622-4.24-1.316-2.317.398-4.397 1.653-5.827.1-.113.128-.138.23-.229 1.781-1.553 1.898-1.647 3.785-2.883.199-.13.395-.298.653-.364v6.863h3.352l4.979-5.944z" fill="#B8213C"/></g><defs><clipPath id="clip0_164_33967"><path fill="#fff" transform="translate(0 .348)" d="M0 0h152v26.428H0z"/></clipPath></defs></svg>