<svg width="25" height="25" fill="none" xmlns="http://www.w3.org/2000/svg"><path fill-rule="evenodd" clip-rule="evenodd" d="M10.915 9.041a2.587 2.587 0 100 5.174 2.587 2.587 0 000-5.174zm-4.312 2.587a4.312 4.312 0 118.624 0 4.312 4.312 0 01-8.624 0z" fill="#B8213C"/><path fill-rule="evenodd" clip-rule="evenodd" d="M6.862 3.052A9.486 9.486 0 0120.4 11.628v.863a3.45 3.45 0 01-6.9 0V8.178a.862.862 0 011.726 0v4.312a1.724 1.724 0 103.45 0v-.863a7.761 7.761 0 10-3.043 6.163.862.862 0 011.048 1.369 9.486 9.486 0 11-9.82-16.108z" fill="#B8213C"/></svg>