<svg width="25" height="25" fill="none" xmlns="http://www.w3.org/2000/svg"><path d="M4.565 16.541h0l.003.003a.92.92 0 00.323.218c.12.047.241.062.364.062a.95.95 0 00.965-.97c0-.275-.13-.542-.275-.69-1.285-1.348-2.123-3.192-2.123-5.233 0-4.09 3.26-7.422 7.25-7.422 3.989 0 7.25 3.332 7.25 7.422 0 2.046-.79 3.888-2.122 5.232h0L9.873 21.6l-.169.172.165.175 1.02 1.081.18.19.182-.187 6.326-6.488h0l.001-.002A9.662 9.662 0 0020.25 9.88c0-5.178-4.085-9.416-9.178-9.416-5.094 0-9.179 4.238-9.179 9.416 0 2.59 1.047 4.97 2.672 6.661z" fill="#B8213C" stroke="#B8213C" stroke-width=".5"/><path d="M15.204 11.63L12.96 5.864l-1.887 3.399-1.837-3.399-2.245 5.768h-.663v.875h3.367v-.875h-.51l.51-1.442 1.378 2.42 1.428-2.42.51 1.442h-.51v.875h3.367v-.875" fill="#B8213C"/></svg>