<svg width="25" height="25" fill="none" xmlns="http://www.w3.org/2000/svg"><path d="M19.285 15.871v2.473a1.646 1.646 0 01-1.123 1.569c-.218.073-.449.1-.678.08a16.369 16.369 0 01-7.128-2.53A16.092 16.092 0 015.4 12.515a16.294 16.294 0 01-2.536-7.147 1.646 1.646 0 01.977-1.657c.21-.093.437-.14.666-.14h2.479a1.654 1.654 0 011.652 1.417c.104.792.298 1.569.578 2.317a1.646 1.646 0 01-.372 1.74l-1.049 1.046a13.204 13.204 0 004.956 4.947l1.05-1.047a1.653 1.653 0 011.742-.371c.75.279 1.528.472 2.321.577a1.653 1.653 0 011.421 1.673z" stroke="#B8213C" stroke-width="1.5" stroke-linecap="round" stroke-linejoin="round"/></svg>