<svg width="70" height="69" fill="none" xmlns="http://www.w3.org/2000/svg"><circle cx="35" cy="34.5" r="34.5" fill="#fff"/><path d="M48.92 34.61l-3-7A1 1 0 0045 27h-3v-2a1 1 0 00-1-1H22a1 1 0 00-1 1v17a1 1 0 001 1h2.14a4 4 0 007.72 0h6.28a4 4 0 007.72 0H48a1 1 0 001-1v-7c0-.134-.028-.267-.08-.39zM42 29h2.34l2.14 5H42v-5zM28 44a2 2 0 110-4 2 2 0 010 4zm10.14-3h-6.28a4 4 0 00-7.72 0H23V26h17v12.56A3.999 3.999 0 0038.14 41zM42 44a2 2 0 110-4 2 2 0 010 4zm5-3h-1.14A4 4 0 0042 38v-2h5v5z" fill="#B8213C"/></svg>