<svg width="143" height="156" fill="none" xmlns="http://www.w3.org/2000/svg"><g clip-path="url(#clip0_232_3150)"><path opacity=".5" d="M140.544 130.945l-41.721 24.094c-1.861 1.078-4.685 1.192-6.3.259L1.09 102.508c-1.614-.933-1.409-2.56.452-3.637l41.721-24.094c1.86-1.079 4.685-1.193 6.3-.26l91.439 52.796c1.607.928 1.409 2.554-.458 3.632z" fill="#F3F3F3"/><path d="M142.085 115.817l-8.593-1.493-83.936-48.466c-1.614-.934-4.432-.813-6.3.259L4.379 88.579 0 87.814v4.445h.006c-.006.596.35 1.162 1.084 1.59l91.44 52.795c1.613.934 4.432.813 6.299-.259l41.721-24.094c1.035-.596 1.553-1.367 1.541-2.09v-4.384h-.006z" fill="#E4DCD1"/><path d="M140.544 117.871l-41.721 24.094c-1.861 1.078-4.685 1.192-6.3.259L1.09 89.434c-1.614-.933-1.409-2.56.452-3.637l41.721-24.094c1.86-1.079 4.685-1.193 6.3-.26l91.439 52.796c1.607.928 1.409 2.554-.458 3.632z" fill="#3F3F3F"/><path d="M140.544 117.304l-41.721 24.095c-1.861 1.078-4.685 1.192-6.3.259L1.09 88.868c-.608-.35-.957-.8-1.06-1.289-.126.693.217 1.367 1.06 1.855l91.44 52.796c1.614.933 4.432.813 6.299-.259l41.721-24.095c1.162-.668 1.674-1.553 1.511-2.348-.12.626-.626 1.265-1.517 1.776z" fill="#fff"/><path d="M140.61 114.01l-48.466 27.991L1.481 89.657l48.466-27.99 90.663 52.343z" fill="#B7B7B7"/><path d="M28.654 72.627l-6.438 3.715c-.277.163-.705.18-.946.042l-.066-.036c-.24-.138-.21-.385.066-.548l6.438-3.715c.277-.163.705-.181.946-.037l.066.037c.247.132.21.379-.066.542zM45.298 6.823a2.866 2.866 0 110 5.733 2.866 2.866 0 110-5.733z" fill="#fff"/><path d="M36.049 6.823a2.866 2.866 0 110 5.733 2.866 2.866 0 110-5.733z" fill="#B8213C"/><path opacity=".5" d="M26.805 6.823a2.866 2.866 0 110 5.733 2.866 2.866 0 110-5.733z" fill="#B8213C"/><path opacity=".1" d="M17.555 6.823a2.866 2.866 0 110 5.733 2.866 2.866 0 110-5.733z" fill="#B8213C"/><g clip-path="url(#clip1_232_3150)"><path d="M78.066 84.83l-25.21-14.553c-.668-.386-1.575-.603-2.52-.603-.946 0-1.853.217-2.521.603L22.605 84.83c-.669.386-1.044.91-1.044 1.456 0 .546.375 1.07 1.044 1.455l25.21 14.554c.668.386 1.575.603 2.52.603.946 0 1.853-.217 2.521-.603l25.21-14.554c.669-.386 1.044-.91 1.044-1.455 0-.546-.375-1.07-1.044-1.456zM60.42 80.465c.374.216.629.491.732.79.103.3.05.61-.152.893-.202.282-.545.523-.985.692-.44.17-.957.26-1.485.26-.53 0-1.046-.09-1.486-.26-.44-.17-.782-.41-.985-.692-.202-.282-.255-.593-.152-.892.103-.3.358-.575.732-.79.501-.29 1.181-.453 1.89-.453.71 0 1.39.163 1.891.452zM45.136 95.11l-10.084-5.822 2.836-1.637 3.624 2.092 7.248-4.184-2.364-1.364 2.837-1.638 5.199 3.002-10.084 5.822 3.624 2.092-2.836 1.637z" fill="#fff"/></g><path opacity=".6" d="M61.275 104.881c8.946 0 16.199-4.187 16.199-9.352 0-5.166-7.253-9.353-16.2-9.353-8.946 0-16.199 4.187-16.199 9.353 0 5.165 7.253 9.352 16.2 9.352z" fill="#BABABA"/><path d="M61.275 110.168c-6.438 0-12.882-1.415-17.784-4.245-4.793-2.765-7.43-6.456-7.43-10.395 0-3.938 2.637-7.624 7.43-10.388 9.804-5.66 25.757-5.66 35.567 0 4.793 2.764 7.431 6.456 7.431 10.394 0 3.933-2.638 7.624-7.431 10.389-4.908 2.83-11.346 4.245-17.783 4.245zm0-28.852c-6.36 0-12.725 1.397-17.567 4.192-4.649 2.686-7.214 6.245-7.214 10.014 0 3.776 2.559 7.329 7.214 10.015 9.684 5.595 25.45 5.595 35.133 0 4.649-2.686 7.215-6.245 7.215-10.015 0-3.775-2.56-7.329-7.215-10.014-4.848-2.788-11.207-4.192-17.566-4.192zm65.532-40.914L57.277.26c-.543-.313-1.037-.331-1.416-.114V.139L54.825.74s.241.036.476.066a2.745 2.745 0 00-.199 1.084v47.912c0 1.596.97 3.45 2.168 4.143l69.531 40.143c.133.079.259.133.386.175v.542l1.041-.608h-.006c.458-.265.753-.88.753-1.753v-47.9c0-1.595-.969-3.45-2.168-4.143z" fill="#fff"/><path d="M125.802 94.68L56.265 54.536c-1.199-.692-2.168-2.547-2.168-4.143V2.487c0-1.595.97-2.33 2.168-1.638l69.537 40.144c1.198.692 2.168 2.547 2.168 4.143v47.906c0 1.595-.97 2.33-2.168 1.638z" fill="#B8213C"/><path d="M105.068 43.48v-6.841l1.451.837c.277.156.512.325.717.5.205.174.385.373.542.596.156.223.277.47.361.752.078.278.121.579.121.904 0 .843-.295 1.144-.874.91.35.276.615.607.783.98.175.374.259.814.265 1.32 0 .65-.138 1.06-.421 1.234-.283.175-.699.103-1.241-.21l-1.704-.982zm1.078-3.427l.337.193c.319.18.536.229.656.144.121-.09.181-.319.181-.686 0-.193-.018-.361-.06-.5a1.012 1.012 0 00-.199-.385 1.771 1.771 0 00-.307-.295 4.991 4.991 0 00-.452-.29l-.15-.084v1.903h-.006zm0 3.168l.397.229c.319.186.542.228.669.126.126-.102.186-.35.186-.753 0-.415-.072-.752-.21-1.017-.139-.265-.374-.494-.705-.68l-.337-.2v2.295zm2.667 2.421l1.205-6.143 1.126.65 1.198 7.534-1.005-.578-.241-1.728-1.024-.59-.241 1.445-1.018-.59zm1.374-1.608l.794.458-.397-3.036-.397 2.578zm2.739 3.98V41.18l.741.428 1.451 4.71v-3.873l.892.518v6.841l-.705-.41-1.463-4.913v4.07l-.916-.535zm3.969 2.295v-6.835l1.078.626v2.97l1.162-2.301 1.03.596-1.132 2.409 1.252 4.498-1.077-.62-1.024-3.806-.217.32v2.77l-1.072-.627zm-43.6 4.125l-13.2-7.624v-1.765l13.2 7.624v1.765zm16.224 9.364L76.324 56.18v-1.764l13.195 7.618v1.764zm16.223 9.37l-13.194-7.624V63.78l13.194 7.624v1.764zm16.229 9.365l-13.2-7.618v-1.764l13.2 7.618v1.764z" fill="#fff"/><path opacity=".2" d="M69.736 19.698l-15.64-1.264v31.965c0 1.596.97 3.45 2.169 4.143L86.35 71.916c7.775-11.02 6.016-27.907 6.016-27.907L69.737 19.7z" fill="#041860"/><path d="M87.025 47.731L64.388 23.426l-22.637-1.83s-3.637 30.688 22.637 63.237c26.274-2.21 22.637-37.102 22.637-37.102z" fill="#E3CDAC"/><path d="M41.751 21.595l-5.094 2.939 22.637 1.83 5.094-2.938-22.637-1.83z" fill="#FFF8EE"/><path d="M81.93 50.676L59.293 26.365l-9.31-.94-13.327-.891S33.02 55.222 59.293 87.772c26.275-2.21 22.637-37.096 22.637-37.096z" fill="#E2DDD7"/><path d="M81.93 50.676L59.295 26.365l-22.637-1.83.638-.368 22.938 1.855L82.87 50.327s3.035 29.165-16.53 35.85c18.53-7.282 15.59-35.501 15.59-35.501z" fill="#fff"/><path opacity=".2" d="M79.185 51.05L58.83 29.194l-8.37-.843-11.985-.801s-3.27 27.593 20.355 56.855c23.625-1.988 20.355-33.357 20.355-33.357z" fill="#fff"/><path d="M44.424 35.824l-.8-.8-.801.8.8.8.801-.8zm2.894-.012l-.8-.8-.801.8.8.8.801-.8zm-1.443-1.438l-.8-.8-.8.8.8.8.8-.8zm-.008 2.889l-.801-.8-.8.8.8.8.8-.8zm81.801-5.707l-1.65-1.65 3.957-3.957-3.957-3.956 1.65-1.65 5.607 5.606-5.607 5.607zm-.987-1.65l.987.988 4.95-4.95-4.95-4.945-.987.988 3.956 3.956-3.956 3.963z" fill="#fff"/><path opacity=".5" d="M121.532 20.674l-1.319 1.319 3.962 3.956-3.962 3.957 1.319 1.319 3.962-3.957 1.319-1.319-5.281-5.275z" fill="#97958C"/><path d="M95.305 127.078a.314.314 0 01-.313-.289.321.321 0 01.29-.343c4.781-.379 9.556-1.831 13.458-4.083 4.24-2.445 6.775-4.884 7.54-7.238a.313.313 0 01.398-.205.315.315 0 01.204.397c-.819 2.511-3.45 5.065-7.828 7.594-3.981 2.301-8.853 3.776-13.725 4.167h-.024zm21.529-13.236a.314.314 0 01-.313-.307c-.066-1.879-1.433-3.638-3.95-5.089-5.565-3.21-12.821-3.198-20.433.048a.317.317 0 11-.247-.584c7.798-3.324 15.254-3.33 20.993-.012 2.716 1.566 4.191 3.511 4.263 5.613a.315.315 0 01-.307.325c0 .006 0 .006-.006.006z" fill="#fff"/><path d="M90.482 127.066h-.03c-2.656-.247-4.999-.921-6.77-1.939-1.962-1.132-3.185-2.662-3.534-4.426a.824.824 0 01.205-.705c.313-.361.903-.56 1.547-.524.741.043 1.325.38 1.458.85.349 1.222 1.252 2.264 2.673 3.083 4.945 2.854 14.459 1.999 21.21-1.897 4.36-2.517 6.661-5.083 6.661-7.419 0-1.644-1.169-3.186-3.373-4.463-5.697-3.288-13.423-2.595-21.21 1.897-2.806 1.62-4.823 3.607-5.672 5.595-.175.409-.705.686-1.355.704-.639.012-1.193-.21-1.427-.584a.721.721 0 01-.043-.722c1.144-2.325 3.463-4.541 6.69-6.402a.317.317 0 11.32.548c-3.12 1.801-5.348 3.92-6.438 6.137-.018.03-.018.054.006.096.097.15.434.301.88.295.457-.012.74-.193.789-.319.903-2.114 3.01-4.204 5.937-5.896 7.986-4.613 15.947-5.305 21.842-1.897 2.415 1.391 3.692 3.126 3.692 5.011 0 2.613-2.349 5.293-6.98 7.967-6.931 3.999-16.729 4.854-21.842 1.897-1.547-.897-2.577-2.09-2.969-3.463-.048-.168-.397-.361-.879-.391-.506-.03-.891.138-1.036.307-.072.084-.066.144-.06.162.313 1.578 1.433 2.963 3.228 4.005 1.692.976 3.945 1.62 6.51 1.861a.312.312 0 01.283.343.31.31 0 01-.313.289z" fill="#fff"/><path d="M98.455 123.802c-.506 0-1-.174-1.265-.463a.744.744 0 01-.174-.747c.114-.343.475-.608.975-.711 2.15-.433 4.228-1.21 6.016-2.24 2.927-1.686 4.583-3.378 4.794-4.878.102-.747-.157-1.445-.771-2.084-.211-.216-.295-.481-.229-.752.078-.338.38-.615.825-.771.771-.271 1.728-.108 2.18.373.861.916 1.259 1.921 1.174 2.999-.12 1.566-1.252 3.18-3.36 4.806a.318.318 0 11-.385-.506c1.963-1.511 3.011-2.981 3.119-4.354.072-.891-.271-1.734-1.006-2.517-.246-.265-.945-.41-1.511-.211-.277.096-.398.235-.416.319-.006.018-.018.079.067.163.758.783 1.078 1.662.945 2.613-.241 1.729-1.957 3.523-5.101 5.342-1.842 1.066-3.992 1.867-6.208 2.319-.301.06-.47.192-.5.289-.006.018-.018.054.048.126.169.187.644.325 1.114.223 2.451-.53 4.812-1.421 6.823-2.584a.317.317 0 11.319.548c-2.065 1.193-4.492 2.114-7.01 2.65-.162.03-.313.048-.463.048z" fill="#fff"/><path d="M93.439 124.29h-.073c-2.324-.072-4.33-.56-5.799-1.409-1.662-.958-2.535-2.301-2.535-3.878 0-2.397 2.101-5.047 5.618-7.076 5.577-3.222 11.147-4.252 15.688-2.915.488.145.825.428.927.771.079.265.012.536-.186.759-.41.469-1.337.656-2.108.427-3.246-.975-7.341-.283-11.532 1.939-.157.085-.217.169-.217.223 0 .06.072.139.18.199.344.199.94.205 1.301.018 4.168-2.204 8.058-2.608 10.659-1.102 1.048.608 1.602 1.397 1.602 2.294 0 1.47-1.445 3.048-4.288 4.692-3.902 2.252-9.045 2.95-11.466 1.553-.758-.439-1.216-1.054-1.325-1.776-.144-.958.302-2.036 1.301-3.114.06-.06.048-.096.048-.108-.012-.066-.108-.163-.289-.241-.487-.199-1.138-.078-1.354.151-1.097 1.192-1.614 2.42-1.458 3.474.127.843.669 1.548 1.614 2.096.951.548 2.264.885 3.788.976.807.048 1.391.445 1.415.981a.798.798 0 01-.247.626c-.283.271-.746.44-1.264.44zm8.78-15.218c-3.493 0-7.365 1.157-11.25 3.403-3.324 1.915-5.305 4.36-5.305 6.528 0 1.343.765 2.493 2.222 3.33 1.38.795 3.282 1.253 5.498 1.319.416.012.73-.121.862-.259.03-.03.072-.085.066-.133-.006-.162-.325-.373-.82-.403-1.625-.091-3.028-.458-4.064-1.06-1.102-.638-1.765-1.518-1.921-2.547-.187-1.247.385-2.668 1.614-3.999.421-.458 1.367-.596 2.06-.307.367.15.602.397.668.686.054.235-.018.476-.199.675-.85.921-1.253 1.837-1.138 2.589.084.536.421.982 1.018 1.325 2.246 1.295 7.106.602 10.833-1.554 2.566-1.481 3.975-2.95 3.975-4.143 0-.662-.434-1.252-1.289-1.746-2.409-1.391-6.07-.988-10.045 1.114-.554.295-1.373.283-1.909-.03-.319-.187-.505-.464-.5-.759.007-.307.205-.584.555-.771 4.341-2.3 8.605-3.005 12.008-1.987.584.175 1.228.018 1.451-.235.078-.09.06-.144.054-.169-.03-.108-.199-.252-.5-.343a14.756 14.756 0 00-3.944-.524z" fill="#fff"/><path d="M94.944 120.105c-.77 0-1.409-.133-1.873-.398-.506-.295-.777-.728-.777-1.258 0-1.132 1.217-2.511 3.258-3.692 3.313-1.915 6.209-2.433 7.944-1.433.746.428.915.97.921 1.343.024.921-.837 1.963-2.553 3.083-.536.349-1.44.368-2.012.036-.307-.18-.488-.445-.5-.728-.006-.283.145-.536.434-.723 1.379-.897 1.379-1.265 1.379-1.265-.385-.222-1.548-.03-3.662 1.187-1.463.843-2.065 1.565-2.065 1.77a.316.316 0 11-.632.006c-.006-.873 1.824-1.999 2.384-2.318 1.446-.837 3.361-1.723 4.264-1.205.217.127.337.319.343.548.006.313-.156.837-1.668 1.819-.09.06-.144.126-.144.175 0 .042.048.12.18.198.368.211 1.012.205 1.349-.018 2-1.3 2.283-2.15 2.271-2.535-.006-.313-.211-.584-.609-.813-.722-.416-2.89-1.114-7.31 1.433-1.789 1.03-2.945 2.265-2.945 3.144 0 .301.15.536.457.71.771.446 2.283.422 4.041-.066a.319.319 0 01.169.614c-.97.253-1.873.386-2.644.386zm-5.239-10.888a.214.214 0 01-.102-.024l-8.335-4.812a.204.204 0 01-.072-.277c.054-.096.174-.127.277-.072l8.334 4.811a.204.204 0 01.073.277.217.217 0 01-.175.097z" fill="#fff"/></g><defs><clipPath id="clip0_232_3150"><path fill="#fff" d="M0 0h142.085v155.93H0z"/></clipPath><clipPath id="clip1_232_3150"><path fill="#fff" transform="scale(1.22477 .70706) rotate(45 -87.006 94.16)" d="M0 0h46.575v46.575H0z"/></clipPath></defs></svg>