<svg width="173" height="172" fill="none" xmlns="http://www.w3.org/2000/svg"><g clip-path="url(#clip0_230_2393)"><path opacity=".6" d="M32.092 92.865l-14.314-8.268 11.375-6.565 14.314 8.26-11.375 6.573z" fill="#D7D7D7"/><path d="M32.656 95.972L12.398 84.275l16.2-9.35 20.258 11.697-16.2 9.35zM13.37 84.275l19.285 11.134 15.22-8.788L28.59 75.488l-15.22 8.787z" fill="#fff"/><path d="M32.092 73.748l-14.314-8.261 11.375-6.572 14.314 8.268-11.375 6.565z" fill="#EDE0CC"/><path d="M43.468 76.05v-8.867l-11.375 6.565v8.867l11.375-6.564z" fill="#BEB8A0"/><path d="M17.778 65.487v8.867l14.314 8.261v-8.867l-14.314-8.261z" fill="#C9C4B2"/><path d="M26.58 63.41l-6.199 3.583v1.915l1.843 1.06v-1.915l6.199-3.575-1.842-1.067zm3.941 2.274l-6.2 3.575v1.923l1.836 1.06v-1.916l6.199-3.582-1.835-1.06zm3.94 2.274l-6.2 3.582v1.915l1.843 1.06V72.6l6.192-3.575-1.835-1.067z" fill="#fff"/><path d="M26.58 63.41v.776l1.185.665.658-.373-1.842-1.067zm-5.526 5.103l-.673.395 1.843 1.06v-.797l-1.17-.658z" fill="#fff"/><path d="M26.58 63.41l-6.199 3.583v1.915l.673-.394V67.38l5.534-3.195-.007-.775z" fill="#BEB8A0"/><path d="M30.52 65.684v.775l1.178.665.657-.38-1.834-1.06zm-5.533 5.103l-.665.395 1.835 1.06v-.797l-1.17-.658z" fill="#fff"/><path d="M30.521 65.684l-6.2 3.575v1.923l.666-.395v-1.133l5.534-3.195v-.775z" fill="#BEB8A0"/><path d="M34.46 67.958v.775l1.178.665.658-.373-1.835-1.067zm-5.533 5.102l-.665.396 1.842 1.06v-.797l-1.177-.658z" fill="#fff"/><path d="M34.461 67.958l-6.2 3.582v1.915l.666-.394v-1.133l5.534-3.195v-.775z" fill="#BEB8A0"/><path d="M106.425 171.24c-16.792 0-33.577-3.692-46.363-11.068-12.427-7.179-19.277-16.734-19.277-26.91 0-10.176 6.842-19.731 19.277-26.91 25.558-14.76 67.154-14.76 92.719 0 12.428 7.179 19.277 16.734 19.277 26.91 0 10.176-6.842 19.731-19.277 26.91-12.779 7.376-29.571 11.061-46.356 11.068zm0-75.473c-16.704 0-33.401 3.67-46.114 11.009-12.274 7.084-19.03 16.493-19.03 26.486 0 9.993 6.756 19.402 19.03 26.486 25.426 14.679 66.803 14.679 92.229 0 12.274-7.084 19.029-16.493 19.029-26.486 0-9.993-6.763-19.402-19.029-26.486-12.713-7.34-29.418-11.01-46.115-11.01z" fill="#B8213C"/><path opacity=".5" d="M106.425 160.325c25.893 0 46.882-12.116 46.882-27.063s-20.989-27.063-46.882-27.063c-25.892 0-46.881 12.116-46.881 27.063s20.99 27.063 46.881 27.063z" fill="#E7E7E7"/><path d="M136.281 28.116L88.281.38c-.775-.446-1.484-.482-2.032-.183l-3.26 1.901 2.127 1.287V115.84c0 2.325 1.418 5.03 3.158 6.039l47.437 27.414-.68 2.405 3.283-1.908h-.008c.68-.38 1.112-1.279 1.112-2.566V34.155c.022-2.333-1.397-5.038-3.137-6.04z" fill="#E4DCD1"/><path d="M132.948 151.546L84.954 123.81c-1.747-1.009-3.158-3.714-3.158-6.039V4.708c0-2.325 1.419-3.4 3.158-2.39l47.994 27.735c1.747 1.01 3.158 3.714 3.158 6.039v113.07c0 2.325-1.411 3.392-3.158 2.384z" fill="#3F3F3F"/><path d="M136.106 149.235l-54.317-31.383V4.627l54.317 31.384v113.224z" fill="#B7B7B7"/><path opacity=".4" d="M127.428 151.407L78.953 123.4a5.875 5.875 0 01-2.94-5.088V11.828c0-1.491 1.609-2.42 2.903-1.674l48.476 28.014a5.876 5.876 0 012.938 5.088V149.74c0 1.484-1.608 2.412-2.902 1.667z" fill="#fff"/><path d="M128.4 151.889c-.365 0-.738-.095-1.074-.292L78.85 123.583a6.11 6.11 0 01-3.048-5.278V11.828c0-.775.402-1.47 1.074-1.857a2.132 2.132 0 012.15 0L127.5 37.985a6.102 6.102 0 013.041 5.278v106.484c0 .775-.402 1.469-1.074 1.857a2.244 2.244 0 01-1.068.285zM77.951 10.103c-.292 0-.592.08-.863.234a1.7 1.7 0 00-.862 1.491v106.484a5.674 5.674 0 002.829 4.905l48.476 28.014c.54.314 1.184.314 1.717 0 .541-.307.863-.87.863-1.491V43.256a5.677 5.677 0 00-2.829-4.906L78.806 10.337a1.732 1.732 0 00-.855-.234zm34.586 10.827l-7.179-4.145c-.241-.14-.439-.52-.439-.841 0-.322.198-.475.439-.336l7.179 4.145c.241.139.439.519.439.84 0 .33-.198.476-.439.337z" fill="#fff"/><path opacity=".2" d="M115.483 85.196c.98.57 1.777-.037 1.777-1.345V44.528c0-1.309-.797-2.83-1.777-3.4L76.16 18.43a6.906 6.906 0 00-.153 1.419v42.554l39.476 22.794z" fill="#041860"/><path d="M85.941 70.626l.008.98c-.841-.388-1.908-.563-3.173-.475-4.452.329-9.635 3.845-11.572 7.858-.541 1.112-.768 2.142-.732 3.049l-.899-.3.973 1.433v-.007c.804 1.25 2.441 1.951 4.707 1.783 4.453-.329 9.636-3.845 11.573-7.858.972-2.01.95-3.758.124-4.971l-1.009-1.492z" fill="#EDDFBA"/><path d="M85.81 75.59c-1.945 4.013-7.128 7.537-11.573 7.859-4.452.329-6.484-2.669-4.54-6.682 1.945-4.013 7.128-7.537 11.573-7.859 4.452-.321 6.484 2.668 4.54 6.682z" fill="#F8F4ED"/><path d="M85.81 75.59c-1.945 4.013-7.128 7.537-11.573 7.859-4.452.329-6.484-2.669-4.54-6.682 1.945-4.013 7.128-7.537 11.573-7.859 4.452-.321 6.484 2.668 4.54 6.682z" fill="#F0E6BA"/><path d="M80.546 80.18c-1.784 1.222-3.845 2.055-5.739 2.194-1.834.132-3.253-.387-3.991-1.477-.738-1.089-.702-2.595.102-4.255 1.638-3.391 6.031-6.374 9.79-6.645 1.834-.131 3.252.388 3.99 1.477.739 1.09.702 2.595-.102 4.255-.811 1.674-2.303 3.253-4.05 4.452zm-5.49-7.858c-1.725 1.184-3.187 2.734-3.991 4.394-.775 1.6-.82 3.055-.117 4.086.701 1.031 2.069 1.535 3.845 1.404 3.706-.27 8.034-3.21 9.65-6.55.775-1.601.819-3.056.117-4.087-.702-1.03-2.07-1.535-3.846-1.404-1.871.132-3.903.95-5.658 2.157z" fill="#EDDFBA"/><path d="M84.516 75.685c-1.63 3.37-5.98 6.323-9.716 6.601-3.735.27-5.439-2.237-3.808-5.607 1.63-3.37 5.98-6.323 9.715-6.601 3.736-.278 5.44 2.237 3.809 5.607z" fill="#F9F4E1"/><path d="M71.211 77.008c1.63-3.37 5.98-6.323 9.716-6.601 1.769-.132 3.077.365 3.801 1.28-.65-1.12-2.054-1.755-4.02-1.61-3.736.271-8.086 3.232-9.716 6.602-.863 1.777-.79 3.312.014 4.335-.585-1.008-.563-2.412.205-4.006z" fill="#EDDFBA"/><path d="M85.598 75.283c-1.945 4.013-7.128 7.537-11.572 7.859-2.128.153-3.707-.446-4.555-1.565.782 1.309 2.45 2.047 4.767 1.872 4.452-.33 9.635-3.846 11.572-7.859 1.016-2.09.943-3.911.015-5.117.723 1.199.701 2.887-.227 4.81z" fill="#fff"/><path d="M84.457 80.342c.995-1.002 1.813-2.106 2.369-3.254.972-2.01.95-3.757.124-4.97l-1.016-1.5c-.015-.021-.03-.036-.044-.058-.022-.029-.044-.066-.066-.095.008.008.008.022.015.03-.848-1.134-2.42-1.755-4.569-1.594-2.515.183-5.27 1.389-7.537 3.136l8.012 8.297h2.712v.008z" fill="#DBC5A4"/><path d="M110.396 44.374L53.33 11.426c-.446-.256-.848-.27-1.162-.095l-.848.497.395.059c-.103.24-.161.54-.161.891v39.316c0 1.309.797 2.83 1.776 3.4l57.066 32.948c.109.065.212.11.314.139v.445l.855-.497h-.007c.38-.219.614-.723.614-1.44V47.774c0-1.309-.797-2.83-1.776-3.4z" fill="#fff"/><path d="M109.569 88.924L52.504 55.976c-.98-.57-1.776-2.09-1.776-3.4V13.255c0-1.309.796-1.916 1.776-1.345l57.065 32.948c.98.57 1.777 2.09 1.777 3.4v39.315c0 1.316-.797 1.915-1.777 1.352z" fill="#B8213C"/><path d="M92.558 46.896v-5.614l1.192.687c.226.132.424.263.585.41.168.146.314.307.446.49.131.182.226.387.292.613.066.227.095.476.095.746 0 .695-.241.943-.717.746.286.226.505.497.644.804.146.307.212.665.22 1.082 0 .534-.118.87-.344 1.016-.234.139-.57.088-1.017-.175l-1.396-.805zm.885-2.807l.278.161c.263.154.438.19.533.117.095-.073.146-.263.146-.563 0-.16-.014-.292-.05-.41a.857.857 0 00-.162-.314 1.141 1.141 0 00-.255-.24c-.096-.074-.22-.147-.373-.242l-.125-.073v1.564h.008zm0 2.603l.321.19c.264.153.446.19.549.102.102-.08.153-.292.153-.614 0-.336-.058-.614-.175-.833-.117-.22-.307-.402-.578-.563l-.278-.161v1.879h.008zm2.193 1.981l.987-5.044.92.533.988 6.185-.826-.475-.198-1.418-.84-.483-.198 1.192-.833-.49zm1.126-1.316l.65.373-.322-2.493-.329 2.12zm2.243 3.268V45.01l.607.351 1.192 3.867v-3.18l.731.424v5.615l-.578-.337-1.199-4.035v3.341l-.753-.431zm3.261 1.879v-5.615l.885.512v2.434l.957-1.886.848.49-.928 1.974 1.023 3.692-.884-.512-.841-3.122-.175.264v2.273l-.885-.504zm-35.785 3.384l-10.833-6.25v-1.455L66.48 54.44v1.447zm13.313 7.691L68.96 57.32v-1.447l10.834 6.257v1.448zm13.312 7.683l-10.827-6.25v-1.448l10.827 6.25v1.448zm13.32 7.691l-10.834-6.258v-1.448l10.834 6.258v1.448z" fill="#fff"/><path opacity=".2" d="M109.569 44.857L52.504 11.909c-.98-.57-1.776.036-1.776 1.345v39.315c0 .242.036.483.08.731 3.034-2.193 15.381-8.984 38.965 4.028 8.582 4.738 15.761 4.109 21.58 1.01v-10.09c-.007-1.3-.804-2.821-1.784-3.391z" fill="#fff"/><path opacity=".2" d="M74.377 42.861c8.012-1.03 14.709-3.487 20.272-6.616L52.504 11.91c-.98-.57-1.776.036-1.776 1.345V50.88c4.203-3.312 11.396-6.44 23.649-8.02z" fill="#fff"/><path d="M93.805 145.8l-.548.812c-.468-.797-1.25-1.543-2.347-2.186-3.852-2.252-10.117-2.274-13.992-.066-1.074.614-1.85 1.331-2.332 2.106l-.577-.753-.008 1.725c-.043 1.491.914 2.99 2.873 4.138 3.853 2.251 10.118 2.273 13.993.065 1.937-1.103 2.91-2.566 2.916-4.028l.022-1.813z" fill="#EDDFBA"/><path d="M93.81 145.798c.013-3.153-4.404-5.729-9.866-5.754-5.463-.024-9.903 2.512-9.917 5.665-.014 3.154 4.403 5.73 9.865 5.754 5.463.025 9.903-2.511 9.917-5.665z" fill="#fff"/><path d="M90.896 149.829c-3.874 2.215-10.14 2.185-13.992-.066-3.853-2.252-3.838-5.863.036-8.078 3.875-2.215 10.14-2.186 13.993.066 3.852 2.244 3.838 5.863-.037 8.078z" fill="#F0E6BA"/><path d="M83.958 150.633c-2.164 0-4.328-.483-5.972-1.441-1.594-.928-2.464-2.163-2.457-3.472.008-1.309.892-2.537 2.493-3.451 3.268-1.871 8.575-1.842 11.828.052 1.594.928 2.464 2.164 2.457 3.472-.008 1.309-.892 2.537-2.493 3.451-1.616.928-3.736 1.389-5.856 1.389zm-.087-9.592c-2.091 0-4.175.454-5.776 1.367-1.542.885-2.397 2.055-2.405 3.305-.007 1.25.84 2.434 2.376 3.326 3.21 1.871 8.436 1.893 11.66.051 1.543-.884 2.398-2.054 2.405-3.304.008-1.25-.84-2.435-2.376-3.326-1.615-.944-3.75-1.419-5.884-1.419z" fill="#EDDFBA"/><path d="M89.77 149.17c-3.253 1.857-8.51 1.835-11.748-.051-3.238-1.886-3.224-4.927.03-6.784 3.253-1.857 8.509-1.835 11.747.051 3.239 1.894 3.224 4.928-.029 6.784z" fill="#F9F4E1"/><path d="M78.052 142.737c3.253-1.857 8.509-1.835 11.747.051 1.528.892 2.332 2.04 2.413 3.202.095-1.294-.702-2.602-2.405-3.604-3.239-1.886-8.495-1.908-11.748-.051-1.71.98-2.53 2.288-2.442 3.582.088-1.162.9-2.302 2.435-3.18z" fill="#EDDFBA"/><path d="M90.896 149.448c-3.874 2.215-10.14 2.186-13.992-.066-1.842-1.074-2.8-2.463-2.873-3.867-.095 1.521.862 3.071 2.873 4.24 3.853 2.252 10.118 2.274 13.992.066 2.018-1.155 2.99-2.69 2.91-4.218-.088 1.403-1.06 2.785-2.91 3.845z" fill="#fff"/><path d="M109.805 145.8l-.548.812c-.468-.797-1.25-1.543-2.346-2.186-3.853-2.252-10.118-2.274-13.993-.066-1.074.614-1.85 1.331-2.332 2.106l-.577-.753-.008 1.725c-.043 1.491.914 2.99 2.873 4.138 3.853 2.251 10.118 2.273 13.993.065 1.937-1.103 2.909-2.566 2.917-4.028l.021-1.813z" fill="#EDDFBA"/><path d="M109.809 145.798c.014-3.153-4.403-5.729-9.865-5.754-5.463-.024-9.903 2.512-9.917 5.665-.014 3.154 4.403 5.73 9.865 5.754 5.463.025 9.903-2.511 9.917-5.665z" fill="#fff"/><path d="M106.896 149.829c-3.874 2.215-10.14 2.185-13.992-.066-3.853-2.252-3.838-5.863.036-8.078 3.875-2.215 10.14-2.186 13.993.066 3.852 2.244 3.838 5.863-.037 8.078z" fill="#F0E6BA"/><path d="M99.958 150.633c-2.164 0-4.328-.483-5.972-1.441-1.594-.928-2.464-2.163-2.457-3.472.008-1.309.892-2.537 2.493-3.451 3.268-1.871 8.575-1.842 11.829.052 1.593.928 2.463 2.164 2.456 3.472-.007 1.309-.892 2.537-2.493 3.451-1.616.928-3.736 1.389-5.856 1.389zm-.087-9.592c-2.091 0-4.175.454-5.776 1.367-1.542.885-2.397 2.055-2.405 3.305-.007 1.25.84 2.434 2.376 3.326 3.21 1.871 8.436 1.893 11.66.051 1.543-.884 2.398-2.054 2.405-3.304.008-1.25-.84-2.435-2.376-3.326-1.615-.944-3.75-1.419-5.884-1.419z" fill="#EDDFBA"/><path d="M105.77 149.17c-3.253 1.857-8.51 1.835-11.748-.051-3.238-1.886-3.224-4.927.03-6.784 3.253-1.857 8.509-1.835 11.747.051 3.239 1.894 3.224 4.928-.029 6.784z" fill="#F9F4E1"/><path d="M94.052 142.737c3.253-1.857 8.509-1.835 11.747.051 1.528.892 2.333 2.04 2.413 3.202.095-1.294-.702-2.602-2.405-3.604-3.239-1.886-8.495-1.908-11.748-.051-1.71.98-2.53 2.288-2.442 3.582.088-1.162.9-2.302 2.435-3.18z" fill="#EDDFBA"/><path d="M106.896 149.448c-3.874 2.215-10.14 2.186-13.992-.066-1.842-1.074-2.8-2.463-2.873-3.867-.095 1.521.862 3.071 2.873 4.24 3.853 2.252 10.118 2.274 13.992.066 2.018-1.155 2.99-2.69 2.91-4.218-.088 1.403-1.06 2.785-2.91 3.845z" fill="#fff"/><path d="M78.805 137.8l-.548.812c-.468-.797-1.25-1.543-2.347-2.186-3.852-2.252-10.117-2.274-13.992-.066-1.074.614-1.85 1.331-2.332 2.106l-.577-.753-.008 1.725c-.043 1.491.914 2.99 2.873 4.138 3.853 2.251 10.118 2.273 13.993.065 1.937-1.103 2.91-2.566 2.916-4.028l.022-1.813z" fill="#EDDFBA"/><path d="M78.81 137.798c.013-3.153-4.404-5.729-9.866-5.754-5.463-.024-9.903 2.512-9.917 5.665-.014 3.154 4.403 5.73 9.865 5.754 5.463.025 9.903-2.511 9.917-5.665z" fill="#fff"/><path d="M75.896 141.829c-3.874 2.215-10.14 2.185-13.992-.066-3.853-2.252-3.838-5.863.036-8.078 3.875-2.215 10.14-2.186 13.993.066 3.852 2.244 3.838 5.863-.037 8.078z" fill="#F0E6BA"/><path d="M68.958 142.633c-2.164 0-4.328-.483-5.972-1.441-1.594-.928-2.464-2.163-2.457-3.472.008-1.309.892-2.537 2.493-3.451 3.268-1.871 8.575-1.842 11.828.052 1.594.928 2.464 2.164 2.457 3.472-.008 1.309-.892 2.537-2.493 3.451-1.616.928-3.736 1.389-5.856 1.389zm-.087-9.592c-2.091 0-4.175.454-5.776 1.367-1.542.885-2.398 2.055-2.405 3.305-.007 1.25.84 2.434 2.376 3.326 3.21 1.871 8.436 1.893 11.66.051 1.543-.884 2.398-2.054 2.405-3.304.008-1.25-.84-2.435-2.376-3.326-1.615-.944-3.75-1.419-5.884-1.419z" fill="#EDDFBA"/><path d="M74.77 141.17c-3.253 1.857-8.51 1.835-11.748-.051-3.238-1.886-3.224-4.927.03-6.784 3.253-1.857 8.509-1.835 11.747.051 3.239 1.894 3.224 4.928-.029 6.784z" fill="#F9F4E1"/><path d="M63.052 134.737c3.253-1.857 8.509-1.835 11.747.051 1.528.892 2.332 2.04 2.413 3.202.095-1.294-.702-2.602-2.405-3.604-3.239-1.886-8.495-1.908-11.748-.051-1.71.98-2.53 2.288-2.442 3.582.088-1.162.9-2.302 2.435-3.18z" fill="#EDDFBA"/><path d="M75.896 141.448c-3.874 2.215-10.14 2.186-13.992-.066-1.842-1.074-2.8-2.463-2.873-3.867-.095 1.521.863 3.071 2.873 4.24 3.852 2.252 10.117 2.274 13.992.066 2.018-1.155 2.99-2.69 2.91-4.218-.088 1.403-1.06 2.785-2.91 3.845z" fill="#fff"/><path d="M96.805 136.8l-.548.812c-.468-.797-1.25-1.543-2.347-2.186-3.852-2.252-10.117-2.274-13.992-.066-1.074.614-1.85 1.331-2.332 2.106l-.577-.753-.008 1.725c-.043 1.491.914 2.99 2.873 4.138 3.853 2.251 10.118 2.273 13.993.065 1.937-1.103 2.91-2.566 2.916-4.028l.022-1.813z" fill="#EDDFBA"/><path d="M96.81 136.798c.013-3.153-4.404-5.729-9.866-5.754-5.463-.024-9.903 2.512-9.917 5.665-.014 3.154 4.403 5.73 9.865 5.754 5.463.025 9.903-2.511 9.917-5.665z" fill="#fff"/><path d="M93.896 140.829c-3.874 2.215-10.14 2.185-13.992-.066-3.853-2.252-3.838-5.863.036-8.078 3.875-2.215 10.14-2.186 13.993.066 3.852 2.244 3.838 5.863-.037 8.078z" fill="#F0E6BA"/><path d="M86.958 141.633c-2.164 0-4.328-.483-5.972-1.441-1.594-.928-2.464-2.163-2.457-3.472.008-1.309.892-2.537 2.493-3.451 3.268-1.871 8.575-1.842 11.828.052 1.594.928 2.464 2.164 2.457 3.472-.008 1.309-.892 2.537-2.493 3.451-1.616.928-3.736 1.389-5.856 1.389zm-.087-9.592c-2.091 0-4.175.454-5.776 1.367-1.542.885-2.397 2.055-2.405 3.305-.007 1.25.84 2.434 2.376 3.326 3.21 1.871 8.436 1.893 11.66.051 1.543-.884 2.398-2.054 2.405-3.304.008-1.25-.84-2.435-2.376-3.326-1.615-.944-3.75-1.419-5.884-1.419z" fill="#EDDFBA"/><path d="M92.77 140.17c-3.253 1.857-8.51 1.835-11.748-.051-3.238-1.886-3.224-4.927.03-6.784 3.253-1.857 8.509-1.835 11.747.051 3.239 1.894 3.224 4.928-.029 6.784z" fill="#F9F4E1"/><path d="M81.052 133.737c3.253-1.857 8.509-1.835 11.747.051 1.528.892 2.332 2.04 2.413 3.202.095-1.294-.702-2.602-2.405-3.604-3.239-1.886-8.495-1.908-11.748-.051-1.71.98-2.53 2.288-2.442 3.582.088-1.162.9-2.302 2.435-3.18z" fill="#EDDFBA"/><path d="M93.896 140.448c-3.874 2.215-10.14 2.186-13.992-.066-1.842-1.074-2.8-2.463-2.873-3.867-.095 1.521.862 3.071 2.873 4.24 3.853 2.252 10.118 2.274 13.992.066 2.018-1.155 2.99-2.69 2.91-4.218-.088 1.403-1.06 2.785-2.91 3.845z" fill="#fff"/><path d="M83.805 146.8l-.548.812c-.468-.797-1.25-1.543-2.347-2.186-3.852-2.252-10.117-2.274-13.992-.066-1.074.614-1.85 1.331-2.332 2.106l-.577-.753-.008 1.725c-.043 1.491.914 2.99 2.873 4.138 3.853 2.251 10.118 2.273 13.993.065 1.937-1.103 2.91-2.566 2.916-4.028l.022-1.813z" fill="#EDDFBA"/><path d="M83.81 146.798c.013-3.153-4.404-5.729-9.866-5.754-5.463-.024-9.903 2.512-9.917 5.665-.014 3.154 4.403 5.73 9.865 5.754 5.463.025 9.903-2.511 9.917-5.665z" fill="#fff"/><path d="M80.896 150.829c-3.874 2.215-10.14 2.185-13.992-.066-3.853-2.252-3.838-5.863.036-8.078 3.875-2.215 10.14-2.186 13.993.066 3.852 2.244 3.838 5.863-.037 8.078z" fill="#F0E6BA"/><path d="M73.958 151.633c-2.164 0-4.328-.483-5.972-1.441-1.594-.928-2.464-2.163-2.457-3.472.008-1.309.892-2.537 2.493-3.451 3.268-1.871 8.575-1.842 11.828.052 1.594.928 2.464 2.164 2.457 3.472-.008 1.309-.892 2.537-2.493 3.451-1.616.928-3.736 1.389-5.856 1.389zm-.087-9.592c-2.091 0-4.175.454-5.776 1.367-1.542.885-2.397 2.055-2.405 3.305-.007 1.25.84 2.434 2.376 3.326 3.21 1.871 8.436 1.893 11.66.051 1.543-.884 2.398-2.054 2.405-3.304.008-1.25-.84-2.435-2.376-3.326-1.615-.944-3.75-1.419-5.884-1.419z" fill="#EDDFBA"/><path d="M79.77 150.17c-3.253 1.857-8.51 1.835-11.748-.051-3.238-1.886-3.224-4.927.03-6.784 3.253-1.857 8.509-1.835 11.747.051 3.239 1.894 3.224 4.928-.029 6.784z" fill="#F9F4E1"/><path d="M68.052 143.737c3.253-1.857 8.509-1.835 11.747.051 1.528.892 2.332 2.04 2.413 3.202.095-1.294-.702-2.602-2.405-3.604-3.239-1.886-8.495-1.908-11.748-.051-1.71.98-2.53 2.288-2.442 3.582.088-1.162.9-2.302 2.435-3.18z" fill="#EDDFBA"/><path d="M80.896 150.448c-3.874 2.215-10.14 2.186-13.992-.066-1.842-1.074-2.8-2.463-2.873-3.867-.095 1.521.862 3.071 2.873 4.24 3.853 2.252 10.118 2.274 13.992.066 2.018-1.155 2.99-2.69 2.91-4.218-.088 1.403-1.06 2.785-2.91 3.845z" fill="#fff"/><path d="M95.555 141.648l-.548.811c-.468-.797-1.25-1.542-2.347-2.186-3.853-2.251-10.118-2.273-13.992-.066-1.075.614-1.85 1.331-2.332 2.106l-.578-.753-.007 1.725c-.044 1.491.914 2.99 2.873 4.138 3.853 2.251 10.118 2.273 13.992.066 1.937-1.104 2.91-2.566 2.917-4.028l.022-1.813z" fill="#EDDFBA"/><path d="M95.559 141.645c.014-3.153-4.403-5.729-9.866-5.753-5.462-.025-9.902 2.511-9.916 5.665-.014 3.153 4.402 5.729 9.865 5.754 5.463.024 9.903-2.512 9.917-5.666z" fill="#fff"/><path d="M92.646 145.676c-3.875 2.215-10.14 2.186-13.993-.066-3.852-2.252-3.838-5.863.037-8.078 3.874-2.215 10.14-2.186 13.992.066 3.853 2.244 3.838 5.863-.036 8.078z" fill="#F0E6BA"/><path d="M85.708 146.48c-2.164 0-4.328-.483-5.973-1.44-1.594-.929-2.463-2.164-2.456-3.473.007-1.308.892-2.537 2.493-3.45 3.267-1.872 8.575-1.843 11.828.051 1.594.928 2.464 2.164 2.456 3.472-.007 1.309-.891 2.537-2.492 3.451-1.616.928-3.736 1.389-5.856 1.389zm-.088-9.592c-2.09 0-4.174.454-5.775 1.368-1.543.884-2.398 2.054-2.405 3.304-.008 1.25.84 2.434 2.376 3.326 3.209 1.872 8.436 1.894 11.66.051 1.542-.884 2.398-2.054 2.405-3.304.007-1.25-.84-2.434-2.376-3.326-1.616-.943-3.75-1.419-5.885-1.419z" fill="#EDDFBA"/><path d="M91.52 145.018c-3.253 1.856-8.51 1.835-11.748-.052-3.239-1.886-3.224-4.927.03-6.784 3.252-1.856 8.508-1.835 11.747.052 3.238 1.893 3.224 4.927-.03 6.784z" fill="#F9F4E1"/><path d="M79.801 138.584c3.253-1.856 8.51-1.834 11.748.052 1.528.891 2.332 2.039 2.412 3.202.096-1.294-.701-2.603-2.405-3.604-3.238-1.887-8.494-1.908-11.748-.052-1.71.98-2.529 2.289-2.441 3.582.087-1.162.899-2.302 2.434-3.18z" fill="#EDDFBA"/><path d="M92.646 145.295c-3.875 2.215-10.14 2.186-13.993-.065-1.842-1.075-2.8-2.464-2.873-3.868-.095 1.521.863 3.071 2.873 4.24 3.853 2.252 10.118 2.274 13.993.066 2.017-1.155 2.99-2.69 2.91-4.218-.089 1.404-1.06 2.785-2.91 3.845z" fill="#fff"/><path d="M90.737 137.204l-.499.843c-.515-.767-1.34-1.464-2.474-2.04-3.982-2.014-10.237-1.658-13.97.78-1.036.678-1.766 1.44-2.201 2.243l-.622-.717.097 1.722c.046 1.492 1.093 2.93 3.118 3.957 3.981 2.015 10.236 1.658 13.97-.78 1.867-1.219 2.75-2.737 2.668-4.197l-.087-1.811z" fill="#EDDFBA"/><path d="M90.74 137.202c-.176-3.148-4.74-5.453-10.195-5.147-5.454.305-9.733 3.105-9.556 6.254.176 3.148 4.74 5.453 10.195 5.147 5.454-.306 9.732-3.106 9.556-6.254z" fill="#fff"/><path d="M88.076 141.401c-3.733 2.445-9.989 2.795-13.97.78-3.982-2.015-4.186-5.62-.452-8.066 3.734-2.445 9.989-2.794 13.97-.779 3.982 2.007 4.186 5.62.452 8.065z" fill="#F0E6BA"/><path d="M81.2 142.623c-2.16.13-4.35-.221-6.05-1.077-1.646-.83-2.59-2.011-2.66-3.318-.073-1.306.736-2.586 2.279-3.595 3.149-2.065 8.448-2.357 11.81-.663 1.647.83 2.59 2.011 2.661 3.317.072 1.307-.737 2.586-2.28 3.595-1.556 1.025-3.644 1.612-5.76 1.741zm-.668-9.569c-2.087.126-4.139.705-5.682 1.714-1.486.976-2.269 2.195-2.2 3.443.067 1.248.985 2.379 2.572 3.177 3.316 1.674 8.535 1.38 11.642-.654 1.486-.976 2.269-2.195 2.2-3.443-.067-1.249-.985-2.379-2.572-3.177-1.67-.844-3.829-1.189-5.96-1.06z" fill="#EDDFBA"/><path d="M86.912 140.812c-3.135 2.05-8.382 2.346-11.729.659-3.347-1.687-3.516-4.724-.38-6.774 3.134-2.05 8.382-2.345 11.729-.658 3.347 1.694 3.516 4.723.38 6.773z" fill="#F9F4E1"/><path d="M74.826 135.099c3.135-2.05 8.383-2.346 11.73-.659 1.579.798 2.45 1.895 2.601 3.05.017-1.297-.858-2.555-2.618-3.452-3.347-1.687-8.595-1.391-11.73.659-1.648 1.081-2.386 2.437-2.22 3.723.017-1.165.758-2.353 2.237-3.321z" fill="#EDDFBA"/><path d="M88.053 141.021c-3.733 2.445-9.989 2.795-13.97.78-1.904-.961-2.944-2.29-3.102-3.686-.003 1.523 1.047 3.012 3.124 4.058 3.982 2.015 10.237 1.658 13.97-.78 1.945-1.274 2.823-2.866 2.65-4.386-.003 1.407-.89 2.844-2.672 4.014z" fill="#fff"/><path d="M87.308 101.579l-.87.438c-.014-.921-.328-1.959-.965-3.055-2.244-3.853-7.683-6.967-12.15-6.945-1.235.007-2.266.248-3.063.687l-.131-.943-.855 1.498h.007c-.775 1.272-.68 3.056.468 5.015 2.244 3.853 7.683 6.967 12.15 6.945 2.23-.007 3.794-.797 4.518-2.069l.891-1.571z" fill="#EDDFBA"/><path d="M87.31 101.575c1.565-2.737-1.011-7.154-5.754-9.866-4.743-2.71-9.856-2.69-11.421.048-1.565 2.738 1.011 7.155 5.754 9.866 4.742 2.711 9.856 2.69 11.42-.048z" fill="#fff"/><path d="M82.79 103.647c-4.459.022-9.898-3.092-12.15-6.945-2.244-3.852-.453-6.996 4.007-7.01 4.46-.022 9.898 3.092 12.15 6.945 2.251 3.852.453 6.988-4.006 7.01z" fill="#F0E6BA"/><path d="M76.357 100.935c-1.886-1.067-3.53-2.551-4.488-4.196-.929-1.594-1.082-3.1-.432-4.233.65-1.14 2.025-1.769 3.868-1.776 3.764-.015 8.37 2.617 10.27 5.87.93 1.594 1.083 3.092.432 4.233-.65 1.14-2.025 1.769-3.867 1.776-1.864.008-3.94-.628-5.783-1.674zM81 92.55c-1.82-1.03-3.86-1.66-5.694-1.652-1.784.007-3.1.607-3.722 1.696-.62 1.082-.467 2.53.432 4.065 1.871 3.209 6.411 5.804 10.125 5.789 1.784-.007 3.1-.606 3.72-1.696.622-1.081.469-2.529-.43-4.064-.944-1.623-2.574-3.093-4.43-4.138z" fill="#EDDFBA"/><path d="M82.14 102.529c-3.743.015-8.312-2.595-10.198-5.826-1.886-3.239-.38-5.87 3.363-5.885 3.742-.015 8.311 2.595 10.198 5.826 1.886 3.231.38 5.87-3.363 5.885z" fill="#F9F4E1"/><path d="M75.107 91.154c3.743-.015 8.312 2.595 10.198 5.827.892 1.527 1.024 2.924.52 3.976.723-1.074.672-2.617-.322-4.32-1.886-3.239-6.455-5.849-10.198-5.827-1.974.008-3.327.746-3.89 1.916.651-.972 1.923-1.565 3.692-1.572z" fill="#EDDFBA"/><path d="M82.973 103.318c-4.46.022-9.898-3.092-12.15-6.944-1.074-1.843-1.22-3.524-.6-4.781-.832 1.279-.76 3.092.41 5.102 2.245 3.853 7.684 6.967 12.15 6.945 2.325-.007 3.926-.87 4.606-2.237-.753 1.184-2.281 1.908-4.416 1.915z" fill="#fff"/><path d="M85.4 118.89l-.073.972c-.804-.461-1.849-.724-3.114-.746-4.46-.058-9.927 3.012-12.2 6.843-.63 1.06-.951 2.069-.988 2.975l-.87-.373.848 1.506v-.007c.695 1.316 2.266 2.149 4.54 2.179 4.46.058 9.928-3.012 12.201-6.843 1.14-1.915 1.265-3.663.549-4.942l-.892-1.564z" fill="#EDDFBA"/><path d="M84.845 123.832c-2.281 3.838-7.742 6.901-12.201 6.842-4.46-.058-6.229-3.209-3.955-7.047 2.28-3.838 7.741-6.901 12.2-6.843 4.468.051 6.237 3.21 3.956 7.048z" fill="#fff"/><path d="M84.845 123.832c-2.281 3.838-7.742 6.901-12.201 6.842-4.46-.058-6.229-3.209-3.955-7.047 2.28-3.838 7.741-6.901 12.2-6.843 4.468.051 6.237 3.21 3.956 7.048z" fill="#fff"/><path d="M79.209 127.947c-1.886 1.068-4.006 1.718-5.907 1.696-1.842-.022-3.21-.665-3.853-1.813-.643-1.147-.475-2.646.468-4.232 1.923-3.239 6.55-5.834 10.323-5.79 1.842.022 3.209.665 3.852 1.813.643 1.147.475 2.646-.468 4.232-.95 1.601-2.566 3.049-4.415 4.094zm-4.803-8.297c-1.82 1.031-3.414 2.456-4.35 4.035-.906 1.528-1.075 2.976-.46 4.065.614 1.089 1.93 1.703 3.706 1.725 3.714.044 8.275-2.515 10.176-5.702.907-1.528 1.075-2.975.46-4.065-.614-1.089-1.93-1.703-3.706-1.725-1.871-.029-3.97.614-5.826 1.667z" fill="#EDDFBA"/><path d="M83.551 123.809c-1.915 3.217-6.499 5.79-10.25 5.746-3.742-.043-5.234-2.697-3.318-5.914 1.915-3.216 6.499-5.79 10.25-5.746 3.75.052 5.233 2.698 3.318 5.914z" fill="#fff"/><path d="M70.18 123.993c1.916-3.217 6.5-5.79 10.25-5.747 1.769.022 3.033.629 3.677 1.601-.549-1.169-1.894-1.922-3.868-1.944-3.743-.044-8.334 2.529-10.249 5.746-1.009 1.696-1.075 3.231-.358 4.32-.497-1.06-.35-2.456.548-3.976z" fill="#EDDFBA"/><path d="M84.663 123.503c-2.281 3.838-7.742 6.901-12.202 6.842-2.134-.029-3.647-.767-4.408-1.944.673 1.374 2.26 2.244 4.591 2.273 4.46.059 9.928-3.012 12.201-6.842 1.192-2.003 1.272-3.816.454-5.103.614 1.257.453 2.939-.636 4.774z" fill="#fff"/><path d="M26.822 118.934a1.92 1.92 0 01-.972-.264L.234 103.889a.464.464 0 01-.234-.402c0-.169.088-.322.234-.41l22.655-13.078.227.395L.46 103.472l25.615 14.811a1.51 1.51 0 001.492 0l15.278-8.787a1.94 1.94 0 011.952.007l6.258 3.655-.226.395-6.258-3.655a1.5 1.5 0 00-1.499-.007l-15.279 8.794c-.3.168-.636.249-.972.249z" fill="#B8213C"/><path d="M141.289 97.134l-23.846-25.609-23.847-1.93s-3.83 32.327 23.847 66.613c27.684-2.324 23.846-39.074 23.846-39.074z" fill="#E3CDAC"/><path d="M93.603 69.596l-5.366 3.1 23.847 1.93 5.366-3.1-23.847-1.93z" fill="#FFF8EE"/><path d="M135.931 100.234l-23.847-25.609-9.803-.994-14.044-.936s-3.83 32.327 23.847 66.613c27.677-2.325 23.847-39.074 23.847-39.074z" fill="#E2DDD7"/><path d="M135.931 100.234l-23.847-25.609-23.847-1.93.673-.387 24.161 1.951 23.847 25.609s3.202 30.719-17.414 37.766c19.519-7.676 16.427-37.4 16.427-37.4z" fill="#fff"/><path opacity=".2" d="M133.036 100.628l-21.442-23.02-8.816-.892-12.626-.841s-3.443 29.066 21.442 59.895c24.885-2.099 21.442-35.142 21.442-35.142z" fill="#fff"/></g><defs><clipPath id="clip0_230_2393"><path fill="#fff" d="M0 0h172.059v171.24H0z"/></clipPath></defs></svg>