<svg width="143" height="156" fill="none" xmlns="http://www.w3.org/2000/svg"><g clip-path="url(#clip0_232_3211)"><path opacity=".5" d="M140.544 130.944l-41.721 24.095c-1.861 1.078-4.685 1.192-6.3.259L1.09 102.508c-1.614-.933-1.409-2.56.452-3.637l41.721-24.095c1.86-1.078 4.685-1.192 6.3-.259l91.439 52.796c1.607.927 1.409 2.553-.458 3.631z" fill="#F3F3F3"/><path d="M142.085 115.817l-8.593-1.494-83.936-48.465c-1.614-.934-4.432-.814-6.3.258L4.379 88.58 0 87.814v4.444h.006c-.006.597.35 1.163 1.084 1.59l91.44 52.796c1.613.933 4.432.813 6.299-.259l41.721-24.094c1.035-.597 1.553-1.367 1.541-2.09v-4.384h-.006z" fill="#E4DCD1"/><path d="M140.544 117.87l-41.721 24.095c-1.861 1.078-4.685 1.192-6.3.259L1.09 89.434c-1.614-.933-1.409-2.56.452-3.637l41.721-24.095c1.86-1.078 4.685-1.192 6.3-.259l91.439 52.796c1.607.927 1.409 2.553-.458 3.631z" fill="#3F3F3F"/><path d="M140.544 117.304l-41.721 24.095c-1.861 1.077-4.685 1.192-6.3.258L1.09 88.867c-.608-.348-.957-.8-1.06-1.288-.126.693.217 1.367 1.06 1.855l91.44 52.796c1.614.933 4.432.813 6.299-.259l41.721-24.095c1.162-.668 1.674-1.553 1.511-2.348-.12.626-.626 1.264-1.517 1.776z" fill="#fff"/><path d="M140.61 114.01l-48.466 27.991L1.481 89.657l48.466-27.991 90.663 52.344z" fill="#B7B7B7"/><path d="M28.654 72.626l-6.438 3.716c-.277.162-.705.18-.946.042l-.066-.036c-.24-.138-.21-.385.066-.548l6.438-3.716c.277-.162.705-.18.946-.036l.066.036c.247.133.21.38-.066.542zM13.285 90.115l-.813.47-1.927-1.115.813-.47 1.927 1.115zm1.499-.868l-.813.47-1.927-1.108.813-.47 1.928 1.108zm1.493-.861l-.813.47-1.92-1.114.812-.47 1.921 1.114zm1.5-.867l-.813.47-1.927-1.108.813-.47 1.927 1.108zM45.298 6.823a2.866 2.866 0 110 5.733 2.866 2.866 0 110-5.733z" fill="#fff"/><path d="M36.049 6.823a2.866 2.866 0 110 5.733 2.866 2.866 0 110-5.733z" fill="#E7B7BF"/><path opacity=".5" d="M26.805 6.823a2.866 2.866 0 110 5.733 2.866 2.866 0 110-5.733z" fill="#E7B7BF"/><path opacity=".1" d="M17.555 6.823a2.866 2.866 0 110 5.733 2.866 2.866 0 110-5.733z" fill="#E7B7BF"/><path opacity=".6" d="M61.275 104.881c8.946 0 16.199-4.188 16.199-9.353s-7.253-9.352-16.2-9.352c-8.946 0-16.199 4.187-16.199 9.352s7.253 9.353 16.2 9.353z" fill="#999"/><path d="M61.275 110.168c-6.438 0-12.882-1.415-17.784-4.245-4.793-2.765-7.43-6.456-7.43-10.395 0-3.938 2.637-7.624 7.43-10.388 9.804-5.66 25.757-5.66 35.567 0 4.793 2.764 7.431 6.456 7.431 10.394 0 3.933-2.638 7.624-7.431 10.389-4.908 2.83-11.346 4.245-17.783 4.245zm0-28.852c-6.36 0-12.725 1.397-17.567 4.192-4.649 2.686-7.214 6.245-7.214 10.014 0 3.776 2.559 7.329 7.214 10.015 9.684 5.595 25.45 5.595 35.133 0 4.649-2.686 7.215-6.245 7.215-10.015 0-3.775-2.56-7.329-7.215-10.014-4.848-2.788-11.207-4.192-17.566-4.192z" fill="#fff"/><path d="M111.54 46.136L88.903 21.83 66.266 20s-3.638 30.689 22.637 63.238c26.274-2.21 22.637-37.102 22.637-37.102z" fill="#E3CDAC"/><path d="M66.266 20l-5.095 2.939 22.637 1.83 5.095-2.938L66.266 20z" fill="#FFF8EE"/><path d="M106.445 49.08L83.808 24.77l-9.31-.94-13.327-.891s-3.637 30.688 22.637 63.238c26.274-2.21 22.637-37.096 22.637-37.096z" fill="#E2DDD7"/><path d="M106.445 49.08L83.808 24.77l-22.637-1.831.639-.367 22.938 1.854 22.637 24.305s3.035 29.166-16.53 35.85c18.529-7.28 15.59-35.5 15.59-35.5z" fill="#fff"/><path opacity=".2" d="M103.699 49.454L83.345 27.6l-8.37-.843-11.985-.801S59.72 53.549 83.345 82.81c23.624-1.987 20.354-33.356 20.354-33.356z" fill="#fff"/><path d="M44.424 35.824l-.8-.8-.801.8.8.8.801-.8zm2.894-.012l-.8-.8-.801.8.8.8.801-.8zm-1.443-1.438l-.8-.8-.8.8.8.8.8-.8zm-.008 2.889l-.801-.8-.8.8.8.8.8-.8zm43.838 71.954a.214.214 0 01-.102-.024l-8.335-4.812a.204.204 0 01-.072-.277c.054-.096.174-.127.277-.072l8.334 4.811a.204.204 0 01.073.277.217.217 0 01-.175.097z" fill="#fff"/><g clip-path="url(#clip1_232_3211)"><path d="M85.314 111.797c.7-.404 1.59-.679 2.56-.79a8.476 8.476 0 012.889.164c.913.219 1.694.589 2.244 1.063.55.475.842 1.033.842 1.604 0 .571-.293 1.129-.842 1.604-.55.474-1.33.844-2.244 1.063a8.45 8.45 0 01-2.889.164c-.97-.111-1.86-.386-2.56-.79-.938-.541-1.465-1.275-1.465-2.041 0-.765.527-1.5 1.465-2.041zm-1.414-.816c-.98.565-1.646 1.285-1.916 2.069s-.131 1.596.398 2.335c.53.738 1.427 1.369 2.578 1.813 1.152.444 2.505.681 3.89.681 1.384 0 2.737-.237 3.888-.681 1.152-.444 2.049-1.075 2.579-1.813.53-.739.668-1.551.398-2.335s-.937-1.504-1.916-2.069c-1.313-.758-3.093-1.184-4.95-1.184-1.856 0-3.637.426-4.95 1.184zm26.87 7.347l-1.414.817-3.536-2.041c-.938-.542-2.209-.846-3.536-.846-1.326 0-2.597.304-3.535.846l-4.243 2.449c-.937.541-1.464 1.276-1.464 2.041 0 .766.527 1.5 1.464 2.041l3.536 2.041-1.414.817-3.536-2.041c-1.313-.758-2.05-1.786-2.05-2.858s.737-2.099 2.05-2.857l4.243-2.45c1.313-.757 3.093-1.183 4.949-1.183 1.857 0 3.637.426 4.95 1.183l3.536 2.041zm-18.385-10.613l7.071-4.082 1.414.816-7.07 4.082-1.415-.816zm3.535 2.041l7.072-4.082 1.414.816-7.071 4.082-1.414-.816zm3.536 2.041l4.95-2.857 1.414.816-4.95 2.857-1.414-.816z" fill="#fff"/></g><path d="M111.876 83.569l-20.964-12.21c-4.152-2.396-8.07-2.775-11.029-1.069-2.957 1.706-4.588 5.29-4.588 10.087v1.536c.145.1.303.196.461.297v-1.833c0-4.626 1.549-8.065 4.355-9.689 2.812-1.624 6.56-1.245 10.567 1.068l20.964 12.21a.234.234 0 00.316-.081.223.223 0 00-.082-.316zM46.494 69.026v-47.25c0-9.454-6.661-21.001-14.852-25.729-4.013-2.313-7.8-2.68-10.656-1.03-2.857 1.65-4.43 5.113-4.43 9.74v3.292l.461.462V4.756c0-4.462 1.492-7.78 4.203-9.34 2.711-1.562 6.326-1.195 10.194 1.03C39.48 1.102 46.04 12.46 46.04 21.775v47.25c0 7.837 4.614 17.115 10.87 22.702v-.62c-6.022-5.523-10.415-14.485-10.415-22.082z" fill="#fff"/><path d="M56.942 91.532s-5.34-5.435-7.414-9.916c-2.08-4.481-3.154-8.633-3.191-12.33-.038-3.698-.07-35.501-.07-35.501s.227-13.184-.329-15.27c-.556-2.079-1.864-13.19-12.741-21.166-10.877-7.976-16.312.626-16.25 5.126.064 4.494 0 7.376 0 7.376s5.96 4.822 8.21 11.71c2.25 6.89 2.465 5.695 2.503 12.546.038 6.851.07 41.618.07 41.618s-.506 6.106 1.017 10.833c1.517 4.728 4.254 9.96 7.496 13.393 3.242 3.431 8.027 7.483 12.45 7.084 4.425-.398 7.402-2.028 8.249-9.031v-6.472z" fill="#fff"/><path d="M20.986-4.983L2.651 5.585l14.297 4.26 4.038-14.828z" fill="#fff"/><path d="M75.295 81.913v2.123c-1.017-.74-5.814-4.013-10.371-3.855-5.132.183-6.851 4.88-6.851 4.88s-1.214 3.507-1.125 5.15c.013.285.032.62.044.973-.031-.025-.057-.05-.088-.075v.619c.031.032.07.057.107.089.044 1.58.057 3.324.057 3.324s.044 3.128-.398 5.189c-.797 3.697-3.931 5.802-4.172 6.124l18.816-10.833a.19.19 0 00.05-.025c.025-.013.05-.032.076-.05l.095-.058.013-.012c2.723-1.681 4.221-5.063 4.221-9.556v-3.71a5.572 5.572 0 01-.474-.297z" fill="#ECDDC5"/><path d="M60.633 81.432L79.884 70.29s3.28-1.725 7.25-.272c3.968 1.454 24.768 13.93 24.768 13.93L93.321 94.654s-21.59-13.38-24.124-14.05c-5.202-1.371-8.564.828-8.564.828z" fill="#fff"/><path d="M16.55 9.497c-.76-.721-4.299-3.843-9.468-4.633-5.853-.898-8.267 5.947-8.267 5.947s-.676 3.552-.651 5.657c.025 2.104.177 9.739.177 9.739l18.543-10.681a.225.225 0 00.127-.202V9.9c-.152-.158-.304-.246-.462-.404z" fill="#ECDDC5"/><path d="M48.877 107.295c-2.047 0-4.31-.683-6.649-2.036-8.134-4.695-14.745-16.154-14.745-25.54V32.465c0-9.31-6.56-20.673-14.624-25.331C8.997 4.902 5.376 4.535 2.67 6.103c-2.712 1.567-4.203 4.879-4.203 9.34v10.562a.233.233 0 11-.468 0V15.444c0-4.633 1.574-8.09 4.43-9.74 2.857-1.649 6.643-1.282 10.656 1.03 8.191 4.728 14.853 16.275 14.853 25.73v47.25c0 9.24 6.51 20.521 14.517 25.141 3.836 2.212 7.426 2.579 10.112 1.024 2.686-1.555 4.172-4.848 4.172-9.272v-5.543c0-4.796 1.63-8.38 4.588-10.086 2.958-1.707 6.876-1.328 11.028 1.068l20.965 12.21a.233.233 0 01.082.316.229.229 0 01-.316.082l-20.964-12.21c-4.007-2.313-7.755-2.693-10.568-1.068C58.742 83 57.2 86.438 57.2 91.064v5.543c0 4.601-1.561 8.033-4.399 9.67-1.17.683-2.496 1.018-3.925 1.018z" fill="#fff"/><path d="M32.464 42.842v-1.669l1.947-1.119v1.663l-1.947 1.125zm5.492-6.289v-1.668l3.703-2.137v1.669l-3.703 2.136zm-5.303-.348v-1.668l9.007-5.202v1.669l-9.007 5.201zm3.129 4.722v-1.669l7.52-4.342v1.669l-7.52 4.342zm-3.129-1.309V37.95l3.704-2.143v1.669l-3.704 2.142zm2.181 19.454v1.668l-2.282 1.315v-1.669l2.282-1.314zm4.152-2.396v1.669l-2.282 1.314v-1.668l2.282-1.315zm2.49-4.556v1.668l-8.816 5.088v-1.669l8.816-5.087zm-4.398-5.278v-1.668l4.398-2.54v1.668l-4.398 2.54zm-4.526 2.61v-1.668l2.282-1.315v1.669l-2.282 1.314zm0 3.123v-1.669l4.342-2.509v1.669l-4.342 2.509zm6.098-3.521v-1.668l2.826-1.63v1.662l-2.825 1.636zm-1.572 17.21v-1.668l4.398-2.541v1.669l-4.398 2.54zm-4.526 2.61v-1.668l2.282-1.315v1.669l-2.282 1.314zm0 3.122v-1.668l4.342-2.51v1.67l-4.342 2.508zm6.098-3.52v-1.668l2.826-1.631v1.668l-2.825 1.631zm46.195 15.585l-1.441-.834 1.946-1.125 1.441.835-1.946 1.124zm2.794-4.733L86.19 78.5l3.71-2.143 1.441.835-3.703 2.136zm-8.255 1.359l-1.447-.835 9.013-5.201 1.44.834-9.006 5.202zm8.785 1.46l-1.447-.835 7.52-4.341 1.442.834-7.515 4.342zm-5.833.246l-1.447-.834 3.71-2.143 1.44.835-3.703 2.142z" fill="#ECDDC5"/></g><defs><clipPath id="clip0_232_3211"><path fill="#fff" d="M0 0h142.085v155.93H0z"/></clipPath><clipPath id="clip1_232_3211"><path fill="#fff" transform="scale(1.22477 .70706) rotate(-45 226.648 8.434)" d="M0 0h26.127v26.127H0z"/></clipPath></defs></svg>