<svg width="148" height="165" fill="none" xmlns="http://www.w3.org/2000/svg"><g clip-path="url(#clip0_232_2738)"><path opacity=".5" d="M145.939 138.936l-43.319 25.021c-1.934 1.119-4.86 1.239-6.535.272L1.131 109.408c-1.675-.967-1.466-2.654.468-3.773l43.318-25.021c1.934-1.12 4.86-1.24 6.535-.272l94.954 54.821c1.681.967 1.467 2.661-.467 3.773z" fill="#F3F3F3"/><path d="M147.544 120.538l-8.924-1.555-87.161-50.315c-1.675-.967-4.601-.846-6.535.272L4.55 92.262 0 91.465v4.62h.006c-.006.62.367 1.208 1.125 1.65l94.954 54.821c1.675.967 4.601.847 6.535-.272l43.319-25.021c1.074-.62 1.617-1.416 1.599-2.168v-4.557h.006z" fill="#E4DCD1"/><path d="M145.939 122.674l-43.319 25.022c-1.934 1.118-4.86 1.238-6.535.271L1.131 93.147c-1.675-.968-1.466-2.655.468-3.774l43.318-25.021c1.934-1.119 4.86-1.239 6.535-.272l94.954 54.821c1.681.967 1.467 2.655-.467 3.773z" fill="#3F3F3F"/><path d="M145.939 122.086l-43.318 25.022c-1.934 1.119-4.86 1.239-6.535.272L1.132 92.559c-.632-.367-.999-.835-1.1-1.334-.133.714.221 1.422 1.1 1.928l94.953 54.821c1.675.967 4.602.847 6.536-.272l43.318-25.022c1.201-.695 1.738-1.611 1.567-2.439-.12.651-.644 1.308-1.567 1.845z" fill="#fff"/><path d="M146.008 118.667l-50.327 29.067L1.536 93.38l50.328-29.066 94.144 54.353z" fill="#B7B7B7"/><path d="M29.755 75.69l-6.686 3.862c-.291.17-.727.183-.98.038l-.07-.038c-.252-.146-.22-.398.07-.569l6.687-3.862c.29-.17.727-.183.98-.037l.069.037c.253.152.221.405-.07.57z" fill="#fff"/><path opacity=".4" d="M140.775 50.182L72.612 89.537c-1.371.79-3.438.879-4.626.19L26.254 65.635c-1.189-.683-1.037-1.877.335-2.667L94.75 23.612c1.372-.79 3.439-.878 4.627-.19l41.732 24.093c1.182.682 1.03 1.877-.335 2.667z" fill="#fff"/><path opacity=".2" d="M133.627 50.985L73.997 85.41c-1.195.69-3.009.765-4.046.171L33.44 64.503c-1.036-.6-.904-1.643.29-2.338l59.631-34.426c1.195-.689 3.009-.765 4.045-.17l36.512 21.077c1.036.6.91 1.643-.291 2.339z" fill="#041860"/><path d="M69.996 90.429c-.797 0-1.562-.158-2.13-.493L26.134 65.843c-.594-.341-.923-.828-.923-1.371 0-.632.455-1.258 1.251-1.72l68.163-39.355c1.435-.828 3.615-.916 4.867-.19L141.224 47.3c.594.341.922.828.922 1.371 0 .632-.455 1.258-1.251 1.72L72.732 89.745c-.777.449-1.782.683-2.736.683zm27.366-67.234c-.866 0-1.782.208-2.497.625L26.71 63.17c-.645.373-1.011.847-1.011 1.302 0 .36.24.695.682.954L68.112 89.52c1.119.644 3.084.556 4.386-.19l68.163-39.356c.645-.373 1.011-.847 1.011-1.302 0-.36-.24-.695-.682-.948L99.258 23.631c-.512-.29-1.182-.436-1.896-.436z" fill="#fff"/><path d="M141.907 38.686l-.759.6c-.012-.006-.025-.019-.044-.025L99.372 15.168c-1.188-.682-3.255-.6-4.626.19L26.589 54.701c-.158.095-.303.19-.43.29l-.701-.518v1.707h.006c-.012.442.247.872.797 1.188L67.993 81.46c1.188.683 3.255.6 4.626-.19l68.163-39.355c.752-.43 1.131-.986 1.131-1.51v-1.72h-.006z" fill="#fff"/><path d="M140.775 40.19L72.612 79.545c-1.371.79-3.438.879-4.626.19L26.254 55.642c-1.189-.682-1.037-1.877.335-2.667L94.75 13.62c1.372-.79 3.439-.879 4.627-.19l41.732 24.093c1.182.682 1.03 1.877-.335 2.667z" fill="#5D9AD2"/><g clip-path="url(#clip1_232_2738)"><path d="M108.876 29.406l-9.645-2.227a2.312 2.312 0 00-.782-.042 1.83 1.83 0 00-.693.214l-2.894 1.67-1.928-1.113c-.256-.147-.603-.23-.965-.23s-.709.083-.964.23L72.68 38.488c-.256.147-.4.347-.4.556 0 .209.144.41.4.557l16.396 9.465c.256.148.602.23.964.23s.709-.082.965-.23l2.064-1.191c1.039.343 2.245.48 3.432.388 1.188-.091 2.29-.406 3.137-.895.846-.489 1.391-1.125 1.55-1.81.158-.685-.079-1.382-.674-1.982l6.057-3.496c1.039.343 2.246.48 3.433.388 1.187-.091 2.289-.406 3.136-.895s1.392-1.125 1.55-1.81c.159-.685-.078-1.382-.673-1.982l2.064-1.191c.256-.148.399-.348.399-.557 0-.209-.143-.41-.399-.557l-6.752-3.897a1.659 1.659 0 00-.453-.173zm-12.085.73l2.257-1.303 6.887 1.592-4.321 2.494-4.823-2.784zm.965 16.146c-.382.22-.868.37-1.397.431a4.61 4.61 0 01-1.576-.09c-.498-.119-.924-.32-1.224-.58-.3-.258-.46-.563-.46-.874 0-.312.16-.616.46-.875.3-.26.726-.461 1.224-.58a4.615 4.615 0 011.576-.09c.53.06 1.015.21 1.397.431.511.295.799.696.799 1.114 0 .417-.288.818-.8 1.113zm6.886-7.316l-6.057 3.497c-1.039-.344-2.245-.48-3.432-.39-1.188.092-2.29.407-3.137.896-.847.489-1.391 1.125-1.55 1.81-.158.686.079 1.382.674 1.982l-1.1.635-14.467-8.352 16.396-9.465 12.114 6.993c-.184.4-.23.818-.134 1.23.096.41.332.806.693 1.164zm6.616-.479c-.381.22-.867.37-1.396.431a4.61 4.61 0 01-1.576-.09c-.499-.119-.925-.32-1.225-.58-.299-.258-.459-.563-.459-.874 0-.312.16-.616.459-.875.3-.26.726-.461 1.225-.58a4.613 4.613 0 011.576-.09c.529.06 1.015.21 1.396.431.512.295.799.696.799 1.114 0 .417-.287.818-.799 1.113zm1.929-4.454l-1.099.635c-1.039-.354-2.253-.499-3.45-.412-1.197.086-2.31.4-3.166.89l-1.929-1.113 4.822-2.784 4.822 2.784z" fill="#fff"/></g><path d="M139.333 89.57L118.37 77.358c-4.153-2.396-8.071-2.775-11.029-1.069-2.958 1.707-4.589 5.29-4.589 10.087v1.536c.146.101.304.196.462.297v-1.833c0-4.626 1.548-8.064 4.354-9.688 2.813-1.625 6.561-1.245 10.568 1.068l20.964 12.21a.235.235 0 00.316-.082.224.224 0 00-.083-.316zM73.952 75.026V27.777c0-9.455-6.662-21.002-14.853-25.73C55.086-.264 51.3-.631 48.444 1.018c-2.857 1.65-4.43 5.114-4.43 9.74v3.293l.46.461v-3.754c0-4.462 1.492-7.78 4.204-9.341 2.71-1.561 6.326-1.195 10.194 1.03 8.064 4.658 14.625 16.015 14.625 25.331v47.25c0 7.836 4.613 17.114 10.87 22.701v-.619c-6.023-5.524-10.415-14.486-10.415-22.083z" fill="#fff"/><path d="M84.4 97.533s-5.341-5.436-7.414-9.917c-2.08-4.48-3.154-8.633-3.192-12.33-.038-3.698-.07-35.5-.07-35.5s.228-13.184-.328-15.27c-.556-2.08-1.865-13.19-12.742-21.166-10.877-7.976-16.312.625-16.249 5.125.063 4.494 0 7.376 0 7.376s5.96 4.822 8.21 11.711c2.25 6.89 2.465 5.695 2.503 12.546.038 6.85.07 41.618.07 41.618s-.506 6.105 1.017 10.833c1.517 4.727 4.254 9.96 7.496 13.392 3.242 3.432 8.026 7.483 12.45 7.085 4.425-.398 7.401-2.029 8.248-9.032v-6.471z" fill="#fff"/><path d="M48.444 1.018L30.109 11.585l14.296 4.26 4.039-14.827z" fill="#fff"/><path d="M102.753 87.913v2.124c-1.018-.74-5.815-4.013-10.371-3.855-5.133.183-6.852 4.879-6.852 4.879s-1.213 3.507-1.125 5.15c.013.285.032.62.045.974-.032-.025-.057-.05-.089-.076v.62c.032.031.07.056.108.088.044 1.58.056 3.324.056 3.324s.045 3.129-.398 5.189c-.796 3.697-3.93 5.802-4.17 6.124l18.814-10.832a.203.203 0 00.05-.026.467.467 0 00.076-.05l.095-.057.013-.013c2.724-1.68 4.222-5.062 4.222-9.556v-3.71a5.448 5.448 0 01-.474-.297z" fill="#ECDDC5"/><path d="M88.09 87.433l19.251-11.143s3.281-1.725 7.25-.271c3.969 1.453 24.768 13.93 24.768 13.93l-18.581 10.706s-21.59-13.38-24.124-14.05c-5.201-1.371-8.564.828-8.564.828z" fill="#fff"/><path d="M44.007 15.497c-.759-.72-4.298-3.843-9.468-4.633-5.852-.897-8.267 5.948-8.267 5.948s-.676 3.551-.65 5.656c.025 2.105.176 9.74.176 9.74l18.544-10.682a.225.225 0 00.126-.202v-5.423c-.152-.158-.303-.246-.461-.404z" fill="#ECDDC5"/><path d="M76.335 113.295c-2.048 0-4.31-.683-6.65-2.035-8.133-4.696-14.744-16.154-14.744-25.54V38.465c0-9.31-6.56-20.674-14.625-25.332-3.861-2.23-7.483-2.597-10.188-1.03-2.711 1.568-4.203 4.88-4.203 9.341v10.561a.233.233 0 11-.468 0v-10.56c0-4.633 1.574-8.09 4.43-9.74 2.858-1.65 6.643-1.283 10.657 1.03 8.19 4.728 14.852 16.275 14.852 25.73v47.249c0 9.24 6.51 20.521 14.517 25.141 3.837 2.213 7.427 2.579 10.113 1.024 2.686-1.554 4.171-4.847 4.171-9.271v-5.543c0-4.797 1.63-8.38 4.588-10.087 2.958-1.706 6.877-1.327 11.03 1.068l20.963 12.211a.234.234 0 01.082.316.23.23 0 01-.316.082L99.58 88.445c-4.007-2.314-7.755-2.693-10.567-1.069C86.2 89 84.658 92.44 84.658 97.065v5.543c0 4.601-1.56 8.033-4.398 9.67-1.17.682-2.497 1.017-3.925 1.017z" fill="#fff"/><path d="M59.921 48.842v-1.668l1.947-1.12v1.663l-1.947 1.125zm5.492-6.289v-1.668l3.704-2.136v1.668l-3.704 2.136zm-5.303-.347v-1.669l9.007-5.201v1.669l-9.006 5.2zm3.13 4.721V45.26l7.52-4.342v1.668l-7.52 4.342zm-3.13-1.308V43.95l3.704-2.142v1.668l-3.703 2.143zm2.181 19.453v1.669l-2.281 1.314v-1.668l2.281-1.315zm4.152-2.395v1.668l-2.281 1.315v-1.67l2.281-1.314zm2.491-4.557v1.669l-8.817 5.087v-1.668l8.817-5.088zm-4.399-5.277v-1.669l4.399-2.54v1.668l-4.399 2.54zm-4.525 2.61v-1.669l2.281-1.314v1.668l-2.281 1.315zm0 3.122v-1.668l4.342-2.51v1.669l-4.342 2.51zm6.098-3.52v-1.669l2.825-1.63v1.662l-2.825 1.637zm-1.573 17.21v-1.669l4.399-2.54v1.668l-4.399 2.54zm-4.525 2.61v-1.669l2.281-1.314v1.668l-2.281 1.315zm0 3.122v-1.669l4.342-2.509v1.669l-4.342 2.509zm6.098-3.52v-1.669l2.825-1.63v1.668l-2.825 1.63zm46.194 15.585l-1.441-.834 1.947-1.125 1.441.834-1.947 1.125zm2.794-4.734l-1.447-.828 3.71-2.142 1.441.834-3.704 2.136zm-8.254 1.359l-1.447-.834 9.012-5.202 1.441.835-9.006 5.201zm8.785 1.46l-1.448-.834 7.521-4.342 1.441.834-7.514 4.342zm-5.833.247l-1.448-.835 3.71-2.142 1.441.834-3.703 2.142z" fill="#ECDDC5"/><path d="M13.797 93.854l-.847.487-1.997-1.157.84-.486 2.004 1.156zm1.554-.897l-.847.487-1.997-1.157.84-.487 2.004 1.157zm1.555-.897l-.847.486-1.997-1.157.84-.486 2.004 1.156zm1.554-.898l-.846.487-1.997-1.157.84-.487 2.004 1.157zm109.738 28.832l-14.877-8.576c-.36-.209-.815-.323-1.271-.348v-.006h-.044c-.088-.006-.183 0-.272 0-.037 0-.082 0-.12.006a3.419 3.419 0 00-.265.032l-.114.019c-.088.019-.17.044-.253.069-.031.013-.069.019-.101.026a2.117 2.117 0 00-.309.139l-11.099 6.427-10.58 6.131-1.03.101.007.929.012.12c.044.265.24.525.607.733l14.884 8.583c.36.208.815.322 1.27.347v.007h.045c.088.006.176 0 .271 0 .038 0 .082 0 .12-.007.089-.006.177-.018.259-.031l.114-.019c.089-.019.171-.044.253-.07.032-.012.07-.019.101-.031.108-.038.215-.089.31-.139l22.196-12.855c.348-.203.518-.474.512-.746v-.904l-.626.063z" fill="#fff"/><path d="M88.387 123.294l11.099-6.428 17.247 9.948-10.611 6.706c-.727.423-1.953.398-2.737-.057l-14.884-8.583c-.796-.455-.84-1.163-.114-1.586z" fill="#CEDCE2"/><path d="M110.578 110.438l-11.099 6.428 17.141 9.885 11.686-6.087c.727-.423.682-1.131-.108-1.586l-14.884-8.583c-.777-.448-2.01-.48-2.736-.057z" fill="#C6D4DB"/><path d="M128.818 119.817c.057.31-.114.62-.506.847l-22.196 12.855c-.392.228-.929.323-1.467.291l1.473-13.12 22.696-.873z" fill="#DFE7EC"/><path d="M87.882 124.147c-.057-.31.114-.619.506-.847l22.196-12.855c.392-.228.929-.322 1.466-.291l-1.472 13.121-22.696.872z" fill="#fff"/><path d="M104.807 128.21h-.126l-.272-.025a2.913 2.913 0 01-1.15-.36l-14.884-8.583c-.316-.183-.544-.417-.658-.682l-.031.006-.044-.259v-.038a.552.552 0 010-.177c0-.038.006-.063.012-.095a.95.95 0 01.076-.202c.019-.038.025-.063.044-.089.044-.069.095-.132.146-.183.025-.032.044-.05.063-.069.088-.083.183-.152.29-.209l22.197-12.855c.107-.063.221-.114.348-.158l.075-.025c.12-.038.209-.064.304-.083l.088-.012.323-.045h.094c.133-.006.228-.006.323 0l.271.026c.437.05.828.17 1.151.36l14.884 8.583c.316.183.543.417.657.682l.032-.006.044.259v.038a.582.582 0 010 .177.35.35 0 01-.013.095c-.019.076-.05.145-.076.208a.515.515 0 01-.038.089 1.053 1.053 0 01-.145.183l-.063.07a1.365 1.365 0 01-.291.208l-22.196 12.855a2.106 2.106 0 01-.348.158l-.076.026a2.77 2.77 0 01-.303.082l-.089.013-.322.044h-.095c-.076-.007-.139-.007-.202-.007zm.493-.518l.158.221-.05-.233c.082-.019.151-.038.227-.064l.171.203-.082-.228c.094-.032.183-.076.271-.12l22.197-12.862c.075-.044.139-.094.202-.145l.215.12-.177-.164a.589.589 0 00.088-.108c.032-.082.051-.113.057-.145.006-.076.006-.107.006-.126l-.006-.026c-.038-.202-.208-.404-.486-.568l-14.884-8.583c-.31-.177-.727-.291-1.163-.316l-.095-.007h-.19l-.114.007a3.098 3.098 0 00-.233.031l-.158-.221.05.234a2.506 2.506 0 00-.227.063l-.171-.202.082.228a1.69 1.69 0 00-.272.126L88.52 117.662c-.076.044-.139.095-.202.145-.07.083-.108.121-.127.152a.826.826 0 00-.056.146c-.007.075-.007.107-.007.126l.007.025c.037.202.208.405.486.569l14.884 8.583c.31.177.727.291 1.163.316l.095.006h.196l.114-.006c.069-.007.151-.019.227-.032z" fill="#fff"/><path opacity=".4" d="M128.603 114.584c.044-.05.088-.095.12-.145.013-.019.019-.044.032-.07a.711.711 0 00.056-.151c.007-.026.007-.045.007-.07a.695.695 0 000-.158v-.025h-.007c-.044-.266-.24-.525-.606-.733l-14.884-8.583c-.36-.209-.816-.322-1.271-.348v-.006h-.044c-.088-.006-.177 0-.272 0-.038 0-.082 0-.12.006a3.394 3.394 0 00-.259.032l-.114.019c-.088.019-.17.044-.252.069-.032.013-.07.019-.102.032a2.414 2.414 0 00-.309.139l-7.401 4.285-3.697 2.143-11.099 6.427a1.564 1.564 0 00-.246.177c-.019.019-.032.038-.05.057-.045.051-.09.095-.114.145-.013.019-.02.045-.032.07a.746.746 0 00-.057.152c-.006.025-.006.044-.006.069a.662.662 0 000 .158v.025h.006c.044.266.24.525.607.734l14.884 8.582c.36.209.815.323 1.27.348v.006h.044c.089.007.177 0 .272 0 .038 0 .082 0 .12-.006a4.514 4.514 0 00.373-.051c.089-.019.171-.044.253-.069.032-.013.069-.019.101-.032.108-.038.215-.088.31-.139l22.196-12.855c.095-.057.177-.114.247-.177.019-.019.025-.038.044-.057z" fill="#fff"/></g><defs><clipPath id="clip0_232_2738"><path fill="#fff" d="M0 0h147.544v164.88H0z"/></clipPath><clipPath id="clip1_232_2738"><path fill="#fff" transform="matrix(.86604 -.49997 .86604 .49997 64 36.817)" d="M0 0h35.637v35.637H0z"/></clipPath></defs></svg>