<svg width="152" height="27" viewBox="0 0 152 27" fill="none" xmlns="http://www.w3.org/2000/svg">
<g clip-path="url(#clip0_164_33967)">
<path d="M64.2917 6.37895V18.4014H61.8808V10.5821L58.6589 18.4014H56.8348L53.596 10.5821V18.4014H51.1853V6.37895H53.9231L57.7468 15.3178L61.5706 6.37895H64.2917Z" fill="#B8213C"/>
<path d="M71.7058 16.1364C72.0908 15.9234 72.3972 15.6057 72.6272 15.1796C72.857 14.7553 72.9729 14.2395 72.9729 13.6303C72.9729 12.7239 72.7336 12.0249 72.2571 11.5372C71.7806 11.0494 71.1975 10.8046 70.5098 10.8046C69.8202 10.8046 69.2427 11.0494 68.7792 11.5372C68.3137 12.0249 68.0802 12.7239 68.0802 13.6303C68.0802 14.5367 68.3081 15.2357 68.7605 15.7234C69.2145 16.2112 69.7864 16.4541 70.4742 16.4541C70.9115 16.4541 71.3208 16.3495 71.7058 16.1364ZM67.9942 17.9455C67.2597 17.5381 66.6822 16.9606 66.2636 16.2131C65.845 15.4674 65.6357 14.6058 65.6357 13.6303C65.6357 12.6548 65.8506 11.7932 66.2805 11.0476C66.7121 10.3 67.299 9.72246 68.0465 9.31507C68.7922 8.90764 69.6257 8.70405 70.5434 8.70405C71.4628 8.70405 72.2944 8.90764 73.0402 9.31507C73.7877 9.72246 74.3764 10.3 74.8063 11.0476C75.238 11.7932 75.4528 12.6548 75.4528 13.6303C75.4528 14.6058 75.2304 15.4674 74.7894 16.2131C74.3465 16.9606 73.7504 17.5381 72.9972 17.9455C72.2459 18.3529 71.4049 18.5566 70.4742 18.5566C69.5566 18.5566 68.7287 18.3529 67.9942 17.9455Z" fill="#B8213C"/>
<path d="M83.3394 12.124C83.1094 11.7035 82.7991 11.382 82.4104 11.1578C82.0198 10.9354 81.5994 10.8233 81.1526 10.8233C80.7041 10.8233 80.2911 10.9317 79.9117 11.1503C79.5324 11.369 79.2258 11.6867 78.9904 12.1053C78.755 12.5258 78.6372 13.021 78.6372 13.5948C78.6372 14.1704 78.755 14.6713 78.9904 15.103C79.2258 15.5328 79.5361 15.8636 79.9211 16.0935C80.3061 16.3233 80.7154 16.4373 81.1526 16.4373C81.5994 16.4373 82.0198 16.3252 82.4104 16.1009C82.7991 15.8785 83.1094 15.5571 83.3394 15.1366C83.5692 14.718 83.6849 14.2153 83.6849 13.6303C83.6849 13.0453 83.5692 12.5426 83.3394 12.124ZM76.7516 11.0289C77.1366 10.2832 77.6617 9.7094 78.327 9.30757C78.9943 8.90588 79.7342 8.70405 80.5491 8.70405C81.1695 8.70405 81.7601 8.83848 82.3226 9.10947C82.8852 9.37864 83.3337 9.73745 83.6663 10.186V5.65581H86.1127V18.4014H83.6663V16.9886C83.3673 17.4596 82.9487 17.839 82.4104 18.1248C81.8704 18.4127 81.2443 18.5566 80.5322 18.5566C79.7286 18.5566 78.9943 18.3492 78.327 17.9362C77.6617 17.5231 77.1366 16.94 76.7516 16.1869C76.3666 15.4356 76.1741 14.5722 76.1741 13.5948C76.1741 12.6305 76.3666 11.7764 76.7516 11.0289Z" fill="#B8213C"/>
<path d="M94.416 12.7351C94.403 12.1146 94.1806 11.6175 93.7433 11.2457C93.3078 10.8719 92.7734 10.685 92.1417 10.685C91.5455 10.685 91.0428 10.8662 90.6354 11.227C90.2279 11.5895 89.9775 12.0922 89.886 12.7351H94.416ZM96.8438 14.3536H89.8691C89.9252 15.0431 90.1663 15.5814 90.5923 15.9719C91.0166 16.3626 91.5399 16.5588 92.1586 16.5588C93.0555 16.5588 93.6928 16.1738 94.0704 15.4038H96.6717C96.3953 16.3233 95.8683 17.0783 95.087 17.6689C94.3059 18.2614 93.347 18.5566 92.2108 18.5566C91.2914 18.5566 90.469 18.3529 89.7384 17.9455C89.0095 17.5381 88.4413 16.9606 88.034 16.2131C87.6264 15.4674 87.4229 14.6058 87.4229 13.6303C87.4229 12.6435 87.6227 11.7764 88.0246 11.0289C88.4264 10.2832 88.9907 9.70941 89.7141 9.30757C90.4373 8.90588 91.2689 8.70405 92.2108 8.70405C93.1172 8.70405 93.9302 8.90025 94.6478 9.28896C95.3655 9.67951 95.9225 10.2346 96.3186 10.9522C96.7148 11.6698 96.913 12.494 96.913 13.4229C96.913 13.7686 96.8904 14.0788 96.8438 14.3536Z" fill="#B8213C"/>
<path d="M101.863 9.15251C102.362 8.86463 102.934 8.72069 103.577 8.72069V11.253H102.94C102.183 11.253 101.611 11.4305 101.226 11.7875C100.841 12.1426 100.649 12.7631 100.649 13.647V18.4014H98.2378V8.859H100.649V10.341C100.959 9.83457 101.364 9.43838 101.863 9.15251Z" fill="#B8213C"/>
<path d="M112.809 9.79717C113.508 10.5148 113.86 11.5184 113.86 12.8042V18.4014H111.447V13.1312C111.447 12.3725 111.258 11.7894 110.879 11.382C110.501 10.9746 109.984 10.7708 109.33 10.7708C108.662 10.7708 108.137 10.9746 107.754 11.382C107.369 11.7894 107.177 12.3725 107.177 13.1312V18.4014H104.766V8.859H107.177V10.0476C107.498 9.63462 107.909 9.30942 108.408 9.07385C108.907 8.83841 109.455 8.72069 110.053 8.72069C111.189 8.72069 112.109 9.07948 112.809 9.79717Z" fill="#B8213C"/>
<path d="M131.047 6.37962L127.688 18.402H124.846L122.59 9.84081L120.231 18.402L117.406 18.4189L114.169 6.37962H116.752L118.869 15.7147L121.315 6.37962H124.003L126.311 15.6624L128.447 6.37962H131.047Z" fill="#29417E"/>
<path d="M138.168 12.124C137.938 11.7035 137.628 11.382 137.239 11.1578C136.849 10.9354 136.428 10.8233 135.981 10.8233C135.533 10.8233 135.12 10.9317 134.741 11.1503C134.361 11.369 134.055 11.6867 133.819 12.1053C133.584 12.5258 133.466 13.021 133.466 13.5948C133.466 14.1704 133.584 14.6713 133.819 15.103C134.055 15.5328 134.365 15.8636 134.75 16.0935C135.135 16.3233 135.544 16.4373 135.981 16.4373C136.428 16.4373 136.849 16.3252 137.239 16.1009C137.628 15.8785 137.938 15.5571 138.168 15.1366C138.398 14.718 138.514 14.2153 138.514 13.6303C138.514 13.0453 138.398 12.5426 138.168 12.124ZM131.58 11.0289C131.965 10.2832 132.487 9.70941 133.148 9.30757C133.808 8.90588 134.546 8.70405 135.361 8.70405C136.073 8.70405 136.695 8.84781 137.23 9.13569C137.764 9.42161 138.191 9.78419 138.514 10.2196V8.85907H140.941V18.4014H138.514V17.0055C138.204 17.454 137.776 17.824 137.23 18.1174C136.684 18.409 136.056 18.5566 135.344 18.5566C134.541 18.5566 133.808 18.3492 133.148 17.9362C132.487 17.5231 131.965 16.94 131.58 16.1869C131.195 15.4356 131.003 14.5722 131.003 13.5948C131.003 12.6305 131.195 11.7764 131.58 11.0289Z" fill="#29417E"/>
<path d="M152 8.85915L146.092 22.9131H143.526L145.593 18.1605L141.769 8.85915H144.474L146.937 15.5254L149.434 8.85915H152Z" fill="#29417E"/>
<path d="M31 12.6057V18.6113H35.9836C36.1621 18.5916 36.2305 18.5429 36.3729 18.4492L40.4825 15.4428C41.7495 14.365 42.0433 14.0333 43.1049 12.8365C43.5033 12.384 43.9017 11.8289 44.2207 11.2828C44.8135 10.2734 45.1778 9.28934 45.2823 8.34307V7.24716C45.1363 5.97828 44.4658 4.78507 43.1878 3.70007C40.497 1.41816 35.9692 0.500858 31.7841 0.347593H29.1958C28.2873 0.381731 27.4223 0.448421 26.6255 0.542212C22.6584 1.00904 18.3884 2.06888 14.7386 3.80635C14.4539 3.94167 14.1619 4.06766 13.9041 4.20843L13.0461 4.64641C12.4459 4.92215 11.2365 5.69709 10.6219 6.06838C10.348 6.23238 10.0938 6.42717 9.84331 6.59645C8.49505 7.50495 6.95219 8.80815 5.76436 10.0031C5.63823 10.1293 5.67425 10.0121 5.62744 10.2158C5.8617 10.2861 5.82746 10.5312 6.20779 10.077L6.72509 9.55968C7.08554 9.21186 7.43706 8.9234 7.82274 8.59541C8.62125 7.91231 9.28992 7.45445 10.1479 6.87957C11.6962 5.84314 13.6643 4.83733 15.4794 4.156C17.8262 3.27459 20.6793 2.45811 23.327 2.13557C23.9003 2.06712 24.5364 1.95714 25.1025 1.94095C25.6811 1.92476 26.3425 1.81479 26.941 1.8183C30.3565 1.83819 32.4473 1.822 35.7061 2.79878C37.0704 3.20807 38.5809 3.86037 39.6875 4.84824C40.0264 5.14914 40.4104 5.55474 40.6411 5.97301C41.254 7.08686 41.2953 8.13948 40.7924 9.41911C40.322 10.6123 39.3685 11.5496 38.561 12.3462C38.3681 12.5391 38.215 12.6527 38.0204 12.8365C37.5013 13.325 34.8228 15.2535 34.4084 15.3635V8.50355H30.944L26.0218 14.5055V8.50355H22.6387V18.6113H26.0218L31 12.6057Z" fill="#29417E"/>
<path d="M19.2606 12.6668V18.6111H22.6364L22.6384 8.50328H19.4283L14.2823 14.5052V8.50328H9.30585C8.93997 8.58071 8.02612 9.26384 7.76115 9.44406C7.22768 9.80817 6.73923 10.1506 6.23272 10.5346C5.73706 10.9077 5.2775 11.2771 4.80707 11.6772C4.55831 11.8881 4.34564 12.0738 4.10409 12.2901C3.00467 13.285 1.84027 14.5377 1.07064 15.8409C0.418122 16.9457 0.070317 17.9839 0 18.9554V19.6763C0.104548 21.0876 0.830884 22.3385 2.09438 23.411C3.94189 24.9791 6.55894 25.8316 9.34372 26.3524C11.6058 26.7742 13.9561 26.7978 16.3407 26.7652C16.6201 26.7615 16.6381 26.7165 16.8796 26.7003C17.0941 26.6878 17.2977 26.7184 17.514 26.6841L19.7383 26.4462C20.0519 26.4066 20.5025 26.3363 20.8288 26.2732C21.5497 26.1327 22.2813 26.01 22.9519 25.8587C28.4781 24.6077 33.9737 22.1926 38.3499 18.2362C38.5716 18.0362 39.5539 17.198 39.6278 16.8862C39.4675 16.8394 39.5683 16.8701 39.4386 16.7727C39.2186 16.8394 38.6383 17.5063 38.3877 17.728C37.3279 18.6725 36.706 19.1843 35.5544 19.972C35.3399 20.118 35.1525 20.2315 34.938 20.3776C33.8654 21.1111 32.1984 21.9277 31.0375 22.4557C30.1255 22.8702 29.1162 23.2416 28.1626 23.5498C26.2251 24.1735 22.9375 24.9646 20.8828 25.107C20.6357 25.1251 20.2502 25.1448 19.978 25.1863C18.9127 25.3486 17.4582 25.2908 16.2307 25.2908C12.7773 25.2908 6.44182 24.2797 4.60876 21.0517C3.29302 18.7337 5.00709 16.6537 6.26159 15.2244C6.36249 15.1109 6.3895 15.0857 6.49227 14.9955C8.27308 13.4418 8.39022 13.3481 10.2774 12.1117C10.4756 11.9819 10.672 11.8142 10.9298 11.7475V18.6111H14.2823L19.2606 12.6668Z" fill="#B8213C"/>
</g>
<defs>
<clipPath id="clip0_164_33967">
<rect width="152" height="26.4281" fill="white" transform="translate(0 0.347656)"/>
</clipPath>
</defs>
</svg>
