<svg width="70" height="69" viewBox="0 0 70 69" fill="none" xmlns="http://www.w3.org/2000/svg">
<circle cx="35" cy="34.5" r="34.5" fill="white"/>
<path d="M21.5 41H49.5V43H21.5V41ZM21.5 45H49.5V47H21.5V45ZM43.5 29C43.1044 29 42.7178 29.1173 42.3889 29.3371C42.06 29.5568 41.8036 29.8692 41.6522 30.2346C41.5009 30.6001 41.4613 31.0022 41.5384 31.3902C41.6156 31.7781 41.8061 32.1345 42.0858 32.4142C42.3655 32.6939 42.7219 32.8844 43.1098 32.9616C43.4978 33.0387 43.8999 32.9991 44.2654 32.8478C44.6308 32.6964 44.9432 32.44 45.1629 32.1111C45.3827 31.7822 45.5 31.3956 45.5 31C45.5 30.4696 45.2893 29.9609 44.9142 29.5858C44.5391 29.2107 44.0304 29 43.5 29ZM35.5 35C34.7089 35 33.9355 34.7654 33.2777 34.3259C32.6199 33.8864 32.1072 33.2616 31.8045 32.5307C31.5017 31.7998 31.4225 30.9956 31.5769 30.2196C31.7312 29.4437 32.1122 28.731 32.6716 28.1716C33.231 27.6122 33.9437 27.2312 34.7196 27.0769C35.4956 26.9225 36.2998 27.0017 37.0307 27.3045C37.7616 27.6072 38.3864 28.1199 38.8259 28.7777C39.2654 29.4355 39.5 30.2089 39.5 31C39.4987 32.0605 39.0768 33.0771 38.327 33.827C37.5771 34.5768 36.5605 34.9987 35.5 35ZM35.5 29C35.1044 29 34.7178 29.1173 34.3889 29.3371C34.06 29.5568 33.8036 29.8692 33.6522 30.2346C33.5009 30.6001 33.4613 31.0022 33.5384 31.3902C33.6156 31.7781 33.8061 32.1345 34.0858 32.4142C34.3655 32.6939 34.7219 32.8844 35.1098 32.9616C35.4978 33.0387 35.8999 32.9991 36.2654 32.8478C36.6308 32.6964 36.9432 32.44 37.1629 32.1111C37.3827 31.7822 37.5 31.3956 37.5 31C37.4995 30.4697 37.2886 29.9613 36.9136 29.5864C36.5387 29.2114 36.0303 29.0005 35.5 29ZM27.5 29C27.1044 29 26.7178 29.1173 26.3889 29.3371C26.06 29.5568 25.8036 29.8692 25.6522 30.2346C25.5009 30.6001 25.4613 31.0022 25.5384 31.3902C25.6156 31.7781 25.8061 32.1345 26.0858 32.4142C26.3655 32.6939 26.7219 32.8844 27.1098 32.9616C27.4978 33.0387 27.8999 32.9991 28.2654 32.8478C28.6308 32.6964 28.9432 32.44 29.1629 32.1111C29.3827 31.7822 29.5 31.3956 29.5 31C29.5 30.4696 29.2893 29.9609 28.9142 29.5858C28.5391 29.2107 28.0304 29 27.5 29Z" fill="#B8213C"/>
<path d="M47.5 39H23.5C22.97 38.9987 22.462 38.7875 22.0872 38.4128C21.7125 38.038 21.5013 37.53 21.5 37V25C21.5013 24.47 21.7125 23.962 22.0872 23.5872C22.462 23.2125 22.97 23.0013 23.5 23H47.5C48.03 23.0013 48.538 23.2125 48.9128 23.5872C49.2875 23.962 49.4987 24.47 49.5 25V37C49.4992 37.5302 49.2882 38.0384 48.9133 38.4133C48.5384 38.7882 48.0302 38.9992 47.5 39ZM47.5 25H23.5V37H47.5V25Z" fill="#B8213C"/>
</svg>
