<svg width="15" height="15" viewBox="0 0 15 15" fill="none" xmlns="http://www.w3.org/2000/svg">
<path d="M11.1167 2.51868V1.25694C11.1167 1.14758 10.991 1.08719 10.9062 1.15411L3.54796 6.90128C3.48544 6.9499 3.43485 7.01215 3.40006 7.0833C3.36526 7.15444 3.34717 7.23259 3.34717 7.31179C3.34717 7.39099 3.36526 7.46914 3.40006 7.54028C3.43485 7.61143 3.48544 7.67368 3.54796 7.7223L10.9062 13.4695C10.9927 13.5364 11.1167 13.476 11.1167 13.3666V12.1049C11.1167 12.0249 11.0792 11.9482 11.0172 11.8992L5.14104 7.31261L11.0172 2.72434C11.0792 2.67537 11.1167 2.59866 11.1167 2.51868Z" fill="#7A7A7A"/>
</svg>
