<svg width="15" height="15" viewBox="0 0 15 15" fill="none" xmlns="http://www.w3.org/2000/svg">
<path d="M11.7973 6.90114L4.43908 1.15397C4.41985 1.13884 4.39674 1.12943 4.37241 1.12683C4.34808 1.12424 4.32351 1.12856 4.30152 1.13929C4.27953 1.15003 4.26102 1.16676 4.2481 1.18754C4.23519 1.20833 4.2284 1.23234 4.22852 1.25681V2.51854C4.22852 2.59852 4.26606 2.67524 4.32808 2.7242L10.2042 7.31247L4.32808 11.9007C4.26443 11.9497 4.22852 12.0264 4.22852 12.1064V13.3681C4.22852 13.4775 4.3542 13.5379 4.43908 13.471L11.7973 7.7238C11.8598 7.67501 11.9104 7.61261 11.9452 7.54134C11.98 7.47006 11.9981 7.39179 11.9981 7.31247C11.9981 7.23315 11.98 7.15488 11.9452 7.0836C11.9104 7.01233 11.8598 6.94993 11.7973 6.90114Z" fill="#7A7A7A"/>
</svg>
