<svg width="25" height="25" viewBox="0 0 25 25" fill="none" xmlns="http://www.w3.org/2000/svg">
<path fill-rule="evenodd" clip-rule="evenodd" d="M10.9149 9.04114C9.48605 9.04114 8.32777 10.1994 8.32777 11.6283C8.32777 13.0571 9.48605 14.2154 10.9149 14.2154C12.3437 14.2154 13.502 13.0571 13.502 11.6283C13.502 10.1994 12.3437 9.04114 10.9149 9.04114ZM6.60303 11.6283C6.60303 9.24688 8.53351 7.31641 10.9149 7.31641C13.2962 7.31641 15.2267 9.24688 15.2267 11.6283C15.2267 14.0096 13.2962 15.9401 10.9149 15.9401C8.53351 15.9401 6.60303 14.0096 6.60303 11.6283Z" fill="#B8213C"/>
<path fill-rule="evenodd" clip-rule="evenodd" d="M6.86172 3.05205C8.79743 2.13729 10.9857 1.90424 13.0706 2.39081C15.1556 2.87737 17.0146 4.05493 18.3455 5.73202C19.6763 7.4091 20.4007 9.48707 20.4008 11.628V12.4905C20.4008 13.4053 20.0374 14.2827 19.3905 14.9296C18.7436 15.5765 17.8662 15.9399 16.9514 15.9399C16.0365 15.9399 15.1591 15.5765 14.5122 14.9296C13.8653 14.2827 13.5019 13.4053 13.5019 12.4905V8.17863C13.5019 7.70235 13.888 7.31626 14.3643 7.31626C14.8405 7.31626 15.2266 7.70235 15.2266 8.17863V12.4905C15.2266 12.9479 15.4083 13.3866 15.7318 13.71C16.0552 14.0335 16.4939 14.2152 16.9514 14.2152C17.4088 14.2152 17.8475 14.0335 18.1709 13.71C18.4944 13.3866 18.6761 12.9479 18.6761 12.4905V11.6282C18.6761 11.6281 18.6761 11.6282 18.6761 11.6282C18.676 9.87647 18.0833 8.17628 16.9944 6.80413C15.9056 5.43197 14.3845 4.46851 12.6786 4.07041C10.9728 3.67231 9.1824 3.86299 7.59864 4.61143C6.01487 5.35988 4.73087 6.62207 3.9554 8.19278C3.17994 9.76349 2.95862 11.5503 3.32744 13.2628C3.69626 14.9752 4.63352 16.5125 5.98683 17.6248C7.34013 18.737 9.02989 19.3587 10.7813 19.3888C12.5328 19.4189 14.2429 18.8557 15.6337 17.7906C16.0118 17.5011 16.5531 17.5729 16.8427 17.951C17.1322 18.3291 17.0604 18.8704 16.6823 19.16C14.9825 20.4617 12.8923 21.1501 10.7517 21.1133C8.61103 21.0765 6.54577 20.3166 4.89173 18.9572C3.23769 17.5978 2.09215 15.7189 1.64137 13.6259C1.19059 11.5329 1.46108 9.34901 2.40887 7.42926C3.35666 5.5095 4.926 3.96682 6.86172 3.05205Z" fill="#B8213C"/>
</svg>
