<svg width="25" height="25" viewBox="0 0 25 25" fill="none" xmlns="http://www.w3.org/2000/svg">
<path fill-rule="evenodd" clip-rule="evenodd" d="M10.9149 9.04163C9.48605 9.04163 8.32777 10.1999 8.32777 11.6287C8.32777 13.0576 9.48605 14.2158 10.9149 14.2158C12.3437 14.2158 13.502 13.0576 13.502 11.6287C13.502 10.1999 12.3437 9.04163 10.9149 9.04163ZM6.60303 11.6287C6.60303 9.24737 8.53351 7.31689 10.9149 7.31689C13.2962 7.31689 15.2267 9.24737 15.2267 11.6287C15.2267 14.0101 13.2962 15.9406 10.9149 15.9406C8.53351 15.9406 6.60303 14.0101 6.60303 11.6287Z" fill="#D60029"/>
<path fill-rule="evenodd" clip-rule="evenodd" d="M6.86172 3.05254C8.79743 2.13777 10.9857 1.90473 13.0706 2.39129C15.1556 2.87786 17.0146 4.05542 18.3455 5.73251C19.6763 7.40959 20.4007 9.48756 20.4008 11.6285V12.491C20.4008 13.4058 20.0374 14.2832 19.3905 14.9301C18.7436 15.577 17.8662 15.9404 16.9514 15.9404C16.0365 15.9404 15.1591 15.577 14.5122 14.9301C13.8653 14.2832 13.5019 13.4058 13.5019 12.491V8.17911C13.5019 7.70284 13.888 7.31675 14.3643 7.31675C14.8405 7.31675 15.2266 7.70284 15.2266 8.17911V12.491C15.2266 12.9484 15.4083 13.3871 15.7318 13.7105C16.0552 14.034 16.4939 14.2157 16.9514 14.2157C17.4088 14.2157 17.8475 14.034 18.1709 13.7105C18.4944 13.3871 18.6761 12.9484 18.6761 12.491V11.6286C18.6761 11.6286 18.6761 11.6287 18.6761 11.6286C18.676 9.87696 18.0833 8.17677 16.9944 6.80462C15.9056 5.43246 14.3845 4.469 12.6786 4.0709C10.9728 3.6728 9.1824 3.86348 7.59864 4.61192C6.01487 5.36036 4.73087 6.62256 3.9554 8.19327C3.17994 9.76398 2.95862 11.5508 3.32744 13.2633C3.69626 14.9757 4.63352 16.513 5.98683 17.6252C7.34013 18.7375 9.02989 19.3592 10.7813 19.3893C12.5328 19.4194 14.2429 18.8562 15.6337 17.7911C16.0118 17.5016 16.5531 17.5733 16.8427 17.9515C17.1322 18.3296 17.0604 18.8709 16.6823 19.1605C14.9825 20.4622 12.8923 21.1506 10.7517 21.1138C8.61103 21.077 6.54577 20.3171 4.89173 18.9577C3.23769 17.5983 2.09215 15.7194 1.64137 13.6264C1.19059 11.5334 1.46108 9.3495 2.40887 7.42974C3.35666 5.50999 4.926 3.9673 6.86172 3.05254Z" fill="#D60029"/>
</svg>
