<svg width="16" height="17" viewBox="0 0 16 17" fill="none" xmlns="http://www.w3.org/2000/svg">
<path d="M15.47 8.33C14.882 6.80882 13.861 5.49331 12.5334 4.54604C11.2058 3.59878 9.62977 3.06129 8.00003 3C6.37029 3.06129 4.79423 3.59878 3.46663 4.54604C2.13904 5.49331 1.11811 6.80882 0.530031 8.33C0.490315 8.43985 0.490315 8.56015 0.530031 8.67C1.11811 10.1912 2.13904 11.5067 3.46663 12.454C4.79423 13.4012 6.37029 13.9387 8.00003 14C9.62977 13.9387 11.2058 13.4012 12.5334 12.454C13.861 11.5067 14.882 10.1912 15.47 8.67C15.5097 8.56015 15.5097 8.43985 15.47 8.33ZM8.00003 13C5.35003 13 2.55003 11.035 1.53503 8.5C2.55003 5.965 5.35003 4 8.00003 4C10.65 4 13.45 5.965 14.465 8.5C13.45 11.035 10.65 13 8.00003 13Z" fill="#7A7A7A"/>
<path d="M8 5.5C7.40666 5.5 6.82664 5.67595 6.33329 6.00559C5.83994 6.33524 5.45543 6.80377 5.22836 7.35195C5.0013 7.90013 4.94189 8.50333 5.05765 9.08527C5.1734 9.66721 5.45912 10.2018 5.87868 10.6213C6.29824 11.0409 6.83279 11.3266 7.41473 11.4424C7.99667 11.5581 8.59987 11.4987 9.14805 11.2716C9.69623 11.0446 10.1648 10.6601 10.4944 10.1667C10.8241 9.67336 11 9.09334 11 8.5C11 7.70435 10.6839 6.94129 10.1213 6.37868C9.55871 5.81607 8.79565 5.5 8 5.5ZM8 10.5C7.60444 10.5 7.21776 10.3827 6.88886 10.1629C6.55996 9.94318 6.30362 9.63082 6.15224 9.26537C6.00087 8.89991 5.96126 8.49778 6.03843 8.10982C6.1156 7.72186 6.30608 7.36549 6.58579 7.08579C6.86549 6.80608 7.22186 6.6156 7.60982 6.53843C7.99778 6.46126 8.39992 6.50087 8.76537 6.65224C9.13082 6.80362 9.44318 7.05996 9.66294 7.38886C9.8827 7.71776 10 8.10444 10 8.5C10 9.03043 9.78929 9.53914 9.41421 9.91421C9.03914 10.2893 8.53043 10.5 8 10.5Z" fill="#7A7A7A"/>
</svg>
