<svg width="25" height="25" viewBox="0 0 25 25" fill="none" xmlns="http://www.w3.org/2000/svg">
<path d="M4.56474 16.5415L4.56472 16.5415L4.56751 16.5443C4.66456 16.6423 4.76983 16.7154 4.89061 16.7623C5.01031 16.8088 5.13218 16.8243 5.25531 16.8243C5.80372 16.8243 6.2196 16.4012 6.2196 15.8534C6.2196 15.5787 6.08978 15.3117 5.94497 15.1644C4.65969 13.8165 3.82164 11.9723 3.82164 9.93147C3.82164 5.84144 7.0825 2.50872 11.0716 2.50872C15.0608 2.50872 18.3216 5.84144 18.3216 9.93147C18.3216 11.9768 17.5314 13.8189 16.2002 15.1625L16.1995 15.1632L9.87293 21.6001L9.70417 21.7718L9.8694 21.9469L10.8898 23.0283L11.0687 23.2179L11.2506 23.0313L17.5772 16.5429L17.5772 16.5429L17.5785 16.5415C19.2029 14.8491 20.2502 12.4706 20.2502 9.87998C20.2502 4.70224 16.1654 0.463867 11.0716 0.463867C5.97784 0.463867 1.89307 4.70224 1.89307 9.87998C1.89307 12.4706 2.94039 14.8491 4.56474 16.5415Z" fill="#B8213C" stroke="#B8213C" stroke-width="0.5"/>
<path d="M15.2042 11.6307L12.9593 5.86328L11.0716 9.26195L9.23482 5.86328L6.98993 11.6307H6.32666V12.5061H9.69401V11.6307H9.1838L9.69401 10.1889L11.0716 12.6091L12.5001 10.1889L13.0103 11.6307H12.5001V12.5061H15.8675V11.6307" fill="#B8213C"/>
</svg>
