<svg width="70" height="69" viewBox="0 0 70 69" fill="none" xmlns="http://www.w3.org/2000/svg">
<circle cx="35" cy="34.5" r="34.5" fill="white"/>
<path d="M29.5 25H41.5V27H29.5V25ZM29.5 29H41.5V31H29.5V29ZM29.5 43H35.5V45H29.5V43ZM29.5 33H35.5V35H29.5V33Z" fill="#B8213C"/>
<path d="M43.5 49H27.5C26.9697 48.9995 26.4613 48.7886 26.0864 48.4136C25.7114 48.0387 25.5005 47.5303 25.5 47V23C25.5005 22.4697 25.7114 21.9613 26.0864 21.5864C26.4613 21.2114 26.9697 21.0005 27.5 21H43.5C44.0303 21.0005 44.5387 21.2114 44.9136 21.5864C45.2886 21.9613 45.4995 22.4697 45.5 23V47C45.4995 47.5303 45.2886 48.0387 44.9136 48.4136C44.5387 48.7886 44.0303 48.9995 43.5 49ZM27.5 23V47H43.5V23H27.5Z" fill="#B8213C"/>
</svg>
