<svg width="25" height="25" viewBox="0 0 25 25" fill="none" xmlns="http://www.w3.org/2000/svg">
<path d="M19.285 15.8712V18.3444C19.2859 18.574 19.2388 18.8012 19.1466 19.0116C19.0545 19.222 18.9193 19.4108 18.7498 19.566C18.5803 19.7212 18.3801 19.8394 18.1622 19.913C17.9443 19.9865 17.7134 20.0138 17.4843 19.9932C14.9425 19.7175 12.5009 18.8507 10.3557 17.4623C8.35986 16.1966 6.66776 14.5078 5.39953 12.516C4.00353 10.3653 3.13477 7.91671 2.86364 5.36853C2.843 5.14056 2.87014 4.9108 2.94335 4.69388C3.01656 4.47695 3.13422 4.27761 3.28885 4.10856C3.44347 3.9395 3.63168 3.80443 3.84148 3.71195C4.05128 3.61946 4.27807 3.57158 4.50743 3.57137H6.9855C7.38637 3.56743 7.77501 3.70911 8.07896 3.96999C8.38291 4.23087 8.58144 4.59315 8.63755 4.98932C8.74214 5.78078 8.93611 6.5579 9.21576 7.30584C9.3269 7.60091 9.35095 7.92159 9.28507 8.22988C9.21919 8.53818 9.06614 8.82116 8.84405 9.0453L7.795 10.0923C8.97089 12.1562 10.6832 13.865 12.7511 15.0386L13.8002 13.9916C14.0248 13.77 14.3083 13.6172 14.6172 13.5515C14.9261 13.4857 15.2475 13.5097 15.5431 13.6207C16.2925 13.8997 17.0712 14.0933 17.8642 14.1977C18.2655 14.2542 18.6319 14.4559 18.8939 14.7645C19.1559 15.073 19.295 15.4669 19.285 15.8712Z" stroke="#B8213C" stroke-width="1.5" stroke-linecap="round" stroke-linejoin="round"/>
</svg>
