<svg width="30" height="30" viewBox="0 0 30 30" fill="none" xmlns="http://www.w3.org/2000/svg">
<path d="M22.4999 11.6786C22.4999 19.4286 12.5356 26.0715 12.5356 26.0715C12.5356 26.0715 2.57129 19.4286 2.57129 11.6786C2.57129 9.03595 3.62109 6.50149 5.48976 4.63283C7.35843 2.76416 9.89288 1.71436 12.5356 1.71436C15.1783 1.71436 17.7127 2.76416 19.5814 4.63283C21.4501 6.50149 22.4999 9.03595 22.4999 11.6786Z" stroke="#B8213C" stroke-width="2" stroke-linecap="round" stroke-linejoin="round"/>
<path d="M12.5358 15.0003C14.3702 15.0003 15.8572 13.5132 15.8572 11.6789C15.8572 9.84448 14.3702 8.35742 12.5358 8.35742C10.7014 8.35742 9.21436 9.84448 9.21436 11.6789C9.21436 13.5132 10.7014 15.0003 12.5358 15.0003Z" stroke="#B8213C" stroke-width="2" stroke-linecap="round" stroke-linejoin="round"/>
</svg>
