<svg width="70" height="69" viewBox="0 0 70 69" fill="none" xmlns="http://www.w3.org/2000/svg">
<circle cx="35" cy="34.5" r="34.5" fill="white"/>
<path d="M35.5 49L29.324 45.707C27.5633 44.7703 26.091 43.3719 25.0649 41.6617C24.0389 39.9516 23.4979 37.9943 23.5 36V23C23.5005 22.4697 23.7114 21.9613 24.0864 21.5864C24.4613 21.2114 24.9697 21.0005 25.5 21H45.5C46.0303 21.0005 46.5387 21.2114 46.9136 21.5864C47.2886 21.9613 47.4995 22.4697 47.5 23V36C47.5021 37.9943 46.9611 39.9516 45.9351 41.6617C44.909 43.3719 43.4367 44.7703 41.676 45.707L35.5 49ZM25.5 23V36C25.4983 37.6318 25.9411 39.2333 26.7808 40.6325C27.6204 42.0317 28.8253 43.1758 30.266 43.942L35.5 46.733L40.734 43.943C42.1749 43.1767 43.3798 42.0324 44.2195 40.633C45.0592 39.2336 45.5018 37.632 45.5 36V23H25.5Z" fill="#B8213C"/>
<path d="M35.5 44.277V25H43.5V35.805C43.4999 37.0725 43.1557 38.3162 42.5041 39.4034C41.8524 40.4906 40.9178 41.3805 39.8 41.978L35.5 44.277Z" fill="#B8213C"/>
</svg>
