<svg width="69" height="69" viewBox="0 0 69 69" fill="none" xmlns="http://www.w3.org/2000/svg">
<circle cx="34.5" cy="34.5" r="34.5" fill="white"/>
<path d="M29 29H21V21H29V29ZM23 27H27V23H23V27ZM49 49H41V41H49V49ZM43 47H47V43H43V47ZM39 46H27C25.4087 46 23.8826 45.3679 22.7574 44.2426C21.6321 43.1174 21 41.5913 21 40C21 38.4087 21.6321 36.8826 22.7574 35.7574C23.8826 34.6321 25.4087 34 27 34V36C25.9391 36 24.9217 36.4214 24.1716 37.1716C23.4214 37.9217 23 38.9391 23 40C23 41.0609 23.4214 42.0783 24.1716 42.8284C24.9217 43.5786 25.9391 44 27 44H39V46ZM43 36V34C44.0609 34 45.0783 33.5786 45.8284 32.8284C46.5786 32.0783 47 31.0609 47 30C47 28.9391 46.5786 27.9217 45.8284 27.1716C45.0783 26.4214 44.0609 26 43 26H31V24H43C44.5913 24 46.1174 24.6321 47.2426 25.7574C48.3679 26.8826 49 28.4087 49 30C49 31.5913 48.3679 33.1174 47.2426 34.2426C46.1174 35.3679 44.5913 36 43 36Z" fill="#B8213C"/>
<path d="M38 30H32L29 34L35 40L41 34L38 30Z" fill="#B8213C"/>
</svg>
