<svg width="70" height="69" viewBox="0 0 70 69" fill="none" xmlns="http://www.w3.org/2000/svg">
<circle cx="35" cy="34.5" r="34.5" fill="white"/>
<path d="M48.92 34.61L45.92 27.61C45.8434 27.4293 45.7154 27.275 45.5518 27.1666C45.3882 27.0581 45.1963 27.0002 45 27H42V25C42 24.7348 41.8946 24.4804 41.7071 24.2929C41.5196 24.1054 41.2652 24 41 24H22C21.7348 24 21.4804 24.1054 21.2929 24.2929C21.1054 24.4804 21 24.7348 21 25V42C21 42.2652 21.1054 42.5196 21.2929 42.7071C21.4804 42.8946 21.7348 43 22 43H24.14C24.3703 43.8474 24.873 44.5954 25.5706 45.1287C26.2682 45.6621 27.1219 45.951 28 45.951C28.8781 45.951 29.7318 45.6621 30.4294 45.1287C31.127 44.5954 31.6297 43.8474 31.86 43H38.14C38.3703 43.8474 38.873 44.5954 39.5706 45.1287C40.2682 45.6621 41.1219 45.951 42 45.951C42.8781 45.951 43.7318 45.6621 44.4294 45.1287C45.127 44.5954 45.6297 43.8474 45.86 43H48C48.2652 43 48.5196 42.8946 48.7071 42.7071C48.8946 42.5196 49 42.2652 49 42V35C48.9997 34.866 48.9725 34.7333 48.92 34.61ZM42 29H44.34L46.48 34H42V29ZM28 44C27.6044 44 27.2178 43.8827 26.8889 43.6629C26.56 43.4432 26.3036 43.1308 26.1522 42.7654C26.0009 42.3999 25.9613 41.9978 26.0384 41.6098C26.1156 41.2219 26.3061 40.8655 26.5858 40.5858C26.8655 40.3061 27.2219 40.1156 27.6098 40.0384C27.9978 39.9613 28.3999 40.0009 28.7654 40.1522C29.1308 40.3036 29.4432 40.56 29.6629 40.8889C29.8827 41.2178 30 41.6044 30 42C30 42.5304 29.7893 43.0391 29.4142 43.4142C29.0391 43.7893 28.5304 44 28 44ZM38.14 41H31.86C31.6297 40.1526 31.127 39.4046 30.4294 38.8713C29.7318 38.3379 28.8781 38.049 28 38.049C27.1219 38.049 26.2682 38.3379 25.5706 38.8713C24.873 39.4046 24.3703 40.1526 24.14 41H23V26H40V38.56C39.5446 38.8243 39.1459 39.1759 38.8268 39.5946C38.5076 40.0133 38.2742 40.4909 38.14 41ZM42 44C41.6044 44 41.2178 43.8827 40.8889 43.6629C40.56 43.4432 40.3036 43.1308 40.1522 42.7654C40.0009 42.3999 39.9613 41.9978 40.0384 41.6098C40.1156 41.2219 40.3061 40.8655 40.5858 40.5858C40.8655 40.3061 41.2219 40.1156 41.6098 40.0384C41.9978 39.9613 42.3999 40.0009 42.7654 40.1522C43.1308 40.3036 43.4432 40.56 43.6629 40.8889C43.8827 41.2178 44 41.6044 44 42C44 42.5304 43.7893 43.0391 43.4142 43.4142C43.0391 43.7893 42.5304 44 42 44ZM47 41H45.86C45.6389 40.1435 45.1401 39.3845 44.4416 38.8417C43.7432 38.2989 42.8846 38.0029 42 38V36H47V41Z" fill="#B8213C"/>
</svg>
